<?xml version="1.0" encoding="utf-8"?>
<!-- Generator: Adobe Illustrator 23.0.4, SVG Export Plug-In . SVG Version: 6.00 Build 0)  -->
<svg version="1.1" id="レイヤー_1" xmlns="http://www.w3.org/2000/svg" xmlns:xlink="http://www.w3.org/1999/xlink" x="0px"
	 y="0px" viewBox="0 0 37 13" style="enable-background:new 0 0 37 13;" xml:space="preserve">
<style type="text/css">
	.st0{fill:#FFFFFF;}
</style>
<g id="グループ_7630" transform="translate(-897.118 -2370)">
	<path class="st0" d="M932.3,2377.1h-34.2c-0.6,0-1-0.4-1-1s0.4-1,1-1h30.1l-6.2-3.2c-0.5-0.3-0.7-0.9-0.4-1.3s0.9-0.7,1.3-0.4
		l9.9,5.1c0.4,0.2,0.6,0.7,0.5,1.1S932.7,2377.1,932.3,2377.1z"/>
	<path class="st0" d="M922.4,2382.3c-0.4,0-0.7-0.2-0.9-0.5c-0.3-0.5-0.1-1.1,0.4-1.3l9.9-5.1c0.5-0.3,1.1-0.1,1.3,0.4
		c0.3,0.5,0.1,1.1-0.4,1.3l-9.9,5.1C922.7,2382.3,922.6,2382.3,922.4,2382.3z"/>
</g>
</svg>
