<svg xmlns="http://www.w3.org/2000/svg" width="74.23" height="53.09" viewBox="0 0 74.23 53.09">
  <g id="icon-sns-facebook.svg" transform="translate(0 -1)">
    <g id="レイヤー_1" data-name="レイヤー 1">
      <g id="グループ_9793" data-name="グループ 9793" transform="translate(24.63 1)">
        <path id="パス_5573" data-name="パス 5573" d="M-328.03-1181.515A12.485,12.485,0,0,0-340.515-1194,12.485,12.485,0,0,0-353-1181.515a12.488,12.488,0,0,0,10.534,12.333v-8.724h-3.17v-3.609h3.17v-2.751c0-3.129,1.864-4.857,4.716-4.857a19.2,19.2,0,0,1,2.795.244v3.073h-1.574a1.8,1.8,0,0,0-2.035,1.95v2.342h3.463l-.554,3.609h-2.909v8.724A12.488,12.488,0,0,0-328.03-1181.515Z" transform="translate(353 1194)" fill="#231815"/>
      </g>
      <rect id="長方形_2430" data-name="長方形 2430" width="6.67" height="6.67" transform="translate(37.114 32.378) rotate(45)" fill="#231815"/>
      <rect id="長方形_2431" data-name="長方形 2431" width="74.23" height="17" rx="0.97" transform="translate(0 37.09)" fill="#231815"/>
      <path id="パス_6191" data-name="パス 6191" d="M19.92,47.32H17.69v2.9H16.25V43.11h3.94v1.2h-2.5v1.82h2.23Z" fill="#fff"/>
      <path id="パス_6192" data-name="パス 6192" d="M23.85,50.22a1.91,1.91,0,0,1-.12-.41,1.18,1.18,0,0,1-1,.51,1.5,1.5,0,0,1-1.1-.44,1.54,1.54,0,0,1-.43-1.14,1.57,1.57,0,0,1,.53-1.28A2.34,2.34,0,0,1,23.24,47h.42v-.42a.78.78,0,0,0-.12-.5.43.43,0,0,0-.36-.15c-.34,0-.51.2-.51.61H21.28a1.54,1.54,0,0,1,.55-1.21,2,2,0,0,1,1.39-.48,1.9,1.9,0,0,1,1.35.45A1.68,1.68,0,0,1,25,46.58v2.49a2.58,2.58,0,0,0,.2,1.07v.08Zm-.82-1a.78.78,0,0,0,.39-.1.57.57,0,0,0,.24-.22V47.8h-.33a.7.7,0,0,0-.55.23.84.84,0,0,0-.21.6c0,.37.16.61.43.61Z" fill="#fff"/>
      <path id="パス_6193" data-name="パス 6193" d="M28.35,49.17c.4,0,.61-.26.61-.78h1.3a1.92,1.92,0,0,1-.53,1.4,1.83,1.83,0,0,1-1.35.53,1.92,1.92,0,0,1-1.56-.64,2.86,2.86,0,0,1-.54-1.87v-.42a2.88,2.88,0,0,1,.53-1.89,1.87,1.87,0,0,1,1.56-.66,1.79,1.79,0,0,1,1.38.54,2.19,2.19,0,0,1,.51,1.53H29a1.38,1.38,0,0,0-.14-.68.51.51,0,0,0-.47-.24.57.57,0,0,0-.52.25,2.35,2.35,0,0,0-.17,1v.54a4.33,4.33,0,0,0,.07.9.64.64,0,0,0,.21.37.63.63,0,0,0,.37.12Z" fill="#fff"/>
      <path id="パス_6194" data-name="パス 6194" d="M33.58,50.32a2.13,2.13,0,0,1-1.66-.64,2.52,2.52,0,0,1-.6-1.81v-.42a3,3,0,0,1,.55-1.93,1.9,1.9,0,0,1,1.57-.68,1.79,1.79,0,0,1,1.5.64,3.08,3.08,0,0,1,.51,1.88V48H32.7a1.39,1.39,0,0,0,.26.86.88.88,0,0,0,.71.27,1.56,1.56,0,0,0,1.15-.47l.54.83a1.64,1.64,0,0,1-.73.57A2.44,2.44,0,0,1,33.58,50.32Zm-.87-3.24h1.38V47a1.5,1.5,0,0,0-.16-.72.53.53,0,0,0-.5-.24.57.57,0,0,0-.53.26,1.77,1.77,0,0,0-.19.78Z" fill="#fff"/>
      <path id="パス_6195" data-name="パス 6195" d="M40.75,47.75a3.67,3.67,0,0,1-.41,1.93,1.41,1.41,0,0,1-1.29.64A1.26,1.26,0,0,1,38,49.7l-.05.52H36.63v-7.5H38v2.65a1.22,1.22,0,0,1,1-.53,1.41,1.41,0,0,1,1.29.64,3.59,3.59,0,0,1,.42,1.87Zm-1.38-.35a2.73,2.73,0,0,0-.16-1.12.6.6,0,0,0-.57-.28.66.66,0,0,0-.63.39V48.8a.65.65,0,0,0,.64.37.56.56,0,0,0,.55-.26,2.14,2.14,0,0,0,.17-1Z" fill="#fff"/>
      <path id="パス_6196" data-name="パス 6196" d="M41.82,47.41a2.88,2.88,0,0,1,.57-1.89A1.92,1.92,0,0,1,44,44.84a2,2,0,0,1,1.58.68,2.89,2.89,0,0,1,.57,1.9v.34a2.83,2.83,0,0,1-.57,1.88,1.92,1.92,0,0,1-1.57.68,2,2,0,0,1-1.58-.68,2.94,2.94,0,0,1-.56-1.89Zm1.39.35q0,1.41.75,1.41c.47,0,.72-.39.75-1.18v-.58a2.25,2.25,0,0,0-.2-1.07.62.62,0,0,0-1.12,0,2.27,2.27,0,0,0-.19,1.07Z" fill="#fff"/>
      <path id="パス_6197" data-name="パス 6197" d="M47.19,47.41a2.88,2.88,0,0,1,.57-1.89,1.94,1.94,0,0,1,1.57-.68,2,2,0,0,1,1.58.68,3,3,0,0,1,.56,1.9v.34a2.89,2.89,0,0,1-.56,1.88,2.16,2.16,0,0,1-3.15,0,2.88,2.88,0,0,1-.57-1.89Zm1.39.35c0,.94.25,1.41.76,1.41s.71-.39.75-1.18v-.58a2.12,2.12,0,0,0-.21-1.07.6.6,0,0,0-.56-.35.59.59,0,0,0-.55.35,2.25,2.25,0,0,0-.2,1.07Z" fill="#fff"/>
      <path id="パス_6198" data-name="パス 6198" d="M54.48,48.19l-.37.41v1.62H52.73v-7.5h1.38v4.05l.17-.25,1-1.58h1.65l-1.54,2.18L57,50.22H55.45Z" fill="#fff"/>
    </g>
  </g>
</svg>
