<svg xmlns="http://www.w3.org/2000/svg" width="58" height="58" viewBox="0 0 58 58">
  <g id="icon-player" transform="translate(15514 16158)">
    <g id="グループ_8720" data-name="グループ 8720" transform="translate(-15507 -16156)">
      <path id="パス_5655" data-name="パス 5655" d="M1579.7,89.418c-2.482,1.1-6.615,3.111-9,5.182-3.116,2.7-4.274,5.753-4.274,11.264,0,5.036.044,10.656.044,10.656l2.482-.019s-.044-5.611-.044-10.637c0-4.746.894-7.2,3.416-9.389,2.922-2.531,9.129-5.126,10.238-5.58A23.827,23.827,0,0,1,1579.7,89.418Z" transform="translate(-1566.425 -63.753)"/>
      <g id="グループ_8699" data-name="グループ 8699" transform="translate(0.026 0)">
        <path id="パス_5656" data-name="パス 5656" d="M1610.477,124.131h-44.032v-6.138h2.484v3.656h39.087c.012-1.928.035-5.816.035-9.4,0-4.746-.894-7.2-3.418-9.389-3.182-2.756-10.278-5.6-10.35-5.624l-.782-.311V92.64l.447-.371c2.178-1.814,3.33-4.895,3.33-8.907,0-6.729-3.29-10.746-8.8-10.746s-8.8,4.018-8.8,10.746c0,4.316,1.312,7.524,3.8,9.276a6.812,6.812,0,0,0,3.412,1.211l-.278,2.467a8.923,8.923,0,0,1-4.654-1.719c-2.123-1.489-4.759-4.718-4.759-11.235,0-9.754,5.828-13.228,11.284-13.228s11.285,3.475,11.285,13.228c0,4.509-1.3,8.1-3.777,10.419v1.467c2.02.852,7.406,3.247,10.272,5.733,3.117,2.7,4.276,5.753,4.276,11.264,0,5.036-.044,10.656-.044,10.656Z" transform="translate(-1566.445 -70.133)"/>
      </g>
    </g>
    <rect id="長方形_2417" data-name="長方形 2417" width="58" height="58" transform="translate(-15514 -16158)" fill="none"/>
  </g>
</svg>
