<svg id="グループ_6824" data-name="グループ 6824" xmlns="http://www.w3.org/2000/svg" width="36.444" height="25.511" viewBox="0 0 36.444 25.511">
  <g id="グループ_6823" data-name="グループ 6823">
    <path id="パス_4602" data-name="パス 4602" d="M1090.457,603.916a4.564,4.564,0,0,0-3.222-3.222c-2.841-.761-14.238-.761-14.238-.761s-11.4,0-14.239.761a4.568,4.568,0,0,0-3.222,3.222c-.761,2.843-.761,8.772-.761,8.772s0,5.93.761,8.773a4.568,4.568,0,0,0,3.222,3.222c2.843.761,14.239.761,14.239.761s11.4,0,14.238-.761a4.564,4.564,0,0,0,3.222-3.222c.762-2.843.762-8.773.762-8.773S1091.219,606.759,1090.457,603.916Z" transform="translate(-1054.775 -599.933)" fill="#2d2f33"/>
    <path id="パス_4603" data-name="パス 4603" d="M1065.928,616.442l9.468-5.467-9.468-5.467Z" transform="translate(-1051.35 -598.221)" fill="#fff"/>
  </g>
</svg>
