<svg xmlns="http://www.w3.org/2000/svg" width="58" height="58" viewBox="0 0 58 58">
  <g id="icon-highlights" transform="translate(15345 16158)">
    <g id="グループ_8721" data-name="グループ 8721" transform="translate(-15339 -16155)">
      <g id="グループ_8703" data-name="グループ 8703" transform="translate(26.483 29.316)">
        <rect id="長方形_1590" data-name="長方形 1590" width="2.482" height="26.579" transform="translate(0 1.53) rotate(-38.046)"/>
      </g>
      <g id="グループ_8704" data-name="グループ 8704" transform="translate(30.213 34.636)">
        <rect id="長方形_1591" data-name="長方形 1591" width="5.323" height="18.711" transform="matrix(0.788, -0.616, 0.616, 0.788, 0, 3.281)"/>
      </g>
      <g id="グループ_8705" data-name="グループ 8705" transform="translate(0 0)">
        <path id="パス_5657" data-name="パス 5657" d="M1341.552,107.5a18.027,18.027,0,1,1,18.027-18.026A18.049,18.049,0,0,1,1341.552,107.5Zm0-33.571A15.545,15.545,0,1,0,1357.1,89.471,15.562,15.562,0,0,0,1341.552,73.926Z" transform="translate(-1323.525 -71.444)"/>
      </g>
      <g id="グループ_8706" data-name="グループ 8706" transform="translate(18.027 5.343)">
        <path id="パス_5659" data-name="パス 5659" d="M1349.755,88.143h-2.483a10.212,10.212,0,0,0-10.2-10.2V75.459A12.7,12.7,0,0,1,1349.755,88.143Z" transform="translate(-1337.071 -75.459)"/>
      </g>
    </g>
    <rect id="長方形_2418" data-name="長方形 2418" width="58" height="58" transform="translate(-15345 -16158)" fill="none"/>
  </g>
</svg>
