<svg xmlns="http://www.w3.org/2000/svg" viewBox="0 0 74.23 44.41"><defs><style>.cls-1{fill:#231815;}.cls-2{fill:#fff;}</style></defs><title>アセット 4</title><g id="レイヤー_2" data-name="レイヤー 2"><g id="レイヤー_1-2" data-name="レイヤー 1"><path class="cls-1" d="M26.64,1.94A2.24,2.24,0,0,0,25.07.37,53.43,53.43,0,0,0,18.12,0a53.35,53.35,0,0,0-7,.37A2.25,2.25,0,0,0,9.59,1.94a23.34,23.34,0,0,0-.37,4.29,23.26,23.26,0,0,0,.37,4.28,2.24,2.24,0,0,0,1.58,1.57,53.35,53.35,0,0,0,7,.37,53.43,53.43,0,0,0,7-.37,2.22,2.22,0,0,0,1.57-1.57A23.26,23.26,0,0,0,27,6.23,23.34,23.34,0,0,0,26.64,1.94Z"/><polygon class="cls-2" points="16.34 8.89 20.96 6.23 16.34 3.56 16.34 8.89"/><path class="cls-1" d="M35,11.33a2,2,0,0,1-.75-1.11,7.55,7.55,0,0,1-.22-2V7.09a6.52,6.52,0,0,1,.26-2A2,2,0,0,1,35.12,4a3,3,0,0,1,2.81,0,2.08,2.08,0,0,1,.76,1.12,6.8,6.8,0,0,1,.24,2V8.23a7.22,7.22,0,0,1-.23,2,2,2,0,0,1-.77,1.11,3.12,3.12,0,0,1-2.89,0Zm2-1.22a4.1,4.1,0,0,0,.14-1.25V6.43A4,4,0,0,0,37,5.2a.53.53,0,0,0-.52-.38.52.52,0,0,0-.5.38,3.69,3.69,0,0,0-.15,1.23V8.86A4.1,4.1,0,0,0,36,10.11a.54.54,0,0,0,1,0Z"/><path class="cls-1" d="M62.07,8.24v.4a10.47,10.47,0,0,0,0,1.12,1,1,0,0,0,.19.55.49.49,0,0,0,.43.17.55.55,0,0,0,.54-.3,2.65,2.65,0,0,0,.16-1l1.51.09a2.18,2.18,0,0,1,0,.28,2,2,0,0,1-.59,1.61,2.38,2.38,0,0,1-1.67.54,2,2,0,0,1-1.82-.81,4.79,4.79,0,0,1-.52-2.52V7a4.71,4.71,0,0,1,.54-2.56,2.06,2.06,0,0,1,1.85-.81,2.46,2.46,0,0,1,1.39.33,1.8,1.8,0,0,1,.68,1A7.58,7.58,0,0,1,65,6.91V8.24ZM62.29,5a1.06,1.06,0,0,0-.18.54,10.78,10.78,0,0,0,0,1.14V7.2h1.28V6.64A10.46,10.46,0,0,0,63.3,5.5,1,1,0,0,0,63.12,5a.51.51,0,0,0-.42-.16A.5.5,0,0,0,62.29,5Z"/><path class="cls-1" d="M30.77,8.1l-2-7.22h1.75l.69,3.27c.18.81.31,1.5.4,2.07h.05c.06-.41.19-1.09.39-2L32.78.88h1.74l-2,7.22v3.46H30.77Z"/><path class="cls-1" d="M44.6,3.76v7.8H43.23l-.16-1h0a1.8,1.8,0,0,1-1.68,1.09,1.33,1.33,0,0,1-1.15-.51,2.7,2.7,0,0,1-.37-1.59V3.76H41.6V9.49a1.88,1.88,0,0,0,.11.74.4.4,0,0,0,.38.22.72.72,0,0,0,.44-.14.8.8,0,0,0,.31-.35V3.76Z"/><path class="cls-1" d="M53.61,3.76v7.8H52.23l-.15-1h0a1.78,1.78,0,0,1-1.68,1.09,1.3,1.3,0,0,1-1.14-.51,2.7,2.7,0,0,1-.37-1.59V3.76H50.6V9.49a1.68,1.68,0,0,0,.12.74.38.38,0,0,0,.38.22.74.74,0,0,0,.44-.14.87.87,0,0,0,.31-.35V3.76Z"/><path class="cls-1" d="M49.37,2.3H47.63v9.26H45.91V2.3H44.17V.88h5.2Z"/><path class="cls-1" d="M59.42,5a2,2,0,0,0-.52-1.07,1.38,1.38,0,0,0-1-.33,1.63,1.63,0,0,0-.9.27,1.81,1.81,0,0,0-.65.72h0V.49h-1.7V11.56h1.45l.18-.74h0a1.52,1.52,0,0,0,.61.62,1.74,1.74,0,0,0,.91.23,1.38,1.38,0,0,0,1.31-.82,5.87,5.87,0,0,0,.42-2.56V7.06A10.65,10.65,0,0,0,59.42,5ZM57.81,8.19a10.93,10.93,0,0,1-.07,1.33,1.43,1.43,0,0,1-.24.69.53.53,0,0,1-.44.2.77.77,0,0,1-.4-.1.72.72,0,0,1-.3-.3V5.58a1.12,1.12,0,0,1,.3-.52.67.67,0,0,1,.47-.21.49.49,0,0,1,.42.21,1.79,1.79,0,0,1,.2.71,12.53,12.53,0,0,1,.06,1.41Z"/><rect class="cls-1" x="33.78" y="24.08" width="6.67" height="6.67" transform="translate(30.25 -18.21) rotate(45)"/><rect class="cls-1" y="27.41" width="74.23" height="17" rx="0.97"/><path class="cls-2" d="M20.16,36.33l1.06-3.19h1.57l-1.91,4.53v2.58H19.43V37.67l-1.91-4.53h1.56Z"/><path class="cls-2" d="M23.61,37.43a2.89,2.89,0,0,1,.56-1.88,2.16,2.16,0,0,1,3.15,0,2.86,2.86,0,0,1,.57,1.89v.34a2.88,2.88,0,0,1-.57,1.89,2.18,2.18,0,0,1-3.15,0,2.9,2.9,0,0,1-.56-1.89Zm1.38.35c0,.94.26,1.42.76,1.42s.72-.4.75-1.18v-.59a2.28,2.28,0,0,0-.2-1.07.64.64,0,0,0-.57-.35.62.62,0,0,0-.55.35,2.28,2.28,0,0,0-.2,1.07Z"/><path class="cls-2" d="M31.74,39.76a1.34,1.34,0,0,1-1.15.58,1.26,1.26,0,0,1-1.1-.5,2.32,2.32,0,0,1-.38-1.45V35h1.38v3.46c0,.51.18.77.51.77a.71.71,0,0,0,.69-.41V35h1.39v5.29h-1.3Z"/><path class="cls-2" d="M39.14,34.33H37.38v5.92H35.94V34.33H34.21V33.14h4.93Z"/><path class="cls-2" d="M42.89,39.76a1.34,1.34,0,0,1-1.15.58,1.28,1.28,0,0,1-1.1-.5,2.39,2.39,0,0,1-.38-1.45V35h1.38v3.46c0,.51.18.77.52.77a.7.7,0,0,0,.68-.41V35h1.39v5.29h-1.3Z"/><path class="cls-2" d="M49.74,37.78a3.65,3.65,0,0,1-.41,1.92,1.41,1.41,0,0,1-1.29.64,1.24,1.24,0,0,1-1.1-.62l0,.53H45.62v-7.5H47v2.64a1.21,1.21,0,0,1,1-.52,1.42,1.42,0,0,1,1.29.63,3.62,3.62,0,0,1,.42,1.87Zm-1.38-.35a2.7,2.7,0,0,0-.16-1.12.61.61,0,0,0-.57-.29.65.65,0,0,0-.63.4v2.41a.67.67,0,0,0,.64.37.58.58,0,0,0,.55-.26,2.19,2.19,0,0,0,.17-1Z"/><path class="cls-2" d="M53.1,40.34a2.18,2.18,0,0,1-1.66-.63,2.59,2.59,0,0,1-.59-1.82v-.42a3.06,3.06,0,0,1,.54-1.93A1.91,1.91,0,0,1,53,34.87a1.79,1.79,0,0,1,1.5.63A3,3,0,0,1,55,37.39v.67H52.22a1.44,1.44,0,0,0,.26.86.86.86,0,0,0,.71.28,1.55,1.55,0,0,0,1.16-.48l.54.84a1.9,1.9,0,0,1-.74.57A2.59,2.59,0,0,1,53.1,40.34Zm-.87-3.24h1.39V37a1.47,1.47,0,0,0-.16-.72A.54.54,0,0,0,53,36a.57.57,0,0,0-.52.26A1.76,1.76,0,0,0,52.23,37.1Z"/></g></g></svg>