<svg xmlns="http://www.w3.org/2000/svg" width="29.767" height="28.362" viewBox="0 0 29.767 28.362">
  <path id="icon-sns-line-s" d="M675.394,268.986c0-6.66-6.677-12.078-14.884-12.078s-14.884,5.418-14.884,12.078c0,5.971,5.295,10.971,12.447,11.916.485.1,1.145.32,1.311.734a3.055,3.055,0,0,1,.048,1.346s-.175,1.05-.213,1.274c-.065.376-.3,1.472,1.289.8s8.571-5.047,11.694-8.641h0A10.745,10.745,0,0,0,675.394,268.986Zm-20.135,3.556a.29.29,0,0,1-.289.29H650.8a.288.288,0,0,1-.2-.081l0,0,0,0a.287.287,0,0,1-.081-.2h0v-6.484a.29.29,0,0,1,.29-.29h1.044a.289.289,0,0,1,.289.29v5.15h2.837a.29.29,0,0,1,.289.29Zm2.517,0a.29.29,0,0,1-.29.289h-1.044a.29.29,0,0,1-.29-.289v-6.485a.29.29,0,0,1,.29-.29h1.044a.29.29,0,0,1,.29.29Zm7.186,0a.29.29,0,0,1-.29.289h-1.044a.293.293,0,0,1-.074-.01h0l-.02-.006-.009,0-.014-.006-.014-.007-.008,0-.018-.011,0,0a.282.282,0,0,1-.074-.072l-2.976-4.019v3.852a.29.29,0,0,1-.29.289h-1.044a.29.29,0,0,1-.29-.289v-6.485a.29.29,0,0,1,.29-.29h1.069l.015,0h.012l.017,0,.01,0,.017.006.009,0,.017.007.009,0,.016.009.008.005.015.01.008.006.015.013.005.005.017.018,0,0a.34.34,0,0,1,.023.029l2.972,4.014v-3.853a.29.29,0,0,1,.29-.29h1.044a.29.29,0,0,1,.29.29Zm5.765-5.441a.29.29,0,0,1-.29.29H667.6v1.1h2.836a.29.29,0,0,1,.29.29v1.044a.289.289,0,0,1-.29.29H667.6v1.1h2.836a.29.29,0,0,1,.29.29v1.044a.29.29,0,0,1-.29.29h-4.171a.287.287,0,0,1-.2-.081l0,0,0,0a.287.287,0,0,1-.081-.2h0v-6.484h0a.288.288,0,0,1,.08-.2l0-.005,0,0a.289.289,0,0,1,.2-.082h4.171a.29.29,0,0,1,.29.29Z" transform="translate(-645.627 -256.908)" fill="#fff"/>
</svg>
