<svg id="グループ_6822" data-name="グループ 6822" xmlns="http://www.w3.org/2000/svg" width="32.796" height="32.796" viewBox="0 0 32.796 32.796">
  <path id="パス_4600" data-name="パス 4600" d="M1018.032,599.821c4.379,0,4.9.017,6.626.1a9.07,9.07,0,0,1,3.046.565,5.44,5.44,0,0,1,3.112,3.112,9.075,9.075,0,0,1,.565,3.046c.078,1.729.1,2.247.1,6.626s-.017,4.9-.1,6.627a9.071,9.071,0,0,1-.565,3.044,5.43,5.43,0,0,1-3.112,3.112,9.069,9.069,0,0,1-3.046.565c-1.728.078-2.247.1-6.626.1s-4.9-.017-6.627-.1a9.066,9.066,0,0,1-3.044-.565,5.42,5.42,0,0,1-3.112-3.112,9.068,9.068,0,0,1-.565-3.044c-.078-1.729-.1-2.248-.1-6.627s.017-4.9.1-6.626a9.072,9.072,0,0,1,.565-3.046,5.431,5.431,0,0,1,3.112-3.112,9.067,9.067,0,0,1,3.044-.565c1.729-.078,2.248-.1,6.627-.1m0-2.954c-4.453,0-5.011.018-6.762.1a12.043,12.043,0,0,0-3.98.762,8.385,8.385,0,0,0-4.8,4.8,12.046,12.046,0,0,0-.762,3.981c-.08,1.749-.1,2.307-.1,6.76s.02,5.013.1,6.762a12.044,12.044,0,0,0,.762,3.98,8.386,8.386,0,0,0,4.8,4.8,12.046,12.046,0,0,0,3.98.762c1.75.08,2.308.1,6.762.1s5.011-.02,6.76-.1a12.046,12.046,0,0,0,3.981-.762,8.385,8.385,0,0,0,4.8-4.8,12.047,12.047,0,0,0,.762-3.98c.08-1.749.1-2.308.1-6.762s-.018-5.011-.1-6.76a12.049,12.049,0,0,0-.762-3.981,8.385,8.385,0,0,0-4.8-4.8,12.043,12.043,0,0,0-3.981-.762c-1.749-.08-2.307-.1-6.76-.1Z" transform="translate(-1001.633 -596.867)" fill="#2d2f33"/>
  <path id="パス_4601" data-name="パス 4601" d="M1016.157,602.97a8.42,8.42,0,1,0,8.42,8.42A8.42,8.42,0,0,0,1016.157,602.97Zm0,13.887a5.466,5.466,0,1,1,5.466-5.466A5.466,5.466,0,0,1,1016.157,616.857Z" transform="translate(-999.759 -594.993)" fill="#2d2f33"/>
  <circle id="楕円形_161" data-name="楕円形 161" cx="1.968" cy="1.968" r="1.968" transform="translate(23.184 5.676)" fill="#2d2f33"/>
</svg>
