<svg id="icon-sns-instagram-s" xmlns="http://www.w3.org/2000/svg" width="26.085" height="26.085" viewBox="0 0 26.085 26.085">
  <path id="パス_4513" data-name="パス 4513" d="M921.716,599.217c3.483,0,3.9.013,5.271.076a7.224,7.224,0,0,1,2.422.449,4.321,4.321,0,0,1,2.474,2.475,7.187,7.187,0,0,1,.449,2.422c.063,1.375.077,1.787.077,5.27s-.013,3.9-.077,5.271a7.186,7.186,0,0,1-.449,2.421,4.314,4.314,0,0,1-2.474,2.475,7.229,7.229,0,0,1-2.422.449c-1.375.062-1.787.076-5.271.076s-3.894-.013-5.27-.076a7.23,7.23,0,0,1-2.422-.449,4.314,4.314,0,0,1-2.474-2.475,7.184,7.184,0,0,1-.449-2.421c-.063-1.375-.077-1.788-.077-5.271s.013-3.894.077-5.27a7.185,7.185,0,0,1,.449-2.422,4.321,4.321,0,0,1,2.474-2.475,7.225,7.225,0,0,1,2.422-.449c1.375-.062,1.788-.076,5.27-.076m0-2.35c-3.542,0-3.986.015-5.377.078a9.579,9.579,0,0,0-3.166.606,6.669,6.669,0,0,0-3.814,3.814,9.543,9.543,0,0,0-.607,3.167c-.064,1.391-.078,1.835-.078,5.377s.015,3.987.078,5.378a9.542,9.542,0,0,0,.607,3.166,6.669,6.669,0,0,0,3.814,3.814,9.582,9.582,0,0,0,3.166.606c1.391.063,1.835.079,5.377.079s3.987-.016,5.378-.079a9.583,9.583,0,0,0,3.166-.606,6.67,6.67,0,0,0,3.814-3.814,9.553,9.553,0,0,0,.607-3.166c.063-1.391.078-1.836.078-5.378s-.015-3.986-.078-5.377a9.554,9.554,0,0,0-.607-3.167,6.67,6.67,0,0,0-3.814-3.814,9.58,9.58,0,0,0-3.166-.606c-1.391-.063-1.835-.078-5.378-.078Z" transform="translate(-908.674 -596.867)" fill="#fff"/>
  <path id="パス_4514" data-name="パス 4514" d="M921.474,602.97a6.7,6.7,0,1,0,6.7,6.7A6.7,6.7,0,0,0,921.474,602.97Zm0,11.045a4.348,4.348,0,1,1,4.348-4.348A4.347,4.347,0,0,1,921.474,614.015Z" transform="translate(-908.432 -596.625)" fill="#fff"/>
  <ellipse id="楕円形_147" data-name="楕円形 147" cx="1.565" cy="1.565" rx="1.565" ry="1.565" transform="translate(18.44 4.515)" fill="#fff"/>
</svg>
