<svg xmlns="http://www.w3.org/2000/svg" width="36.352" height="25.746" viewBox="0 0 36.352 25.746">
  <g id="icon-sns-youtube-s" transform="translate(0.5 0.5)">
    <path id="中マド_1" data-name="中マド 1" d="M17.677,24.746c-.11,0-11.087-.008-13.812-.738A4.43,4.43,0,0,1,.739,20.883,46.3,46.3,0,0,1,0,12.373,46.277,46.277,0,0,1,.739,3.865,4.425,4.425,0,0,1,3.865.739C6.59.008,17.566,0,17.677,0S28.762.008,31.489.739a4.425,4.425,0,0,1,3.125,3.126,46.338,46.338,0,0,1,.738,8.508,46.359,46.359,0,0,1-.738,8.51,4.429,4.429,0,0,1-3.125,3.126C28.762,24.737,17.787,24.746,17.677,24.746ZM14.142,7.071V17.677l9.184-5.3-9.184-5.3Z" transform="translate(0 0)" fill="#fff" stroke="rgba(0,0,0,0)" stroke-width="1"/>
  </g>
</svg>
