<svg xmlns="http://www.w3.org/2000/svg" viewBox="0 0 74.23 52.85"><defs><style>.cls-1{fill:#231815;}.cls-2{fill:#fff;}</style></defs><title>アセット 3</title><g id="レイヤー_2" data-name="レイヤー 2"><g id="レイヤー_1-2" data-name="レイヤー 1"><path class="cls-1" d="M37.11,2.26c3.35,0,3.75,0,5.07.07a6.74,6.74,0,0,1,2.33.44,4,4,0,0,1,2.38,2.38,6.74,6.74,0,0,1,.44,2.33c.06,1.32.07,1.72.07,5.07s0,3.74-.07,5.07a6.72,6.72,0,0,1-.44,2.32,4.09,4.09,0,0,1-2.38,2.39,7.06,7.06,0,0,1-2.33.43c-1.32.06-1.72.07-5.07.07s-3.74,0-5.07-.07a7.19,7.19,0,0,1-2.33-.43,4,4,0,0,1-1.44-.94,3.91,3.91,0,0,1-.94-1.45,7,7,0,0,1-.43-2.32c-.06-1.33-.07-1.72-.07-5.07s0-3.75.07-5.07a7.06,7.06,0,0,1,.43-2.33,4.11,4.11,0,0,1,2.38-2.38A6.85,6.85,0,0,1,32,2.33c1.33-.06,1.72-.07,5.07-.07m0-2.26c-3.4,0-3.83,0-5.17.08a9.15,9.15,0,0,0-3,.58,6.12,6.12,0,0,0-2.23,1.45,6.11,6.11,0,0,0-1.44,2.22,9.17,9.17,0,0,0-.59,3c-.06,1.34-.07,1.77-.07,5.18s0,3.83.07,5.17a9.12,9.12,0,0,0,.59,3,6.31,6.31,0,0,0,3.67,3.67,9.38,9.38,0,0,0,3,.59c1.34.06,1.77.07,5.17.07s3.84,0,5.18-.07a9.44,9.44,0,0,0,3-.59A6.38,6.38,0,0,0,49,20.76a9.15,9.15,0,0,0,.58-3c.06-1.34.08-1.77.08-5.17s0-3.84-.08-5.18a9.2,9.2,0,0,0-.58-3,6,6,0,0,0-1.45-2.22A6,6,0,0,0,45.33.66a9.2,9.2,0,0,0-3-.58C41,0,40.52,0,37.11,0Z"/><path class="cls-1" d="M37.11,6.1a6.45,6.45,0,1,0,6.45,6.45A6.45,6.45,0,0,0,37.11,6.1Zm0,10.63a4.19,4.19,0,1,1,4.19-4.18A4.18,4.18,0,0,1,37.11,16.73Z"/><circle class="cls-1" cx="43.81" cy="5.85" r="1.51"/><rect class="cls-1" x="33.78" y="32.51" width="6.67" height="6.67" transform="translate(36.22 -15.74) rotate(45)"/><rect class="cls-1" y="35.85" width="74.23" height="17" rx="0.97"/><path class="cls-2" d="M16.61,48.68H15.17V41.57h1.44Z"/><path class="cls-2" d="M19.41,43.4l0,.52a1.47,1.47,0,0,1,1.23-.62c.9,0,1.37.64,1.4,1.91v3.47H20.69V45.31a1.19,1.19,0,0,0-.13-.65.51.51,0,0,0-.47-.2.63.63,0,0,0-.59.38v3.84H18.11V43.4Z"/><path class="cls-2" d="M25.81,47.26a.45.45,0,0,0-.17-.32,3.25,3.25,0,0,0-.75-.4,3,3,0,0,1-1.17-.72,1.35,1.35,0,0,1-.33-.92,1.48,1.48,0,0,1,.5-1.15,1.93,1.93,0,0,1,1.33-.45,2.06,2.06,0,0,1,1.39.45,1.51,1.51,0,0,1,.53,1.2H25.75c0-.43-.18-.64-.53-.64a.53.53,0,0,0-.37.14.51.51,0,0,0-.14.38.43.43,0,0,0,.16.31,3.51,3.51,0,0,0,.74.38,3,3,0,0,1,1.19.7,1.53,1.53,0,0,1-.18,2.13,2.44,2.44,0,0,1-2.42.2,1.71,1.71,0,0,1-.7-.63,1.61,1.61,0,0,1-.25-.88h1.31a.86.86,0,0,0,.17.55.67.67,0,0,0,.52.18C25.62,47.77,25.81,47.6,25.81,47.26Z"/><path class="cls-2" d="M30,42.1v1.3h.7v1H30v2.63a.76.76,0,0,0,.08.43.39.39,0,0,0,.33.12,1.49,1.49,0,0,0,.33,0v1.08a2.38,2.38,0,0,1-.76.13c-.89,0-1.35-.51-1.36-1.54V44.43H28v-1h.61V42.1Z"/><path class="cls-2" d="M34.39,48.68a1.91,1.91,0,0,1-.12-.41,1.16,1.16,0,0,1-1,.51,1.48,1.48,0,0,1-1.1-.44,1.51,1.51,0,0,1-.44-1.14,1.6,1.6,0,0,1,.53-1.28,2.28,2.28,0,0,1,1.52-.47h.42V45a.83.83,0,0,0-.12-.51.45.45,0,0,0-.35-.14c-.35,0-.52.2-.52.6H31.83a1.5,1.5,0,0,1,.55-1.2,2,2,0,0,1,1.39-.48,1.89,1.89,0,0,1,1.34.45A1.68,1.68,0,0,1,35.59,45v2.49a2.6,2.6,0,0,0,.19,1.07v.08Zm-.82-1a.82.82,0,0,0,.4-.09.61.61,0,0,0,.23-.22v-1.1h-.33a.7.7,0,0,0-.55.23.84.84,0,0,0-.2.6C33.12,47.5,33.27,47.69,33.57,47.69Z"/><path class="cls-2" d="M36.82,45.88a3.28,3.28,0,0,1,.47-1.94,1.52,1.52,0,0,1,1.31-.64,1.27,1.27,0,0,1,1.11.57l.06-.47H41v5.28a2,2,0,0,1-.57,1.55,2.29,2.29,0,0,1-1.62.53,2.8,2.8,0,0,1-.91-.17,1.78,1.78,0,0,1-.72-.45l.47-1a1.65,1.65,0,0,0,1.1.46.85.85,0,0,0,.66-.22,1,1,0,0,0,.21-.72v-.45a1.23,1.23,0,0,1-1,.52,1.51,1.51,0,0,1-1.31-.66,3.24,3.24,0,0,1-.47-1.85Zm1.38.34a2.35,2.35,0,0,0,.19,1.07.66.66,0,0,0,.61.34.73.73,0,0,0,.63-.31V44.79a.69.69,0,0,0-.62-.33.66.66,0,0,0-.61.33,2.29,2.29,0,0,0-.2,1.09Z"/><path class="cls-2" d="M45,44.73l-.45,0a.76.76,0,0,0-.77.5v3.49H42.41V43.4h1.31l0,.57a1,1,0,0,1,.9-.67,1,1,0,0,1,.38.06Z"/><path class="cls-2" d="M48.64,48.68a1.91,1.91,0,0,1-.12-.41,1.16,1.16,0,0,1-1,.51,1.5,1.5,0,0,1-1.1-.44A1.54,1.54,0,0,1,46,47.2a1.6,1.6,0,0,1,.53-1.28A2.29,2.29,0,0,1,48,45.45h.42V45a.76.76,0,0,0-.13-.51.45.45,0,0,0-.35-.14c-.35,0-.52.2-.52.6H46.08a1.5,1.5,0,0,1,.55-1.2A2,2,0,0,1,48,43.3a1.86,1.86,0,0,1,1.34.45A1.68,1.68,0,0,1,49.84,45v2.49A2.77,2.77,0,0,0,50,48.6v.08Zm-.81-1a.8.8,0,0,0,.39-.09.73.73,0,0,0,.24-.22v-1.1h-.34a.72.72,0,0,0-.55.23.89.89,0,0,0-.2.6C47.37,47.5,47.52,47.69,47.83,47.69Z"/><path class="cls-2" d="M52.54,43.4l0,.48a1.48,1.48,0,0,1,1.22-.58,1.15,1.15,0,0,1,1.12.71,1.46,1.46,0,0,1,1.3-.71c.92,0,1.39.64,1.42,1.92v3.46H56.25V45.31a1.33,1.33,0,0,0-.12-.66.48.48,0,0,0-.43-.19c-.26,0-.45.15-.58.47v3.75H53.75V45.32a1.33,1.33,0,0,0-.12-.66.46.46,0,0,0-.44-.2.62.62,0,0,0-.56.38v3.84H51.24V43.4Z"/></g></g></svg>