<svg id="icon-sns-twitter-s" xmlns="http://www.w3.org/2000/svg" width="28.765" height="23.39" viewBox="0 0 28.765 23.39">
  <path id="パス_4512" data-name="パス 4512" d="M818.649,622.849c10.855,0,16.794-9,16.794-16.795,0-.253,0-.506-.011-.759a12.017,12.017,0,0,0,2.947-3.062,12,12,0,0,1-3.4.931,5.938,5.938,0,0,0,2.6-3.268,11.752,11.752,0,0,1-3.753,1.427,5.9,5.9,0,0,0-10.21,4.04,6.567,6.567,0,0,0,.15,1.347,16.765,16.765,0,0,1-12.167-6.17,5.925,5.925,0,0,0,1.831,7.884,5.972,5.972,0,0,1-2.671-.736v.08a5.914,5.914,0,0,0,4.73,5.789,5.913,5.913,0,0,1-2.658.1,5.9,5.9,0,0,0,5.513,4.1,11.836,11.836,0,0,1-7.332,2.532,11.205,11.205,0,0,1-1.4-.081,16.781,16.781,0,0,0,9.035,2.636" transform="translate(-809.614 -599.459)" fill="#fff"/>
</svg>
