<svg xmlns="http://www.w3.org/2000/svg" width="33.173" height="31.608" viewBox="0 0 33.173 31.608">
  <g id="グループ_6827" data-name="グループ 6827" transform="translate(0)">
    <g id="FULL_COLOR_ICON" data-name="FULL COLOR ICON">
      <g id="TYPE_A" data-name="TYPE A">
        <g id="グループ_6826" data-name="グループ 6826">
          <path id="パス_4604" data-name="パス 4604" d="M1143.88,611.236c0-7.423-7.44-13.46-16.586-13.46s-16.587,6.037-16.587,13.46c0,6.653,5.9,12.225,13.872,13.279.54.118,1.274.357,1.46.818a3.424,3.424,0,0,1,.055,1.5s-.195,1.17-.238,1.419c-.072.42-.333,1.64,1.438.894s9.551-5.624,13.032-9.631h0a11.972,11.972,0,0,0,3.555-8.28" transform="translate(-1110.707 -597.776)" fill="#2d2f33"/>
          <g id="グループ_6825" data-name="グループ 6825" transform="translate(5.441 9.874)">
            <path id="パス_4605" data-name="パス 4605" d="M1121.167,605.33H1120a.323.323,0,0,0-.323.323v7.227a.322.322,0,0,0,.323.321h1.163a.323.323,0,0,0,.324-.321v-7.227a.323.323,0,0,0-.324-.323" transform="translate(-1113.393 -605.33)" fill="#fff"/>
            <path id="パス_4606" data-name="パス 4606" d="M1128.485,605.33h-1.163a.322.322,0,0,0-.323.323v4.292l-3.312-4.472c-.008-.012-.017-.022-.025-.033l0,0-.02-.02-.007-.007-.017-.014-.008-.007-.017-.01-.009-.007-.018-.009-.009-.005-.02-.008-.01,0-.018-.007-.012,0-.018,0h-.015l-.017,0h-1.191a.323.323,0,0,0-.323.323v7.227a.322.322,0,0,0,.323.321h1.163a.321.321,0,0,0,.323-.321v-4.292l3.316,4.478a.314.314,0,0,0,.082.08l0,0,.02.012.009.005.016.008.016.007.009,0,.022.007h.005a.337.337,0,0,0,.083.01h1.163a.322.322,0,0,0,.323-.321v-7.227a.323.323,0,0,0-.323-.323" transform="translate(-1112.701 -605.33)" fill="#fff"/>
            <path id="パス_4607" data-name="パス 4607" d="M1119.841,611.392h-3.162v-5.739a.322.322,0,0,0-.323-.323h-1.163a.323.323,0,0,0-.323.323v7.226h0a.317.317,0,0,0,.09.222l0,.005.005.005a.322.322,0,0,0,.223.089h4.648a.323.323,0,0,0,.323-.323v-1.163a.324.324,0,0,0-.323-.323" transform="translate(-1114.87 -605.33)" fill="#fff"/>
            <path id="パス_4608" data-name="パス 4608" d="M1133.028,607.139a.322.322,0,0,0,.323-.323v-1.163a.323.323,0,0,0-.323-.323h-4.648a.317.317,0,0,0-.223.09l0,0-.005.005a.328.328,0,0,0-.09.224h0v7.226h0a.323.323,0,0,0,.09.222l.005.005,0,0a.321.321,0,0,0,.223.09h4.648a.322.322,0,0,0,.323-.323v-1.163a.323.323,0,0,0-.323-.323h-3.161V610.17h3.161a.322.322,0,0,0,.323-.323v-1.163a.323.323,0,0,0-.323-.323h-3.161v-1.222Z" transform="translate(-1110.82 -605.33)" fill="#fff"/>
          </g>
        </g>
      </g>
    </g>
  </g>
</svg>
