<svg xmlns="http://www.w3.org/2000/svg" viewBox="0 0 74.23 51.94"><defs><style>.cls-1{fill:#231815;}.cls-2{fill:#fff;}</style></defs><title>アセット 5</title><g id="レイヤー_2" data-name="レイヤー 2"><g id="レイヤー_1-2" data-name="レイヤー 1"><g id="FULL_COLOR_ICON" data-name="FULL COLOR ICON"><g id="TYPE_A" data-name="TYPE A"><path class="cls-1" d="M49.8,10.3C49.8,4.62,44.11,0,37.11,0S24.42,4.62,24.42,10.3c0,5.09,4.52,9.35,10.62,10.16.41.09,1,.27,1.11.62a2.63,2.63,0,0,1,.05,1.15s-.15.9-.19,1.09-.25,1.25,1.1.68,7.31-4.3,10-7.37h0A9.14,9.14,0,0,0,49.8,10.3"/><path class="cls-2" d="M34.54,7.55h-.89a.25.25,0,0,0-.25.25v5.53a.25.25,0,0,0,.25.25h.89a.25.25,0,0,0,.24-.25V7.8a.25.25,0,0,0-.24-.25"/><path class="cls-2" d="M40.66,7.55h-.89a.25.25,0,0,0-.25.25v3.29L37,7.66l0,0h0l0,0H35.89a.25.25,0,0,0-.24.25v5.53a.25.25,0,0,0,.24.25h.89a.25.25,0,0,0,.25-.25V10.05l2.54,3.42a.17.17,0,0,0,.06.06h1a.25.25,0,0,0,.25-.25V7.8a.25.25,0,0,0-.25-.25"/><path class="cls-2" d="M32.39,12.19H30V7.8a.25.25,0,0,0-.25-.25h-.89a.25.25,0,0,0-.24.25v5.53h0a.21.21,0,0,0,.07.17h0a.28.28,0,0,0,.17.07h3.56a.25.25,0,0,0,.25-.25v-.89a.25.25,0,0,0-.25-.25"/><path class="cls-2" d="M45.58,8.94a.25.25,0,0,0,.24-.25V7.8a.25.25,0,0,0-.24-.25H42a.24.24,0,0,0-.17.07h0a.24.24,0,0,0-.07.17h0v5.53h0a.24.24,0,0,0,.07.17h0a.24.24,0,0,0,.17.07h3.56a.25.25,0,0,0,.24-.25v-.89a.25.25,0,0,0-.24-.25H43.16v-.93h2.42a.25.25,0,0,0,.24-.25v-.89a.25.25,0,0,0-.24-.25H43.16V8.94Z"/></g></g><rect class="cls-1" x="33.78" y="31.6" width="6.67" height="6.67" transform="translate(35.57 -16.01) rotate(45)"/><rect class="cls-1" y="34.94" width="74.23" height="17" rx="0.97"/><path class="cls-2" d="M28.49,46.58H31v1.19h-4V40.66h1.43Z"/><path class="cls-2" d="M33.74,47.77H32.31V40.66h1.43Z"/><path class="cls-2" d="M40.32,47.77H38.88l-2.1-4.66v4.66H35.35V40.66h1.43l2.11,4.67V40.66h1.43Z"/><path class="cls-2" d="M45.54,44.69H43.31v1.89H46v1.19H41.87V40.66h4.07v1.2H43.31v1.68h2.23Z"/></g></g></svg>