<svg xmlns="http://www.w3.org/2000/svg" width="31.2" height="31.01" viewBox="0 0 31.2 31.01">
  <g id="footer-icon-sns-facebook" transform="translate(0)">
    <path id="パス_5573" data-name="パス 5573" d="M-321.8-1178.4a15.6,15.6,0,0,0-15.6-15.6,15.6,15.6,0,0,0-15.6,15.6,15.6,15.6,0,0,0,13.163,15.41v-10.9H-343.8v-4.509h3.961v-3.437c0-3.91,2.329-6.069,5.892-6.069a24.008,24.008,0,0,1,3.492.3v3.839h-1.967a2.255,2.255,0,0,0-2.542,2.436v2.927h4.327l-.692,4.509h-3.635v10.9A15.6,15.6,0,0,0-321.8-1178.4Z" transform="translate(353 1194)" fill="#fff"/>
  </g>
</svg>
