<svg xmlns="http://www.w3.org/2000/svg" width="36.166" height="29.408" viewBox="0 0 36.166 29.408">
  <g id="Logo_FIXED" data-name="Logo — FIXED" transform="translate(0)">
    <g id="グループ_6821" data-name="グループ 6821">
      <path id="パス_4599" data-name="パス 4599" d="M957.275,628.867c13.647,0,21.115-11.318,21.115-21.116,0-.318,0-.637-.014-.954a15.129,15.129,0,0,0,3.7-3.849,15.078,15.078,0,0,1-4.269,1.171,7.459,7.459,0,0,0,3.27-4.109,14.777,14.777,0,0,1-4.717,1.795,7.423,7.423,0,0,0-12.837,5.079,8.165,8.165,0,0,0,.188,1.694,21.081,21.081,0,0,1-15.3-7.758,7.454,7.454,0,0,0,2.3,9.913,7.515,7.515,0,0,1-3.358-.925v.1a7.436,7.436,0,0,0,5.949,7.279,7.441,7.441,0,0,1-3.344.131,7.422,7.422,0,0,0,6.933,5.153,14.887,14.887,0,0,1-9.219,3.184,14.107,14.107,0,0,1-1.766-.1,21.1,21.1,0,0,0,11.361,3.315" transform="translate(-945.914 -599.459)" fill="#2d2f33"/>
    </g>
  </g>
</svg>
