<svg xmlns="http://www.w3.org/2000/svg" width="58" height="58" viewBox="0 0 58 58">
  <g id="icon-event" transform="translate(15687 16158)">
    <g id="グループ_8719" data-name="グループ 8719" transform="translate(-15682 -16154)">
      <path id="パス_5022" data-name="パス 5022" d="M1398.471,248.826h-48.38l1.9-29.326.344-.287a19.273,19.273,0,0,0,5.044-7.633,18.638,18.638,0,0,0,1.148-9.871l-.229-1.205,9.932-1.435.229,1.033a5.923,5.923,0,0,0,11.593,0l.229-1.033,9.927,1.435-.229,1.205a18.664,18.664,0,0,0,1.147,9.871h0a19.279,19.279,0,0,0,5.05,7.576l.344.287Zm-45.912-2.3H1396l-1.665-25.944A21.881,21.881,0,0,1,1389,212.38h0a21.647,21.647,0,0,1-1.435-9.929l-5.567-.8a8.23,8.23,0,0,1-15.494,0l-5.51.8a21.619,21.619,0,0,1-1.377,9.929,21.856,21.856,0,0,1-5.394,8.206Z" transform="translate(-1350.091 -199.068)"/>
      <g id="グループ_7310" data-name="グループ 7310" transform="translate(11.019 16.643)">
        <path id="パス_5023" data-name="パス 5023" d="M1369.628,220.736c0-1.091-.861-1.721-2.295-1.721a7.7,7.7,0,0,0-4.7,2.126l-1.5-2.87a11.248,11.248,0,0,1,6.714-2.525c3.386,0,5.8,1.721,5.8,4.42s-1.377,3.673-3.214,5.624l-3.959,3.9h7.747v3.217h-12.686v-2.643l6.256-6.486A5.357,5.357,0,0,0,1369.628,220.736Z" transform="translate(-1361.134 -215.747)"/>
        <path id="パス_5024" data-name="パス 5024" d="M1388.31,224.414c0,5.509-2.3,8.609-6.543,8.609s-6.542-3.041-6.542-8.609,2.3-8.609,6.543-8.609S1388.31,218.9,1388.31,224.414Zm-9.355,0c0,4.017.918,5.8,2.87,5.8s2.812-1.779,2.812-5.8-.918-5.8-2.812-5.8S1378.955,220.339,1378.955,224.414Z" transform="translate(-1361.164 -215.747)"/>
      </g>
      <rect id="長方形_1824" data-name="長方形 1824" width="44.993" height="2.296" transform="translate(1.607 41.206)"/>
    </g>
    <rect id="長方形_2416" data-name="長方形 2416" width="58" height="58" transform="translate(-15687 -16158)" fill="none"/>
  </g>
</svg>
