<svg id="icon-sns-facebook-s-b" xmlns="http://www.w3.org/2000/svg" width="33" height="32.799" viewBox="0 0 33 32.799">
  <path id="パス_5573" data-name="パス 5573" d="M-320-1177.5a16.5,16.5,0,0,0-16.5-16.5,16.5,16.5,0,0,0-16.5,16.5,16.5,16.5,0,0,0,13.922,16.3v-11.53h-4.189v-4.77h4.189v-3.635c0-4.135,2.463-6.419,6.232-6.419a25.383,25.383,0,0,1,3.694.322v4.061h-2.081a2.385,2.385,0,0,0-2.689,2.577v3.1h4.576l-.732,4.77h-3.845v11.53A16.5,16.5,0,0,0-320-1177.5Z" transform="translate(353 1193.999)" fill="#2d2f33"/>
</svg>
