<svg xmlns="http://www.w3.org/2000/svg" viewBox="0 0 74.23 50.25"><defs><style>.cls-1{fill:#231815;}.cls-2{fill:#fff;}</style></defs><title>アセット 2</title><g id="レイヤー_2" data-name="レイヤー 2"><g id="レイヤー_1-2" data-name="レイヤー 1"><g id="Logo_FIXED" data-name="Logo — FIXED"><path class="cls-1" d="M32,22.5c10.44,0,16.15-8.66,16.15-16.16,0-.24,0-.48,0-.73A11.51,11.51,0,0,0,51,2.67a11.9,11.9,0,0,1-3.27.9A5.69,5.69,0,0,0,50.18.42a11.16,11.16,0,0,1-3.61,1.37,5.68,5.68,0,0,0-9.82,3.89A6.32,6.32,0,0,0,36.9,7,16.19,16.19,0,0,1,25.19,1,5.72,5.72,0,0,0,27,8.63a5.79,5.79,0,0,1-2.56-.71V8a5.69,5.69,0,0,0,4.55,5.57,5.7,5.7,0,0,1-2.56.1,5.66,5.66,0,0,0,5.3,3.94,11.37,11.37,0,0,1-7,2.44A10.09,10.09,0,0,1,23.28,20,16.09,16.09,0,0,0,32,22.5"/></g><rect class="cls-1" x="33.78" y="29.92" width="6.67" height="6.67" transform="translate(34.38 -16.5) rotate(45)"/><rect class="cls-1" y="33.25" width="74.23" height="17" rx="0.97"/><path class="cls-2" d="M19.74,43.47a4.31,4.31,0,0,1-.26,1.45,2.08,2.08,0,0,1-.65.95,1.49,1.49,0,0,1-.94.32,1,1,0,0,1-1-.65,1.2,1.2,0,0,1-1,.64,1,1,0,0,1-1-.61A2.79,2.79,0,0,1,14.68,44,4.42,4.42,0,0,1,15,42.56a2.45,2.45,0,0,1,.69-1,1.36,1.36,0,0,1,.9-.35,1.63,1.63,0,0,1,1.05.34l.26.2-.22,2.82a1.43,1.43,0,0,0,.05.59.33.33,0,0,0,.32.2c.23,0,.43-.18.59-.54a3.75,3.75,0,0,0,.25-1.36,4.37,4.37,0,0,0-.56-2.61A2.1,2.1,0,0,0,16.5,40a2.21,2.21,0,0,0-1.89,1,5.21,5.21,0,0,0-.78,2.82,4.43,4.43,0,0,0,.56,2.68,2.1,2.1,0,0,0,1.86.93,3.08,3.08,0,0,0,.72-.09,2.75,2.75,0,0,0,.65-.24l.16.75a2,2,0,0,1-.68.32,3.46,3.46,0,0,1-2.73-.4,3.11,3.11,0,0,1-1.14-1.53,6.36,6.36,0,0,1-.33-2.42,6.56,6.56,0,0,1,.51-2.42,4,4,0,0,1,1.28-1.65,3,3,0,0,1,1.83-.58,3,3,0,0,1,1.77.52,3.1,3.1,0,0,1,1.12,1.5A5.75,5.75,0,0,1,19.74,43.47Zm-4,.51a2.49,2.49,0,0,0,.08,1c.09.23.22.34.41.34a.41.41,0,0,0,.3-.2,1.65,1.65,0,0,0,.24-.55l.18-2.4-.24,0a.75.75,0,0,0-.67.44A3.83,3.83,0,0,0,15.73,44Z"/><path class="cls-2" d="M25.17,43.61a3.49,3.49,0,0,1-.43,1.91,1.41,1.41,0,0,1-1.27.66,1.24,1.24,0,0,1-1-.52v2.46H21.05V40.8h1.28l.05.49a1.23,1.23,0,0,1,1.08-.58,1.44,1.44,0,0,1,1.27.61,3.38,3.38,0,0,1,.44,1.89Zm-1.38-.35a2.36,2.36,0,0,0-.17-1.08.59.59,0,0,0-.57-.32.66.66,0,0,0-.62.36V44.7a.68.68,0,0,0,.63.34.57.57,0,0,0,.57-.35,2.66,2.66,0,0,0,.16-1.08Z"/><path class="cls-2" d="M28.91,46.09a1.53,1.53,0,0,1-.11-.41,1.19,1.19,0,0,1-1,.5,1.49,1.49,0,0,1-1.1-.43,1.58,1.58,0,0,1-.44-1.14,1.62,1.62,0,0,1,.53-1.29,2.35,2.35,0,0,1,1.53-.46h.42v-.43a.82.82,0,0,0-.12-.5.44.44,0,0,0-.36-.14c-.35,0-.52.2-.52.6H26.35a1.52,1.52,0,0,1,.55-1.21,2.09,2.09,0,0,1,1.39-.47,1.86,1.86,0,0,1,1.34.45,1.68,1.68,0,0,1,.48,1.29v2.48A2.7,2.7,0,0,0,30.3,46v.09Zm-.81-1a.8.8,0,0,0,.39-.09.65.65,0,0,0,.24-.22v-1.1H28.4a.72.72,0,0,0-.56.22.89.89,0,0,0-.2.6C27.64,44.91,27.79,45.1,28.1,45.1Z"/><path class="cls-2" d="M34.12,42.14l-.46,0a.75.75,0,0,0-.77.5v3.49H31.51V40.8h1.3l0,.58a1,1,0,0,1,1.28-.61Z"/><path class="cls-2" d="M37.74,46.09a1.91,1.91,0,0,1-.12-.41,1.19,1.19,0,0,1-1,.5,1.49,1.49,0,0,1-1.1-.43,1.58,1.58,0,0,1-.44-1.14,1.62,1.62,0,0,1,.53-1.29,2.38,2.38,0,0,1,1.53-.46h.42v-.43a.82.82,0,0,0-.12-.5.43.43,0,0,0-.36-.14c-.34,0-.52.2-.52.6H35.17a1.55,1.55,0,0,1,.55-1.21,2.09,2.09,0,0,1,1.39-.47,1.86,1.86,0,0,1,1.34.45,1.68,1.68,0,0,1,.48,1.29v2.48a2.51,2.51,0,0,0,.2,1.07v.09Zm-.82-1a.8.8,0,0,0,.39-.09.65.65,0,0,0,.24-.22v-1.1h-.33a.72.72,0,0,0-.56.22.89.89,0,0,0-.2.6C36.46,44.91,36.61,45.1,36.92,45.1Z"/><path class="cls-2" d="M42.67,44.67a.4.4,0,0,0-.17-.32,3.16,3.16,0,0,0-.75-.41,3.15,3.15,0,0,1-1.17-.71,1.4,1.4,0,0,1-.32-.93,1.48,1.48,0,0,1,.5-1.14,1.91,1.91,0,0,1,1.33-.45,2.07,2.07,0,0,1,1.39.45,1.48,1.48,0,0,1,.52,1.2H42.62c0-.43-.18-.64-.54-.64a.48.48,0,0,0-.36.13.5.5,0,0,0-.14.38.39.39,0,0,0,.15.31,3.66,3.66,0,0,0,.74.39,3.26,3.26,0,0,1,1.2.69,1.44,1.44,0,0,1,.34,1,1.38,1.38,0,0,1-.53,1.14,2.17,2.17,0,0,1-1.39.42,2.26,2.26,0,0,1-1-.22,1.62,1.62,0,0,1-.69-.63,1.64,1.64,0,0,1-.26-.88h1.32a.78.78,0,0,0,.17.54.64.64,0,0,0,.52.18C42.49,45.17,42.67,45,42.67,44.67Z"/><path class="cls-2" d="M47.78,46.09a2,2,0,0,1-.11-.41,1.19,1.19,0,0,1-1,.5,1.49,1.49,0,0,1-1.1-.43,1.58,1.58,0,0,1-.44-1.14,1.62,1.62,0,0,1,.53-1.29,2.37,2.37,0,0,1,1.53-.46h.42v-.43a.82.82,0,0,0-.12-.5.43.43,0,0,0-.36-.14c-.34,0-.52.2-.52.6H45.22a1.52,1.52,0,0,1,.55-1.21,2.09,2.09,0,0,1,1.39-.47,1.86,1.86,0,0,1,1.34.45A1.68,1.68,0,0,1,49,42.45v2.48a2.51,2.51,0,0,0,.2,1.07v.09Zm-.81-1a.8.8,0,0,0,.39-.09.65.65,0,0,0,.24-.22v-1.1h-.33a.72.72,0,0,0-.56.22.89.89,0,0,0-.2.6C46.51,44.91,46.66,45.1,47,45.1Z"/><path class="cls-2" d="M54.5,43.61a3.58,3.58,0,0,1-.43,1.91,1.42,1.42,0,0,1-1.27.66,1.23,1.23,0,0,1-1-.52v2.46H50.38V40.8h1.28l.05.49a1.23,1.23,0,0,1,1.08-.58,1.44,1.44,0,0,1,1.27.61,3.46,3.46,0,0,1,.44,1.89Zm-1.38-.35A2.5,2.5,0,0,0,53,42.18a.59.59,0,0,0-.57-.32.66.66,0,0,0-.62.36V44.7a.68.68,0,0,0,.63.34.57.57,0,0,0,.57-.35,2.66,2.66,0,0,0,.16-1.08Z"/><path class="cls-2" d="M55.57,43.27a2.85,2.85,0,0,1,.57-1.88,2.15,2.15,0,0,1,3.14,0,2.88,2.88,0,0,1,.57,1.89v.34a2.92,2.92,0,0,1-.56,1.89,1.94,1.94,0,0,1-1.58.67,1.9,1.9,0,0,1-1.57-.68,2.84,2.84,0,0,1-.57-1.89Zm1.39.35c0,1,.25,1.42.75,1.42s.72-.4.76-1.18v-.59a2.16,2.16,0,0,0-.2-1.07.62.62,0,0,0-.57-.35.6.6,0,0,0-.54.35,2.16,2.16,0,0,0-.2,1.07Z"/></g></g></svg>