<?xml version="1.0" encoding="utf-8"?>
<!-- Generator: Adobe Illustrator 23.0.4, SVG Export Plug-In . SVG Version: 6.00 Build 0)  -->
<svg version="1.1" id="レイヤー_1" xmlns="http://www.w3.org/2000/svg" xmlns:xlink="http://www.w3.org/1999/xlink" x="0px"
	 y="0px" viewBox="0 0 111 158.5" style="enable-background:new 0 0 111 158.5;" xml:space="preserve">
<style type="text/css">
	.st0{enable-background:new    ;}
	.st1{fill:#FFFFFF;}
</style>
<g id="img-logo-catch" transform="translate(-204 -10126)">
	<g class="st0">
		<path class="st1" d="M205.7,10159.4l5.4-0.8c0.1,3.7,0.9,5,2.5,5c1.3,0,1.6-1.1,1.6-2.1c0-2.3-1.2-3.7-3.1-5.4l-2.5-2.1
			c-2.2-1.8-3.8-4-3.8-7.4c0-4.8,3-7.4,7.9-7.4c6.1,0,6.9,4.7,7,8.1l-5.4,0.7c-0.1-2.5-0.2-4.1-1.9-4.1c-1.2,0-1.7,1.2-1.7,2.2
			c0,2.1,1.1,3.2,2.7,4.7l2.3,2.1c2.5,2.1,4.4,4.6,4.4,8.5c0,4-2.9,7.1-7.4,7.1C208.5,10168.4,205.9,10165.7,205.7,10159.4z"/>
		<path class="st1" d="M222.9,10159.1v-10.5c0-5.8,2.1-9.3,8.5-9.3c6.4,0,8.6,3.4,8.6,9.3v10.5c0,5.8-2.2,9.3-8.6,9.3
			C225,10168.4,222.9,10164.9,222.9,10159.1z M233.5,10160.6v-13.7c0-1.7-0.2-3.3-2.2-3.3c-1.9,0-2.1,1.6-2.1,3.3v13.7
			c0,1.6,0.1,3.3,2.1,3.3C233.3,10164,233.5,10162.3,233.5,10160.6z"/>
		<path class="st1" d="M242.3,10159v-10.2c0-5.9,2-9.5,8.5-9.5c6.3,0,8.2,3.4,8.2,8.2v2.5h-6.1v-2.8c0-1.6,0-3.4-2-3.4
			s-2.2,1.8-2.2,3.5v13.3c0,1.9,0.3,3.5,2.2,3.5c2,0,2-1.8,2-3.5v-3h6.1v2.5c0,4.8-1.8,8.4-8.2,8.4
			C244.4,10168.4,242.3,10164.7,242.3,10159z"/>
		<path class="st1" d="M261.4,10139.6h6.3v28.4h-6.3V10139.6z"/>
		<path class="st1" d="M274.8,10139.6h7.1l5.3,28.4h-5.8l-0.9-6h-4.2l-1,6h-5.9L274.8,10139.6z M280,10158.3l-1.5-11.1l-1.5,11.1
			H280z"/>
		<path class="st1" d="M289.1,10139.6h6.3v24.1h6.5v4.2h-12.8V10139.6z"/>
	</g>
	<g class="st0">
		<path class="st1" d="M205.7,10195v-10.2c0-5.9,2-9.5,8.5-9.5c6.3,0,8.2,3.4,8.2,8.2v2.5h-6.1v-2.8c0-1.6,0-3.4-2-3.4
			s-2.2,1.8-2.2,3.5v13.3c0,1.9,0.3,3.5,2.2,3.5c2,0,2-1.8,2-3.5v-3h6.1v2.5c0,4.8-1.8,8.4-8.2,8.4
			C207.7,10204.4,205.7,10200.7,205.7,10195z"/>
		<path class="st1" d="M224.9,10175.6h6.3v11.5h4.4v-11.5h6.3v28.4h-6.3v-12.4h-4.4v12.4h-6.3V10175.6z"/>
		<path class="st1" d="M249,10175.6h7.1l5.3,28.4h-5.8l-0.9-6h-4.2l-1,6h-5.9L249,10175.6z M254.2,10194.3l-1.5-11.1l-1.5,11.1
			H254.2z"/>
		<path class="st1" d="M263.3,10175.6h4.4l5.8,13.7v-13.7h5.2v28.4h-4.2l-5.8-14.7v14.7h-5.4V10175.6z"/>
		<path class="st1" d="M281.5,10194.6v-9.5c0-6,2-9.8,8.5-9.8c6.3,0,8.3,3.4,8.3,8.3v1.8h-6.1v-2.3c0-1.8-0.1-3.4-2.1-3.4
			c-2,0-2.2,1.9-2.2,3.6v13.1c0,1.9,0.4,3.6,2.3,3.6c1.9,0,2.4-1.8,2.4-3.7v-3.3h-2.6v-3.7h8.2v14.7h-4.1l-0.4-2.3
			c-0.8,1.6-2.1,2.8-4.6,2.8C283.4,10204.4,281.5,10200.5,281.5,10194.6z"/>
		<path class="st1" d="M301.2,10175.6h12.7v4.3h-6.5v7h4.9v4.3h-4.9v8.5h6.5v4.2h-12.8V10175.6z"/>
	</g>
	<g class="st0">
		<path class="st1" d="M204.7,10218.8h4.8l1.5,11.5l1.6-11.5h4.1l1.4,11.8l1.7-11.8h4.4l-3,20.2h-4.9l-1.8-11.4l-2,11.4h-4.8
			L204.7,10218.8z"/>
		<path class="st1" d="M225.6,10211.4h5.7v4h-5.7V10211.4z M225.7,10218.8h5.7v20.2h-5.7V10218.8z"/>
		<path class="st1" d="M234.4,10233.5v-11h-2v-3.7h2v-6.2h5.8v6.2h2.9v3.7h-2.9v10.4c0,1.2,0.7,1.6,1.8,1.6c0.6,0,1.1-0.1,1.5-0.1
			v4.5c-0.6,0.1-2.1,0.3-3.4,0.3C235.5,10239.2,234.4,10237.1,234.4,10233.5z"/>
		<path class="st1" d="M245.2,10210.6h5.7v9.9c1.5-1.5,3.1-2.1,5-2.1c2.4,0,3.7,2,3.7,4.7v15.9h-5.7v-15.1c0-1-0.3-1.5-1.2-1.5
			c-0.5,0-1.2,0.3-1.9,0.7v15.8h-5.7V10210.6z"/>
	</g>
	<g class="st0">
		<path class="st1" d="M205.5,10265.9l5.4-0.8c0.1,3.7,0.9,5,2.5,5c1.3,0,1.6-1.1,1.6-2.1c0-2.3-1.2-3.7-3.1-5.4l-2.5-2.1
			c-2.2-1.8-3.8-4-3.8-7.4c0-4.8,3-7.4,7.9-7.4c6.1,0,6.9,4.7,7,8.1l-5.4,0.7c-0.1-2.5-0.2-4.1-1.9-4.1c-1.2,0-1.7,1.2-1.7,2.2
			c0,2.1,1.1,3.2,2.7,4.7l2.3,2.1c2.5,2.1,4.4,4.6,4.4,8.5c0,4-2.9,7.1-7.4,7.1C208.3,10274.9,205.7,10272.2,205.5,10265.9z"/>
		<path class="st1" d="M223,10246.1h9.5c5.1,0,7.5,3,7.5,8.2c0,6.5-3.6,8.1-8.2,8.1h-2.5v12H223V10246.1z M231.4,10258.1
			c2.3,0,2.7-1.2,2.7-3.8c0-2.1-0.2-3.7-2.8-3.7h-2.1v7.5H231.4z"/>
		<path class="st1" d="M241.6,10265.6v-10.5c0-5.8,2.1-9.3,8.5-9.3c6.4,0,8.6,3.4,8.6,9.3v10.5c0,5.8-2.2,9.3-8.6,9.3
			C243.7,10274.9,241.6,10271.4,241.6,10265.6z M252.3,10267.1v-13.7c0-1.7-0.2-3.3-2.2-3.3c-1.9,0-2.1,1.6-2.1,3.3v13.7
			c0,1.6,0.1,3.3,2.1,3.3C252.1,10270.5,252.3,10268.8,252.3,10267.1z"/>
		<path class="st1" d="M261.4,10246.1h7.8c5.7,0,9.4,1.5,9.4,7.5c0,3.5-0.7,5.8-3.5,7.1l3.9,13.7h-6.5l-3.1-12.7h-1.8v12.7h-6.3
			V10246.1z M269.5,10258.2c2.6,0,3.4-1.5,3.4-4c0-2.4-0.7-3.9-3.1-3.9h-2v7.8H269.5z"/>
		<path class="st1" d="M283.7,10250.8h-4.3v-4.7h14.8v4.7H290v23.7h-6.3V10250.8z"/>
		<path class="st1" d="M295,10265.9l5.4-0.8c0.1,3.7,0.9,5,2.5,5c1.3,0,1.6-1.1,1.6-2.1c0-2.3-1.2-3.7-3.1-5.4l-2.5-2.1
			c-2.2-1.8-3.8-4-3.8-7.4c0-4.8,3-7.4,7.9-7.4c6.1,0,6.9,4.7,7,8.1l-5.4,0.7c-0.1-2.5-0.2-4.1-1.9-4.1c-1.2,0-1.7,1.2-1.7,2.2
			c0,2.1,1.1,3.2,2.7,4.7l2.3,2.1c2.4,2.1,4.4,4.6,4.4,8.5c0,4-2.9,7.1-7.4,7.1C297.8,10274.9,295.2,10272.2,295,10265.9z"/>
	</g>
</g>
</svg>
