<?xml version="1.0" encoding="utf-8"?>
<!-- Generator: Adobe Illustrator 23.0.4, SVG Export Plug-In . SVG Version: 6.00 Build 0)  -->
<svg version="1.1" id="レイヤー_1" xmlns="http://www.w3.org/2000/svg" xmlns:xlink="http://www.w3.org/1999/xlink" x="0px"
	 y="0px" viewBox="0 0 266 34" style="enable-background:new 0 0 266 34;" xml:space="preserve">
<style type="text/css">
	.st0{enable-background:new    ;}
	.st1{fill:#FFFFFF;}
</style>
<g class="st0">
	<path class="st1" d="M1.6,21.4l3.5-0.5c0,2.4,0.6,3.3,1.6,3.3c0.9,0,1-0.7,1-1.4c0-1.5-0.8-2.5-2-3.5l-1.6-1.4
		c-1.4-1.2-2.5-2.6-2.5-4.9c0-3.2,2-4.9,5.2-4.9c4,0,4.6,3.1,4.6,5.3L8,13.8c0-1.7-0.2-2.7-1.2-2.7c-0.8,0-1.1,0.8-1.1,1.4
		c0,1.4,0.7,2.1,1.8,3.1L9,17c1.6,1.4,2.9,3,2.9,5.6c0,2.6-1.9,4.7-4.9,4.7C3.5,27.3,1.8,25.5,1.6,21.4z"/>
	<path class="st1" d="M13.2,21.1v-6.9c0-3.8,1.4-6.1,5.6-6.1c4.2,0,5.6,2.3,5.6,6.1v6.9c0,3.8-1.4,6.1-5.6,6.1
		C14.6,27.3,13.2,25,13.2,21.1z M20.2,22.2v-9c0-1.1-0.1-2.2-1.4-2.2c-1.2,0-1.4,1.1-1.4,2.2v9c0,1.1,0.1,2.2,1.4,2.2
		C20.1,24.4,20.2,23.2,20.2,22.2z"/>
	<path class="st1" d="M26.2,21.1v-6.7c0-3.9,1.3-6.2,5.6-6.2c4.1,0,5.4,2.2,5.4,5.4v1.6h-4v-1.9c0-1.1,0-2.2-1.3-2.2
		c-1.3,0-1.4,1.2-1.4,2.3v8.8c0,1.3,0.2,2.3,1.4,2.3c1.3,0,1.3-1.1,1.3-2.3v-2h4v1.6c0,3.2-1.2,5.5-5.4,5.5
		C27.6,27.3,26.2,24.8,26.2,21.1z"/>
	<path class="st1" d="M39,8.4h4.1V27H39V8.4z"/>
	<path class="st1" d="M48.1,8.4h4.7L56.3,27h-3.8l-0.6-3.9h-2.7L48.5,27h-3.9L48.1,8.4z M51.5,20.6l-1-7.3l-1,7.3H51.5z"/>
	<path class="st1" d="M57.7,8.4h4.1v15.8h4.3V27h-8.4V8.4z"/>
	<path class="st1" d="M72.7,21.1v-6.7c0-3.9,1.3-6.2,5.6-6.2c4.1,0,5.4,2.2,5.4,5.4v1.6h-4v-1.9c0-1.1,0-2.2-1.3-2.2
		c-1.3,0-1.4,1.2-1.4,2.3v8.8c0,1.3,0.2,2.3,1.4,2.3c1.3,0,1.3-1.1,1.3-2.3v-2h4v1.6c0,3.2-1.2,5.5-5.4,5.5
		C74,27.3,72.7,24.8,72.7,21.1z"/>
	<path class="st1" d="M85.5,8.4h4.1v7.5h2.9V8.4h4.1V27h-4.1v-8.1h-2.9V27h-4.1V8.4z"/>
	<path class="st1" d="M101.6,8.4h4.7l3.5,18.6H106l-0.6-3.9h-2.7L102,27h-3.9L101.6,8.4z M105,20.6l-1-7.3l-1,7.3H105z"/>
	<path class="st1" d="M111.3,8.4h2.9l3.8,9v-9h3.4V27h-2.8l-3.8-9.7V27h-3.5V8.4z"/>
	<path class="st1" d="M123.5,20.8v-6.3c0-4,1.3-6.5,5.6-6.5c4.1,0,5.5,2.2,5.5,5.5v1.2h-4v-1.5c0-1.2-0.1-2.2-1.4-2.2
		c-1.3,0-1.4,1.2-1.4,2.3V22c0,1.3,0.3,2.4,1.5,2.4s1.6-1.1,1.6-2.4v-2.2h-1.7v-2.4h5.4V27h-2.7l-0.2-1.5c-0.5,1.1-1.4,1.8-3,1.8
		C124.7,27.3,123.5,24.7,123.5,20.8z"/>
	<path class="st1" d="M136.7,8.4h8.4v2.8h-4.3v4.6h3.2v2.9h-3.2v5.6h4.3V27h-8.4V8.4z"/>
	<path class="st1" d="M151.1,13.7h3.1l1,7.5l1-7.5h2.7l0.9,7.7l1.1-7.7h2.9l-2,13.3h-3.2l-1.1-7.5l-1.3,7.5H153L151.1,13.7z"/>
	<path class="st1" d="M165,8.9h3.8v2.6H165V8.9z M165.1,13.7h3.7V27h-3.7V13.7z"/>
	<path class="st1" d="M171.1,23.4v-7.2h-1.3v-2.5h1.3v-4h3.8v4h1.9v2.5h-1.9V23c0,0.8,0.5,1.1,1.2,1.1c0.4,0,0.7,0,1-0.1V27
		c-0.4,0.1-1.4,0.2-2.3,0.2C171.8,27.1,171.1,25.8,171.1,23.4z"/>
	<path class="st1" d="M178.4,8.4h3.7v6.5c1-1,2-1.4,3.3-1.4c1.6,0,2.4,1.3,2.4,3.1V27h-3.7v-9.9c0-0.6-0.2-1-0.8-1
		c-0.3,0-0.8,0.2-1.2,0.5V27h-3.7V8.4z"/>
	<path class="st1" d="M194.9,21.4l3.5-0.5c0,2.4,0.6,3.3,1.6,3.3c0.9,0,1-0.7,1-1.4c0-1.5-0.8-2.5-2-3.5l-1.6-1.4
		c-1.4-1.2-2.5-2.6-2.5-4.9c0-3.2,2-4.9,5.2-4.9c4,0,4.6,3.1,4.6,5.3l-3.5,0.4c0-1.7-0.2-2.7-1.2-2.7c-0.8,0-1.1,0.8-1.1,1.4
		c0,1.4,0.7,2.1,1.8,3.1l1.5,1.4c1.6,1.4,2.9,3,2.9,5.6c0,2.6-1.9,4.7-4.9,4.7C196.8,27.3,195.1,25.5,194.9,21.4z"/>
	<path class="st1" d="M206.7,8.4h6.3c3.3,0,4.9,2,4.9,5.4c0,4.3-2.4,5.3-5.4,5.3h-1.7V27h-4.1V8.4z M212.2,16.2
		c1.5,0,1.8-0.8,1.8-2.5c0-1.4-0.2-2.4-1.8-2.4h-1.4v4.9H212.2z"/>
	<path class="st1" d="M219.2,21.1v-6.9c0-3.8,1.4-6.1,5.6-6.1c4.2,0,5.6,2.3,5.6,6.1v6.9c0,3.8-1.4,6.1-5.6,6.1
		C220.6,27.3,219.2,25,219.2,21.1z M226.2,22.2v-9c0-1.1-0.1-2.2-1.4-2.2c-1.2,0-1.4,1.1-1.4,2.2v9c0,1.1,0.1,2.2,1.4,2.2
		S226.2,23.2,226.2,22.2z"/>
	<path class="st1" d="M232.5,8.4h5.1c3.7,0,6.2,1,6.2,4.9c0,2.3-0.4,3.8-2.3,4.7l2.6,9h-4.3l-2-8.3h-1.2V27h-4.1V8.4z M237.7,16.3
		c1.7,0,2.2-1,2.2-2.6c0-1.6-0.5-2.5-2-2.5h-1.3v5.2H237.7z"/>
	<path class="st1" d="M247.3,11.4h-2.8V8.4h9.7v3.1h-2.8V27h-4.1V11.4z"/>
	<path class="st1" d="M255,21.4l3.5-0.5c0,2.4,0.6,3.3,1.6,3.3c0.9,0,1-0.7,1-1.4c0-1.5-0.8-2.5-2-3.5l-1.6-1.4
		c-1.4-1.2-2.5-2.6-2.5-4.9c0-3.2,2-4.9,5.2-4.9c4,0,4.6,3.1,4.6,5.3l-3.5,0.4c0-1.7-0.2-2.7-1.2-2.7c-0.8,0-1.1,0.8-1.1,1.4
		c0,1.4,0.7,2.1,1.8,3.1l1.5,1.4c1.6,1.4,2.9,3,2.9,5.6c0,2.6-1.9,4.7-4.9,4.7C256.9,27.3,255.2,25.5,255,21.4z"/>
</g>
</svg>
