<svg id="logo" xmlns="http://www.w3.org/2000/svg" width="148.884" height="23.567" viewBox="0 0 148.884 23.567">
  <g id="グループ_6911" data-name="グループ 6911" transform="translate(132.942 1.991)">
    <path id="パス_4704" data-name="パス 4704" d="M461.493,530.945l6.987-.733a7.041,7.041,0,0,1,2.523.311c.974.4,1.706,1.3,1.678,3.083a8.2,8.2,0,0,1-.823,3.295,7.475,7.475,0,0,1-2.38,2.66,2.856,2.856,0,0,1,1.622,1.558,6.941,6.941,0,0,1-.219,4.489,7.391,7.391,0,0,1-3.983,4.3,5.507,5.507,0,0,1-2.212.516H456.74Zm6.528,5.641c.173-.337.533-1.428.265-1.873s-.72-.473-1.358-.429c-1.772.125-2.247.166-2.247.166l-.945,4.115a6.6,6.6,0,0,0,2.722-.364,3.441,3.441,0,0,0,1.562-1.615Zm-2.057,5.484-3.064.1-1.061,4.408s2.889.412,4.232-.949a3.326,3.326,0,0,0,1.079-2.357,1.085,1.085,0,0,0-.95-1.2,1.116,1.116,0,0,0-.235,0Z" transform="translate(-456.74 -530.203)" fill="#2d2f33"/>
  </g>
  <path id="パス_4705" data-name="パス 4705" d="M424.673,533.607l-5.167,18.25h12l.928-3.807-7.776.13,1.026-3.821,6.345-.246.912-3.808-6.255.4,1.077-4.029,7.594-.544.855-3.51Z" transform="translate(-301.785 -529.643)" fill="#2d2f33"/>
  <path id="パス_4706" data-name="パス 4706" d="M389.672,535.512l-3.371.308-5.919,11.657.178-11.152-4.72.421-5.749,10.73.021-10.22-3.891.347v-.017l-.187.017.419,15.908h4.213l6.512-11.382.175,11.382h4.211l9.111-18.089Z" transform="translate(-270.172 -531.298)" fill="#191311"/>
  <path id="パス_4694" data-name="パス 4694" d="M134.566,561.069l-3.03-2.629.134-.1a32.87,32.87,0,0,0,4.873-4.63,33.713,33.713,0,0,0,3.832-5.365l.078-.137,3.252,2.581-.075.108a55.052,55.052,0,0,1-3.953,5.1h0a51.988,51.988,0,0,1-5.027,5Z" transform="translate(-131.536 -538.855)" fill="#2d2f33"/>
  <path id="パス_4695" data-name="パス 4695" d="M172.556,555.609l-.069-.162a30.887,30.887,0,0,0-4.953-8.03l-.1-.113,3.585-2.744.083.1a35.42,35.42,0,0,1,5.162,7.94l.048.1Z" transform="translate(-152.756 -536.7)" fill="#2d2f33"/>
  <path id="パス_4696" data-name="パス 4696" d="M206.272,534.62l.388-3.819,13.392-1.109-.388,3.819Z" transform="translate(-175.72 -527.91)" fill="#2d2f33"/>
  <path id="パス_4697" data-name="パス 4697" d="M202.924,559.107,200.547,556l.142-.078a57.657,57.657,0,0,0,7.519-5.144,16.781,16.781,0,0,0,3.566-4.112c-.779.084-1.931.187-3.241.3l-1.656.15c-1.368.112-3.531.315-5.27.476-.811.075-1.516.142-1.975.183l-.164.014.37-3.853,16.371-1.341,1.849,2.343-.088.124a44.608,44.608,0,0,1-5.861,7.171,60.8,60.8,0,0,1-9.08,6.813Z" transform="translate(-171.698 -535.54)" fill="#2d2f33"/>
  <path id="パス_4698" data-name="パス 4698" d="M181.619,537.66a2.141,2.141,0,0,1-1.7-.781,2.528,2.528,0,0,1-.457-2.105,3.48,3.48,0,0,1,3.192-2.815h0a2.18,2.18,0,0,1,1.733.79,2.488,2.488,0,0,1,.454,2.072,3.469,3.469,0,0,1-3.085,2.828v.01h-.139Zm.787-4.037H182.4a1.466,1.466,0,0,0-1.34,1.2.888.888,0,0,0,.538,1.094.976.976,0,0,0,.293.051,1.455,1.455,0,0,0,1.354-1.2,1.021,1.021,0,0,0-.169-.849.839.839,0,0,0-.668-.3Z" transform="translate(-159.831 -529.25)" fill="#2d2f33"/>
  <path id="パス_4699" data-name="パス 4699" d="M268.316,533.373c.393-1.911.842-4.077,1.08-5.162l.041-.187-4.144.433-.017.1c-.231,1.427-.578,3.269-.885,4.895l-.062.311-3.719.367.009-.05c.327-1.771.63-3.246.833-4.045l.049-.193-4.126.43-.017.1c-.119.716-.374,2.32-.658,4.138l-4.583.453-.112.011-.381,3.949,4.457-.449c-.262,1.683-.486,3.137-.584,3.8l-.027.177,3.815-.392.015-.107c.139-1.01.384-2.453.624-3.861l3.584-.361a13.327,13.327,0,0,1-2.3,5.009,27.708,27.708,0,0,1-5.836,5.364l-.154.112,3.1,2.26.08-.062a31.3,31.3,0,0,0,6.035-6.151,18.144,18.144,0,0,0,3.051-6.934l4.782-.481.112-.011.383-3.911Z" transform="translate(-202.531 -526.924)" fill="#2d2f33"/>
  <path id="パス_4700" data-name="パス 4700" d="M308.031,559.7l-2.137-2.227-.088.115a27.03,27.03,0,0,1-4.449,4.589l-.1.083,2.178,2.537.093-.084a30.565,30.565,0,0,0,4.442-4.925Z" transform="translate(-231.875 -544.333)" fill="#2d2f33"/>
  <path id="パス_4701" data-name="パス 4701" d="M340.617,556.458l-.094-.1-3.07,3.057-.095.1.091.1a16.885,16.885,0,0,1,3.1,4.767l.072.167,3.594-3-.05-.1A20.407,20.407,0,0,0,340.617,556.458Z" transform="translate(-253.219 -543.677)" fill="#2d2f33"/>
  <path id="パス_4702" data-name="パス 4702" d="M320.725,535.32c.564-2.8,1.033-5.087,1.16-5.592l.048-.192-4.307.449-.018.1c-.168,1.028-.548,3.24-.96,5.605l-7.282.668L309,540.144l-.017.166,6.969-.648c-.374,2.113-.681,3.839-.77,4.281-.551,2.746-.6,2.826-1.762,2.826a16.79,16.79,0,0,1-1.8-.121l-.191-.024.9,3.988h.108c.153,0,.356.009.587.019.309.013.667.029,1.021.029,2.394,0,3.7-.456,4.2-2.95l.5-2.513c.328-1.65.748-3.768,1.176-5.906l7.4-.689.112-.011.365-3.759.017-.167Z" transform="translate(-236.444 -527.817)" fill="#2d2f33"/>
  <path id="パス_4703" data-name="パス 4703" d="M346.641,531.035a2.143,2.143,0,0,1-1.7-.781,2.38,2.38,0,0,1-.513-1.522,3.164,3.164,0,0,1,.056-.583,3.48,3.48,0,0,1,3.193-2.815h0a2.175,2.175,0,0,1,1.732.79,2.349,2.349,0,0,1,.509,1.5,3.063,3.063,0,0,1-.054.567,3.468,3.468,0,0,1-3.085,2.828v.01h-.139Zm-.6-2.572a.886.886,0,0,0,.577.831.819.819,0,0,0,.285.051h.008a1.454,1.454,0,0,0,1.354-1.2,1.289,1.289,0,0,0,.025-.253.934.934,0,0,0-.194-.6.842.842,0,0,0-.668-.3h-.007a1.465,1.465,0,0,0-1.339,1.2.86.86,0,0,0-.041.264Z" transform="translate(-257.397 -525.333)" fill="#2d2f33"/>
</svg>
