<svg xmlns="http://www.w3.org/2000/svg" width="193.32" height="45.126" viewBox="0 0 193.32 45.126">
  <g id="グループ_6999" data-name="グループ 6999" transform="translate(-109.999 -121.188)">
    <g id="グループ_6917" data-name="グループ 6917" transform="translate(121 121.188)">
      <g id="グループ_6911" data-name="グループ 6911" transform="translate(153.81 2.303)">
        <path id="パス_4704" data-name="パス 4704" d="M462.239,531.061l8.083-.848a8.146,8.146,0,0,1,2.92.36c1.127.467,1.973,1.5,1.941,3.567a9.485,9.485,0,0,1-.952,3.812,8.648,8.648,0,0,1-2.753,3.077,3.3,3.3,0,0,1,1.877,1.8,8.03,8.03,0,0,1-.253,5.193A8.551,8.551,0,0,1,468.494,553a6.371,6.371,0,0,1-2.56.6H456.74Zm7.553,6.526c.2-.39.617-1.652.307-2.167s-.833-.548-1.571-.5c-2.05.144-2.6.193-2.6.193l-1.094,4.76a7.641,7.641,0,0,0,3.149-.421,3.982,3.982,0,0,0,1.808-1.868Zm-2.38,6.344-3.545.119-1.228,5.1s3.343.476,4.9-1.1a3.848,3.848,0,0,0,1.248-2.727,1.256,1.256,0,0,0-1.1-1.394,1.29,1.29,0,0,0-.272,0Z" transform="translate(-456.74 -530.203)" fill="#2d2f33"/>
      </g>
      <path id="パス_4705" data-name="パス 4705" d="M425.484,533.761l-5.978,21.115h13.88l1.073-4.4-9,.15,1.187-4.421,7.341-.284,1.056-4.406-7.237.464,1.246-4.662,8.786-.63.989-4.061Z" transform="translate(-283.307 -529.175)" fill="#2d2f33"/>
      <path id="パス_4706" data-name="パス 4706" d="M393.382,535.526l-3.9.357-6.849,13.487.206-12.9-5.461.488-6.652,12.414.024-11.825-4.5.4v-.02l-.216.02.485,18.4h4.874l7.534-13.169.2,13.169H384l10.541-20.929Z" transform="translate(-255.125 -530.651)" fill="#191311"/>
      <path id="パス_4694" data-name="パス 4694" d="M135.042,563.088l-3.506-3.042.156-.12a38.028,38.028,0,0,0,5.638-5.357,39,39,0,0,0,4.434-6.208l.091-.158,3.763,2.986-.087.125a63.69,63.69,0,0,1-4.574,5.9h0A60.148,60.148,0,0,1,135.14,563Z" transform="translate(-131.536 -537.387)" fill="#2d2f33"/>
      <path id="パス_4695" data-name="パス 4695" d="M173.36,557.343l-.08-.188a35.735,35.735,0,0,0-5.731-9.291l-.121-.13,4.147-3.174.1.112a40.98,40.98,0,0,1,5.973,9.187l.055.117Z" transform="translate(-150.452 -535.467)" fill="#2d2f33"/>
      <path id="パス_4696" data-name="パス 4696" d="M206.272,535.393l.448-4.418,15.494-1.283-.449,4.418Z" transform="translate(-170.925 -527.631)" fill="#2d2f33"/>
      <path id="パス_4697" data-name="パス 4697" d="M203.467,561.7l-2.75-3.6.164-.09a66.706,66.706,0,0,0,8.7-5.951,19.417,19.417,0,0,0,4.126-4.758c-.9.1-2.234.216-3.75.353l-1.916.173c-1.583.13-4.085.364-6.1.551-.938.087-1.754.164-2.285.212l-.189.017.428-4.458,18.941-1.551,2.139,2.711-.1.143a51.61,51.61,0,0,1-6.781,8.3,70.35,70.35,0,0,1-10.505,7.882Z" transform="translate(-167.339 -534.432)" fill="#2d2f33"/>
      <path id="パス_4698" data-name="パス 4698" d="M181.968,538.555a2.477,2.477,0,0,1-1.969-.9,2.925,2.925,0,0,1-.529-2.436,4.026,4.026,0,0,1,3.693-3.256h0a2.522,2.522,0,0,1,2.005.914,2.879,2.879,0,0,1,.525,2.4,4.014,4.014,0,0,1-3.569,3.271v.012h-.16Zm.911-4.67h-.009a1.7,1.7,0,0,0-1.551,1.39,1.027,1.027,0,0,0,.622,1.266,1.129,1.129,0,0,0,.339.059,1.683,1.683,0,0,0,1.567-1.388,1.181,1.181,0,0,0-.2-.982.97.97,0,0,0-.772-.345Z" transform="translate(-156.76 -528.825)" fill="#2d2f33"/>
      <path id="パス_4699" data-name="パス 4699" d="M270.936,534.213c.455-2.211.974-4.717,1.249-5.973l.047-.217-4.794.5-.02.121c-.267,1.651-.669,3.782-1.024,5.663l-.072.36-4.3.425.01-.058c.378-2.049.729-3.755.964-4.68l.056-.223-4.773.5-.019.121c-.137.829-.433,2.684-.761,4.788l-5.3.524-.13.013-.441,4.569,5.157-.519c-.3,1.948-.563,3.63-.675,4.393l-.031.2,4.414-.453.018-.124c.16-1.169.445-2.838.722-4.468l4.147-.417a15.418,15.418,0,0,1-2.656,5.8,32.056,32.056,0,0,1-6.752,6.206l-.178.13,3.588,2.615.093-.071a36.207,36.207,0,0,0,6.982-7.116,20.992,20.992,0,0,0,3.53-8.023l5.533-.557.13-.013.444-4.524Z" transform="translate(-194.826 -526.751)" fill="#2d2f33"/>
      <path id="パス_4700" data-name="パス 4700" d="M309.095,560.047l-2.473-2.577-.1.133a31.273,31.273,0,0,1-5.147,5.309l-.119.1,2.52,2.935.107-.1a35.364,35.364,0,0,0,5.139-5.7Z" transform="translate(-220.984 -542.271)" fill="#2d2f33"/>
      <path id="パス_4701" data-name="パス 4701" d="M341.129,556.473l-.109-.113-3.552,3.536-.11.111.105.114a19.535,19.535,0,0,1,3.592,5.515l.084.193,4.158-3.473-.058-.115A23.61,23.61,0,0,0,341.129,556.473Z" transform="translate(-240.012 -541.686)" fill="#2d2f33"/>
      <path id="パス_4702" data-name="パス 4702" d="M322.568,536.227c.653-3.24,1.195-5.886,1.342-6.47l.055-.222-4.983.519-.02.12c-.194,1.19-.634,3.748-1.111,6.485l-8.425.773L309,541.81l-.02.193,8.063-.75c-.433,2.445-.788,4.442-.891,4.953-.638,3.177-.692,3.27-2.038,3.27a19.427,19.427,0,0,1-2.077-.14l-.221-.027,1.039,4.614h.125c.177,0,.411.011.68.022.357.016.771.034,1.181.034,2.77,0,4.281-.528,4.86-3.413l.58-2.908c.379-1.909.866-4.359,1.36-6.833l8.565-.8.13-.012.422-4.349.02-.193Z" transform="translate(-225.058 -527.548)" fill="#2d2f33"/>
      <path id="パス_4703" data-name="パス 4703" d="M346.988,531.93a2.479,2.479,0,0,1-1.969-.9,2.754,2.754,0,0,1-.594-1.761,3.661,3.661,0,0,1,.065-.674,4.026,4.026,0,0,1,3.694-3.256h0a2.516,2.516,0,0,1,2,.914,2.717,2.717,0,0,1,.589,1.741,3.545,3.545,0,0,1-.063.655,4.013,4.013,0,0,1-3.569,3.272v.012h-.158Zm-.692-2.975a1.025,1.025,0,0,0,.667.961.947.947,0,0,0,.33.059h.009a1.683,1.683,0,0,0,1.566-1.388,1.491,1.491,0,0,0,.029-.293,1.081,1.081,0,0,0-.225-.69.974.974,0,0,0-.773-.346h-.008a1.7,1.7,0,0,0-1.549,1.39,1,1,0,0,0-.047.306Z" transform="translate(-243.737 -525.333)" fill="#2d2f33"/>
    </g>
    <g id="グループ_6969" data-name="グループ 6969" transform="translate(-1.121 -159.725)">
      <path id="パス_4789" data-name="パス 4789" d="M114.713,319.257c-.094.241-.363,1.216-.456,1.547a9.854,9.854,0,0,1-2.081,3.9l-1.056-.483a7.85,7.85,0,0,0,1.677-2.451,9.854,9.854,0,0,0,.87-3.3l1.191.311c.062.021.258.081.258.192C115.116,319.106,114.961,319.166,114.713,319.257Zm4.379,5.074a9.549,9.549,0,0,0-.849-2.783,15.36,15.36,0,0,0-1.574-2.5l.86-.533a13.2,13.2,0,0,1,1.6,2.472,9.588,9.588,0,0,1,1.1,2.974ZM119.7,319a1.091,1.091,0,1,1,0-2.181,1.091,1.091,0,1,1,0,2.181Zm.01-1.578a.49.49,0,0,0-.5.482.5.5,0,1,0,.994-.01A.482.482,0,0,0,119.713,317.418Z" fill="#2d2f33"/>
      <path id="パス_4790" data-name="パス 4790" d="M129.438,321.286a9.015,9.015,0,0,1-1.719,2.493,9.236,9.236,0,0,1-3.189,1.909l-.828-.895a5.765,5.765,0,0,0,2.495-1.025,6.628,6.628,0,0,0,2.454-3.215h-3.282c-.777,0-2.205.04-2.951.12v-1.085a4.147,4.147,0,0,0,.549.081c.5.03,1.46.04,1.874.04h2.474c.332,0,1.046-.02,1.346-.05a1.24,1.24,0,0,0,.652-.221l.808.794A3.539,3.539,0,0,0,129.438,321.286Zm-2.413-2.974h-1.666a13.436,13.436,0,0,0-1.688.091v-1c.58.07,1.429.09,1.688.09h1.666a13.977,13.977,0,0,0,1.709-.09v1A16.055,16.055,0,0,0,127.025,318.312Z" fill="#2d2f33"/>
      <path id="パス_4791" data-name="パス 4791" d="M134.079,318.071c-.011.3-.011.945-.011,1.256v1.457c0,.3.052,1.377.073,1.678h-1.17a13.073,13.073,0,0,0,.083-1.688v-1.638c0-.392-.011-1.216-.031-1.587l1.035.06c.228.01.31.07.31.191C134.368,317.9,134.223,317.991,134.079,318.071Zm4.648-.271a.732.732,0,0,0-.186.151c-.021.482-.052,2.6-.073,3.024a4.642,4.642,0,0,1-1.377,3.356,8.212,8.212,0,0,1-2.112,1.377l-.88-.9a4.3,4.3,0,0,0,2.154-1.045c1.232-1.035,1.232-2.291,1.232-4.722,0-1.146,0-1.206-.021-1.678l1.066.07c.114.01.28.02.28.2A.179.179,0,0,1,138.727,317.8Z" fill="#2d2f33"/>
      <path id="パス_4792" data-name="パス 4792" d="M142.644,325.024c-.021.041-.073.2-.094.231a.118.118,0,0,1-.114.061c-.072,0-.1-.04-.217-.241l-.559-1.045a13.625,13.625,0,0,0,7.289-4.251l.414.975C147.334,323.075,144.072,324.432,142.644,325.024Zm1.439-5.184a8.72,8.72,0,0,0-2.257-1.387l.569-.9a7.606,7.606,0,0,1,2.278,1.4Z" fill="#2d2f33"/>
      <path id="パス_4793" data-name="パス 4793" d="M155.318,325.356a6.407,6.407,0,0,1-2.422-.382,1.412,1.412,0,0,1-.59-.954,4.846,4.846,0,0,1-.042-.975v-2.592c0-.593,0-.925-.062-2.925l1.17.192c.269.07.3.07.3.19,0,.061-.02.091-.238.3-.1,1.145-.124,2.16-.124,2.251v.271a15.083,15.083,0,0,0,4.752-1.5l.611.995c0,.02.052.09.052.15a.129.129,0,0,1-.135.131.539.539,0,0,1-.259-.091c-3.178.935-3.924,1.146-5.021,1.2v1.959c0,.483.217.895,2.04.895a9.456,9.456,0,0,0,3.5-.472v1.105A26.362,26.362,0,0,1,155.318,325.356Zm3.624-6.28A1.086,1.086,0,1,1,160.071,318,1.106,1.106,0,0,1,158.942,319.076Zm0-1.558a.484.484,0,1,0,0,.965.483.483,0,1,0,0-.965Z" fill="#2d2f33"/>
      <path id="パス_4794" data-name="パス 4794" d="M162.693,322.01a6.752,6.752,0,0,0-.911-1.588l.776-.251a7.575,7.575,0,0,1,.911,1.558Zm5.466-1.638a.354.354,0,0,0-.2.121c-.031.05-.332,1.025-.4,1.215a6.772,6.772,0,0,1-3.748,3.98l-.683-.613a5.965,5.965,0,0,0,2.826-2.08,7.208,7.208,0,0,0,1.2-3.256l.808.291c.207.071.321.141.321.222S168.232,320.352,168.159,320.372Zm-3.437,1.206a5.332,5.332,0,0,0-.88-1.608l.777-.261a6.693,6.693,0,0,1,.88,1.628Z" fill="#2d2f33"/>
      <path id="パス_4795" data-name="パス 4795" d="M177.645,319.508a10.317,10.317,0,0,1-4.969,6.3l-.921-.723a7.35,7.35,0,0,0,3.219-2.422,7.782,7.782,0,0,0,1.574-3.306H173.38a10.941,10.941,0,0,1-2.04,2.372l-.849-.583a7.668,7.668,0,0,0,1.823-1.939,7.018,7.018,0,0,0,1-1.95l1.128.482c.073.031.145.071.145.141,0,.1-.124.161-.165.171a.5.5,0,0,0-.3.151c-.124.12-.114.161-.269.412h1.636c1.253,0,1.408-.061,1.688-.2l.766.784C177.78,319.367,177.77,319.377,177.645,319.508Z" fill="#2d2f33"/>
      <path id="パス_4796" data-name="パス 4796" d="M181.054,325.868a6.774,6.774,0,0,0-2.143-2.059l.714-.684a9.875,9.875,0,0,1,2.226,1.92Z" fill="#2d2f33"/>
      <path id="パス_4797" data-name="パス 4797" d="M188.862,319.257c-.093.241-.362,1.216-.455,1.547a9.866,9.866,0,0,1-2.081,3.9l-1.056-.483a7.867,7.867,0,0,0,1.677-2.451,9.854,9.854,0,0,0,.87-3.3l1.19.311c.062.021.259.081.259.192C189.266,319.106,189.111,319.166,188.862,319.257Zm4.38,5.074a9.55,9.55,0,0,0-.849-2.783,15.361,15.361,0,0,0-1.574-2.5l.859-.533a13.148,13.148,0,0,1,1.605,2.472,9.613,9.613,0,0,1,1.1,2.974Zm.611-5.335a1.091,1.091,0,1,1,0-2.181,1.091,1.091,0,1,1,0,2.181Zm.01-1.578a.49.49,0,0,0-.5.482.5.5,0,1,0,.994-.01A.482.482,0,0,0,193.863,317.418Z" fill="#2d2f33"/>
      <path id="パス_4798" data-name="パス 4798" d="M203.484,321.286a9.015,9.015,0,0,1-1.719,2.493,9.24,9.24,0,0,1-3.188,1.909l-.829-.895a5.765,5.765,0,0,0,2.495-1.025,6.628,6.628,0,0,0,2.454-3.215h-3.282c-.776,0-2.2.04-2.951.12v-1.085a4.147,4.147,0,0,0,.549.081c.5.03,1.46.04,1.874.04h2.475c.331,0,1.045-.02,1.345-.05a1.248,1.248,0,0,0,.653-.221l.807.794A3.56,3.56,0,0,0,203.484,321.286Zm-2.412-2.974H199.4a13.446,13.446,0,0,0-1.688.091v-1c.58.07,1.429.09,1.688.09h1.667a13.972,13.972,0,0,0,1.708-.09v1A16.052,16.052,0,0,0,201.072,318.312Z" fill="#2d2f33"/>
      <path id="パス_4799" data-name="パス 4799" d="M213.053,325.105a10.461,10.461,0,0,0-2.651-2.753,10.936,10.936,0,0,1-3.83,2.773l-.777-.894a8.782,8.782,0,0,0,2.692-1.417,9.15,9.15,0,0,0,2.806-3.859H209.45a23.213,23.213,0,0,0-2.5.111v-1.005c.331.03,1.6.08,2.029.08H210.5a6.494,6.494,0,0,0,1.242-.05,1.109,1.109,0,0,0,.507-.231l.766.824c-.2.131-.258.181-.5.352a21.275,21.275,0,0,1-1.533,2.582,12.711,12.711,0,0,1,2.909,2.763Z" fill="#2d2f33"/>
      <path id="パス_4800" data-name="パス 4800" d="M216.628,324.291l-.891-.673a9.5,9.5,0,0,0,2.133-2.361l.849.492A10.51,10.51,0,0,1,216.628,324.291Zm4.71-3.979H220.7v2.16c0,.352,0,1.2.011,1.517.01.342.031.864-.414,1.106a3.418,3.418,0,0,1-1.771.271l-.414-1.135a3.889,3.889,0,0,0,.735.1c.756,0,.86-.2.86-.733v-3.286h-.88c-.849,0-1.7.02-2.547.09v-.995c.88.071,2.153.091,2.547.091h.869a9.685,9.685,0,0,0-.134-2.07l1.3.181c.2.03.29.06.29.191a.22.22,0,0,1-.135.161.719.719,0,0,0-.217.13,9.011,9.011,0,0,0-.093,1.407h.631c.86,0,1.709-.02,2.568-.091v.995C222.8,320.312,221.432,320.312,221.338,320.312Zm2.019,3.858a7.766,7.766,0,0,0-1.936-2.371l.787-.583a9.434,9.434,0,0,1,2.1,2.371Zm.394-5.275a1.085,1.085,0,1,1,1.118-1.085A1.1,1.1,0,0,1,223.751,318.895Zm.01-1.577a.487.487,0,1,0,.5.482A.5.5,0,0,0,223.761,317.318Z" fill="#2d2f33"/>
      <path id="パス_4801" data-name="パス 4801" d="M231.332,321.9h-2.3c-.131,0-1.638,0-2.643.12v-1.1a19.326,19.326,0,0,0,2.643.12h2.3a21.173,21.173,0,0,0,2.643-.12v1.1A23.894,23.894,0,0,0,231.332,321.9Z" fill="#2d2f33"/>
      <path id="パス_4802" data-name="パス 4802" d="M236.951,320.613a6.528,6.528,0,0,0-1.1-2.029l.963-.352a6.375,6.375,0,0,1,1.118,2.05Zm6.7-1.829a11.648,11.648,0,0,1-1.8,3.769,9.361,9.361,0,0,1-3.644,2.692l-.911-.823a5.455,5.455,0,0,0,2.143-1.015,6.921,6.921,0,0,0,2.588-3.206,5.636,5.636,0,0,0,.57-2.361l1.17.452c.207.081.3.141.3.221C244.064,318.614,244.022,318.634,243.65,318.784Zm-4.152,1.347a5.259,5.259,0,0,0-1.056-2.1l1-.311a5.472,5.472,0,0,1,1.067,2.1Z" fill="#2d2f33"/>
      <path id="パス_4803" data-name="パス 4803" d="M251.4,325.346l-.787-.834a4.376,4.376,0,0,0,2.3-1.156,3.52,3.52,0,0,0,.787-2.25,2.606,2.606,0,0,0-1.605-2.352,2.793,2.793,0,0,0-1.418-.291,16.538,16.538,0,0,1-1.294,4.873c-.2.412-.714,1.5-1.305,1.5a1.378,1.378,0,0,1-.88-.341,3.439,3.439,0,0,1-1.263-2.7,3.9,3.9,0,0,1,1.129-2.763,4.463,4.463,0,0,1,3.4-1.417,4.231,4.231,0,0,1,3.251,1.256,3.512,3.512,0,0,1,.931,2.4A4.15,4.15,0,0,1,251.4,325.346Zm-1.936-6.772a3.334,3.334,0,0,0-2.609,3.215c0,.894.569,1.839,1,1.839.362,0,.632-.6.756-.874a13.946,13.946,0,0,0,1.118-4.211Z" fill="#2d2f33"/>
      <path id="パス_4804" data-name="パス 4804" d="M257.777,322.934a8.3,8.3,0,0,1-.486,2.3l-.953-.3a6.105,6.105,0,0,0,.539-2.552l.9.13c.093.011.207.061.207.171S257.9,322.854,257.777,322.934Zm4.908-5.214a5.425,5.425,0,0,1-1.326,1.687l-.755-.5c-.011.02-.031.04-.094.061s-.331.04-.383.05c-.134.17-.755.934-.88,1.075-.2.231-.776.834-.849.894.663-.05.912-.07,1.222-.11a5.864,5.864,0,0,0-.3-.513l.818-.342a5.624,5.624,0,0,1,.776,1.759l-.869.271a3.8,3.8,0,0,0-.145-.492c-.28.05-.425.06-.87.13V323.9a19.333,19.333,0,0,0,.1,2.06h-1.088c.094-.9.1-2.03.1-2.07v-2.1c-.331.04-.88.1-1.253.131-.031.08-.093.241-.248.241-.135,0-.156-.081-.176-.292l-.073-.814c.238,0,.29,0,.8-.01.58-.572.725-.723.932-.964a6.406,6.406,0,0,0-1.636-1.186l.528-.744a6.022,6.022,0,0,1,.528.312,7.859,7.859,0,0,0,1-1.608l.932.533c.051.03.1.06.1.13,0,.161-.114.171-.393.181a9.67,9.67,0,0,1-1.005,1.226,6.9,6.9,0,0,1,.539.442,8.822,8.822,0,0,0,.89-1.266l.911.593c.093.06.093.08.1.121a5.635,5.635,0,0,0,1.335-1.879l.9.472c.135.07.166.08.166.151C263.037,317.689,262.954,317.7,262.685,317.72Zm-2.972,6.732a5.034,5.034,0,0,0-.517-1.98l.869-.241a4.947,4.947,0,0,1,.559,1.949Zm2.019-1.055a5.244,5.244,0,0,1-.694,2.2l-.89-.362a3.312,3.312,0,0,0,.735-2.341l.87.151c.083.01.207.07.207.161C261.96,323.316,261.8,323.377,261.732,323.4Zm3.075-1.749a2.692,2.692,0,0,0-.155-.472c-.59.091-1.377.211-3.158.392-.062.11-.135.191-.228.191s-.134-.081-.145-.191l-.1-.854c.176,0,.238,0,.756-.02a9.965,9.965,0,0,0,.89-2.1l.911.331c.072.03.186.061.186.191s-.041.141-.351.231a8.822,8.822,0,0,1-.632,1.306c.528-.03,1.18-.06,1.584-.11a2.783,2.783,0,0,0-.549-.744l.839-.371a4.094,4.094,0,0,1,1.055,1.9Zm.5,2.753.021.021c-.352,1.276-.725,1.316-1.771,1.316-1.491,0-1.532-.161-1.532-1.789,0-1.165,0-1.3-.031-1.828l1.025.11c.217.02.269.04.269.151,0,.09-.021.1-.269.241a12.958,12.958,0,0,0-.052,1.587c0,.573.062.664.621.664.5,0,.653-.061.756-.422.021-.071.083-.4.093-.473l.839.422c-.062-.2-.207-.653-.27-.793-.248-.613-.279-.684-.341-.834l.766-.352a10.093,10.093,0,0,1,.621,1.608Zm-1.46-.984a4.844,4.844,0,0,0-.838-1.548l.714-.331a4.9,4.9,0,0,1,.88,1.366Zm1.419-4.22a4.122,4.122,0,0,1-1.668-1.749l.767-.492a4.219,4.219,0,0,0,1.646,1.577Z" fill="#2d2f33"/>
      <path id="パス_4805" data-name="パス 4805" d="M276.582,321.729a7.238,7.238,0,0,1-1.6-.824v.462c-.466-.02-1.325-.04-1.8-.04H271.3c-.414,0-1.129.01-1.543.03V320.8a8.338,8.338,0,0,1-1.584.9l-.838-.813a7.94,7.94,0,0,0,2.733-1.6,8.183,8.183,0,0,0,1.8-2.422l1.232.412c.124.041.217.071.217.171s-.083.131-.217.2a6.368,6.368,0,0,0,1.657,1.889,8.233,8.233,0,0,0,2.494,1.347Zm-2.351,4.31c.022-.271.022-.311.032-.482H270.5c0,.03.022.442.032.482h-1.015c.021-.171.052-1.015.052-1.2v-1.6a9.1,9.1,0,0,0-.063-1.075c.363.02,1.005.05,1.688.05h2.122c.373,0,.777,0,1.927-.06-.022.432-.032.884-.032,1.155v1.377c0,.372.021.964.032,1.346Zm-1.935-7.817a11.439,11.439,0,0,1-2.071,2.21c.88.041.983.051,1.035.051H273.1c.259,0,.9-.02,1.253-.041A9.268,9.268,0,0,1,272.3,318.222Zm2,4.843h-3.81V324.7h3.81Z" fill="#2d2f33"/>
      <path id="パス_4806" data-name="パス 4806" d="M285.551,320.553a5.574,5.574,0,0,1-1.026,3.657,5.933,5.933,0,0,1-2.029,1.568l-.89-.673c2.712-1.216,2.9-2.482,2.941-4.562H282.01v.613a9.962,9.962,0,0,0,.113,1.869h-1.086c.041-.332.1-1.668.1-1.97v-.512c-1.118.03-1.439.03-2.215.08v-.974c.611.04,1.594.08,2.215.08v-.191a17.661,17.661,0,0,0-.093-1.969l1.015.09c.2.02.331.04.331.181s-.155.231-.3.311a11.443,11.443,0,0,0-.083,1.578h2.547a13.873,13.873,0,0,0-.187-2.371l1.077.09c.321.03.362.03.362.161,0,.06-.031.09-.29.321.011.352.011.5.032,1.789,1.128-.02,1.553-.05,1.9-.07v.974C287.041,320.6,286.659,320.573,285.551,320.553Z" fill="#2d2f33"/>
      <path id="パス_4807" data-name="パス 4807" d="M296.1,318.242a24.258,24.258,0,0,1-2.071,1.919v2.693c0,.713.032.8.053,1.648a9.618,9.618,0,0,0,.072,1.135h-1.108c.021-.211.042-.432.042-.472,0-.382.02-2.05.02-2.391v-1.93a16.653,16.653,0,0,1-2.836,1.528l-.994-.774a10.572,10.572,0,0,0,3.54-1.738,11.677,11.677,0,0,0,2.744-2.693l.942.683a.257.257,0,0,1,.1.181C296.611,318.222,296.424,318.222,296.1,318.242Z" fill="#2d2f33"/>
      <path id="パス_4808" data-name="パス 4808" d="M303.757,323.105a9.043,9.043,0,0,0-3.065-2.08v1.668c0,.593.042,2.352.114,2.864h-1.253a12.621,12.621,0,0,0,.083-1.477c.011-.231.042-1.246.042-1.457V320c0-.391-.031-1.467-.063-1.838a3.987,3.987,0,0,0-.1-.664l1.377.091c.062,0,.2.02.2.15,0,.1-.114.171-.342.3-.042.623-.052,1.246-.052,1.859v1.115l.487-.894a10.681,10.681,0,0,1,3.261,2.19Z" fill="#2d2f33"/>
    </g>
  </g>
</svg>
