<svg xmlns="http://www.w3.org/2000/svg" width="434.244" height="68.736" viewBox="0 0 434.244 68.736">
  <g id="グループ_6917" data-name="グループ 6917" transform="translate(0.001)">
    <g id="グループ_6911" data-name="グループ 6911" transform="translate(387.748 5.806)">
      <path id="パス_4704" data-name="パス 4704" d="M470.6,532.367l20.378-2.138s4.519-.269,7.36.907,4.974,3.793,4.893,8.992a23.911,23.911,0,0,1-2.4,9.61,21.8,21.8,0,0,1-6.94,7.757,8.331,8.331,0,0,1,4.732,4.545c1.325,3.289.988,8.661-.638,13.092a21.557,21.557,0,0,1-11.618,12.541,16.06,16.06,0,0,1-6.453,1.5H456.74Zm19.042,16.453c.5-.982,1.555-4.165.774-5.464s-2.1-1.381-3.96-1.25c-5.168.364-6.553.485-6.553.485l-2.757,12a19.262,19.262,0,0,0,7.939-1.062,10.038,10.038,0,0,0,4.557-4.71Zm-6,15.994-8.938.3-3.1,12.858s8.427,1.2,12.343-2.767a9.7,9.7,0,0,0,3.146-6.874,3.165,3.165,0,0,0-2.771-3.514,3.26,3.26,0,0,0-.687-.006Z" transform="translate(-456.74 -530.203)" fill="#fff"/>
    </g>
    <path id="パス_4705" data-name="パス 4705" d="M434.577,535.494l-15.071,53.229H454.5l2.705-11.1L434.523,578l2.993-11.144,18.507-.717,2.661-11.107L440.441,556.2l3.14-11.752,22.149-1.588,2.493-10.238Z" transform="translate(-76.153 -523.932)" fill="#fff"/>
    <path id="パス_4706" data-name="パス 4706" d="M434.979,535.683l-9.833.9-17.265,34,.519-32.525-13.766,1.229-16.769,31.3.061-29.809-11.347,1.012v-.05l-.545.05,1.222,46.4h12.287l18.993-33.2.511,33.2h12.281l26.573-52.76Z" transform="translate(-86.437 -523.393)" fill="#fff"/>
    <path id="パス_4694" data-name="パス 4694" d="M140.374,585.726l-8.837-7.669.392-.3a95.874,95.874,0,0,0,14.212-13.5A98.325,98.325,0,0,0,157.318,548.6l.229-.4,9.486,7.528-.218.315a160.505,160.505,0,0,1-11.531,14.878h0A151.617,151.617,0,0,1,140.623,585.5Z" transform="translate(-131.536 -520.935)" fill="#fff"/>
    <path id="パス_4695" data-name="パス 4695" d="M182.383,576.786l-.2-.474c-3.055-7.2-8.71-17.238-14.447-23.421l-.305-.328,10.455-8,.242.283A103.292,103.292,0,0,1,193.182,568l.139.3Z" transform="translate(-124.633 -521.636)" fill="#fff"/>
    <path id="パス_4696" data-name="パス 4696" d="M206.272,544.064l1.13-11.139,39.061-3.234-1.133,11.139Z" transform="translate(-117.163 -524.495)" fill="#fff"/>
    <path id="パス_4697" data-name="パス 4697" d="M209.549,590.75l-6.933-9.072.414-.226a168.2,168.2,0,0,0,21.93-15,48.949,48.949,0,0,0,10.4-11.993c-2.273.245-5.631.545-9.453.889l-4.83.437c-3.991.328-10.3.918-15.371,1.389-2.366.218-4.421.414-5.761.534l-.477.042,1.078-11.238,47.749-3.911,5.392,6.833-.256.361c-5.5,7.766-10.255,14.472-17.1,20.914a177.338,177.338,0,0,1-26.484,19.87Z" transform="translate(-118.471 -522.013)" fill="#fff"/>
    <path id="パス_4698" data-name="パス 4698" d="M185.88,548.587a6.244,6.244,0,0,1-4.964-2.277,7.373,7.373,0,0,1-1.333-6.14c.86-4.522,5.036-8.2,9.311-8.209h.007a6.357,6.357,0,0,1,5.056,2.3,7.257,7.257,0,0,1,1.325,6.043,10.118,10.118,0,0,1-9,8.247v.03h-.4Zm2.3-11.774h-.021a4.276,4.276,0,0,0-3.91,3.5,2.589,2.589,0,0,0,1.568,3.191,2.844,2.844,0,0,0,.854.149,4.243,4.243,0,0,0,3.95-3.5,2.977,2.977,0,0,0-.494-2.476,2.445,2.445,0,0,0-1.947-.869Z" transform="translate(-122.332 -524.059)" fill="#fff"/>
    <path id="パス_4699" data-name="パス 4699" d="M300.312,543.627c1.146-5.573,2.456-11.892,3.149-15.056l.118-.546-12.087,1.261-.05.3c-.672,4.163-1.686,9.535-2.581,14.276l-.182.908-10.848,1.072.025-.146c.953-5.165,1.839-9.467,2.431-11.8l.142-.562L268.4,534.595l-.049.3c-.346,2.089-1.091,6.765-1.919,12.069l-13.367,1.322-.327.032-1.112,11.518,13-1.309c-.763,4.91-1.419,9.151-1.7,11.074l-.077.515,11.128-1.142.044-.314c.4-2.946,1.121-7.155,1.819-11.262l10.454-1.052a38.871,38.871,0,0,1-6.7,14.609c-3.433,4.634-9.158,9.9-17.021,15.646l-.448.327,9.045,6.592.234-.18a91.279,91.279,0,0,0,17.6-17.94,52.921,52.921,0,0,0,8.9-20.225l13.948-1.4.328-.033,1.118-11.406Z" transform="translate(-108.441 -524.816)" fill="#fff"/>
    <path id="パス_4700" data-name="パス 4700" d="M321.019,563.967l-6.234-6.5-.256.336a78.834,78.834,0,0,1-12.975,13.384l-.3.244,6.353,7.4.271-.245a89.154,89.154,0,0,0,12.955-14.365Z" transform="translate(-98.895 -519.153)" fill="#fff"/>
    <path id="パス_4701" data-name="パス 4701" d="M346.864,556.645l-.275-.285-8.954,8.915-.276.279.266.286a49.248,49.248,0,0,1,9.056,13.9l.211.487,10.483-8.755-.145-.291A59.506,59.506,0,0,0,346.864,556.645Z" transform="translate(-91.952 -519.366)" fill="#fff"/>
    <path id="パス_4702" data-name="パス 4702" d="M343.23,546.406c1.645-8.169,3.012-14.838,3.383-16.311l.139-.56-12.561,1.309-.051.3c-.49,3-1.6,9.449-2.8,16.349l-21.24,1.948-1.066,11.034-.05.485,20.327-1.891c-1.091,6.163-1.988,11.2-2.245,12.486-1.608,8.01-1.745,8.242-5.139,8.242a49.014,49.014,0,0,1-5.237-.352l-.558-.069,2.62,11.631h.316c.446,0,1.037.027,1.713.056.9.039,1.945.085,2.977.085,6.982,0,10.792-1.331,12.251-8.6l1.462-7.33c.956-4.814,2.182-10.99,3.429-17.225l21.592-2.01.328-.031,1.065-10.965.05-.485Z" transform="translate(-97.409 -524.525)" fill="#fff"/>
    <path id="パス_4703" data-name="パス 4703" d="M350.886,541.962a6.25,6.25,0,0,1-4.962-2.277,6.943,6.943,0,0,1-1.5-4.44,9.236,9.236,0,0,1,.164-1.7c.857-4.522,5.038-8.2,9.312-8.209h.01a6.344,6.344,0,0,1,5.052,2.3,6.85,6.85,0,0,1,1.484,4.389,8.921,8.921,0,0,1-.158,1.652,10.116,10.116,0,0,1-9,8.247v.03h-.4Zm-1.745-7.5a2.583,2.583,0,0,0,1.682,2.422,2.386,2.386,0,0,0,.832.149h.023a4.242,4.242,0,0,0,3.949-3.5,3.745,3.745,0,0,0,.074-.738,2.725,2.725,0,0,0-.566-1.74,2.454,2.454,0,0,0-1.948-.872h-.021a4.272,4.272,0,0,0-3.906,3.5,2.51,2.51,0,0,0-.119.771Z" transform="translate(-90.592 -525.333)" fill="#fff"/>
  </g>
</svg>
