<svg xmlns="http://www.w3.org/2000/svg" width="226.943" height="74.597" viewBox="0 0 226.943 74.597">
  <g id="グループ_6348" data-name="グループ 6348" transform="translate(-1121 -9713)">
    <g id="グループ_6337" data-name="グループ 6337" transform="translate(176 -47)">
      <rect id="長方形_937" data-name="長方形 937" width="226.943" height="74.597" transform="translate(945 9760)" fill="#fff"/>
      <g id="グループ_6336" data-name="グループ 6336" transform="translate(956.82 9771.819)">
        <g id="グループ_6324" data-name="グループ 6324" transform="translate(0 0)">
          <g id="グループ_6307" data-name="グループ 6307" transform="translate(0 0)">
            <path id="パス_4436" data-name="パス 4436" d="M139.27,228.207a.726.726,0,0,0-.32-.011.145.145,0,0,0-.1.125.213.213,0,0,1-.109.053c-.068.009-.11.134-.127.177l-.074.124-.143.177s-.039.04-.031.077a.31.31,0,0,1-.04.16c-.018.025-.214.321-.247.39s-.192.494-.212.54-.069.266-.1.372-.436,1.7-.436,1.826-.047.2-.062.606-.051.578-.061.7-.166,2.942-.15,3.116,0,.276.013.383.012.278.012.453.033,3.07.025,3.179-.183.244.039.372c0,0,.041.014.041.1s-.072.152-.028.186a.075.075,0,0,1,.009.11c-.032.043-.042.093.019.128s.02.116,0,.164-.028.109.009.14a.576.576,0,0,1,0,.393c-.05.111-.1.333-.037.4s.009.1-.023.123-.154.089-.03.3a.659.659,0,0,1,.008.422.05.05,0,0,0-.008.087c.062.053-.025.155-.025.207s.025.05,0,.087-.179.12,0,.286c0,0-.021.177-.021.213s-.2.179-.016.185a.347.347,0,0,1-.033.2c-.045.079-.1.11-.037.137a.093.093,0,0,1,.021.137c-.063.091-.08.166-.03.2s-.014.1-.014.1a.093.093,0,0,0,.044.156.943.943,0,0,1,0,.23c-.021.127-.122,1.948-.13,2.078s-.146,1.894-.14,2.077-.006.2-.006.2.058.085-.011.135l-.019.164-.079,1.3s.079.12.039.186-.106.156-.014.166l.014.433-.014.069s-.145.1.025.137l-.011.068s-.176.108.018.169c0,0,0,.148-.056.167s.05,2.794.05,2.794a25.414,25.414,0,0,0,.5,3.892s0,.119.067.129c0,0,.03.157.042.234s.283,1.258.422,1.66l.006.161s-.037.1.087.261a1.229,1.229,0,0,1,.073.355.888.888,0,0,0,.108.479.535.535,0,0,1,.138.288c.017.126-.052.153.077.186a4.6,4.6,0,0,1,.042.461.734.734,0,0,0,.137.488c.115.125.039.334.182.53a1.769,1.769,0,0,1,.242.476c.079.159.351.788.44.9a.317.317,0,0,1,.089.176.326.326,0,0,0,.05.138c.04.048.246.315.3.372s.019.135.109.2-.012.178.107.2c0,0,0,.082.062.091a.2.2,0,0,1,.086.038s.087.147.107.176-.039.178.11.188a3.171,3.171,0,0,0,.147.3c.03.04.1.132.127.159s.02.159.069.159.052.085.052.085a5.283,5.283,0,0,0,.608.905c.184.148.077.086.077.086s.014.158.138.185c0,0,.011.052.021.083a2.742,2.742,0,0,0,.2.235s.081,0,.081.126c0,0,.414.52.538.684a17.4,17.4,0,0,0,1.816,1.953s.085.07.085.128.157.118.157.118.088-.1.109.038a.222.222,0,0,0,.1.178l.083.038a3.673,3.673,0,0,0,.376.275c.058.018.14.057.148.116s.059.064.128.089a.374.374,0,0,1,.129.135.494.494,0,0,0,.186.111,1.733,1.733,0,0,1,.373.243c.049.039.078.027.091.072s.009.1.039.1a1.974,1.974,0,0,1,.292.108,2.045,2.045,0,0,1,.384.254c.048.071.167.061.216.09a.345.345,0,0,1,.119.1,2.419,2.419,0,0,0,.836.409,1.543,1.543,0,0,1,.365.183.328.328,0,0,0,.2.1s.053.039.1.082a.738.738,0,0,0,.2.066,1.166,1.166,0,0,1,.383.148c.09.077.138.157.243.136s.184-.037.222.021.23.056.254.056.04.068.1.088a.149.149,0,0,0,.114-.009,1.287,1.287,0,0,0,.3.1c.168.031.239.031.255.083s.119.021.178.038.628.2.836.233.8.187.932.225a4.267,4.267,0,0,0,.442.049c.056.01.18.1.275.131s.1-.078.147-.062a1.1,1.1,0,0,1,.14.062c.068.026,1.162.085,1.535.106a2.253,2.253,0,0,1,.628.078.248.248,0,0,0,.158.037c.108,0,.494.023.494.023s.033.145.225.019h.067c.071,0,.375.009.417.017a.231.231,0,0,0,.216.01h.159c.043,0,.963-.046,1.12-.054s1.663-.14,1.9-.16a8.462,8.462,0,0,0,1.053-.148A28.224,28.224,0,0,0,165.4,275.9s.1-.077.156-.041.255-.124.609-.271a.3.3,0,0,1,.182-.02c.1.02.21-.155.23-.269s.16,0,.22-.025a2.855,2.855,0,0,0,.336-.3s.17-.076.275-.134a6.874,6.874,0,0,0,.727-.607s.256-.1.256-.217l2.283-1.942s.017-.156.138-.139.413-.393.473-.393.547-.332.589-.586a6.021,6.021,0,0,1,.436-.486,39.713,39.713,0,0,0,2.891-3.831,1.947,1.947,0,0,0,.252-.457,7.923,7.923,0,0,1,.534-.739.405.405,0,0,1,.12-.2c.058-.038,1.021-2.3,1.2-2.767s.964-2.667,1.024-3.039.1-.279.119-.295.412-1.061.477-1.256.469-2.154.469-2.154a1.365,1.365,0,0,0,.1-.141c.056-.095,0-.371.034-.452s.1-.235.1-.235a.931.931,0,0,1,0-.253c.02-.079.375-2.1.415-2.2s.079-.392.114-.571.4-3.057.433-3.162a.864.864,0,0,0,.08-.252c.021-.115.141-2.549.195-2.942s.223-1.626.26-1.827a.793.793,0,0,1,.1-.271c.006-.02,0-.051,0-.1,0-.022.043-.035.043-.058s-.037-.062-.034-.087a1.407,1.407,0,0,1,.052-.34c.033-.1.136-.417.136-.417s.017-.207.039-.351.216-.961.277-1.2.1-.488.138-.568a.282.282,0,0,0,.085-.139c.023-.085-.062-.131-.028-.193a.906.906,0,0,0,.081-.177c.042-.076-.007-.094.021-.2a4.642,4.642,0,0,0,.157-.571,2.12,2.12,0,0,1,.038-.467,1.083,1.083,0,0,1,.2-.471c.1-.079.02-.138.059-.256s.06-.605.1-.683a.881.881,0,0,0,.141-.4,4.991,4.991,0,0,1,.018-.765c.039-.119.138-.194.138-.252a.937.937,0,0,1,0-.355,13.315,13.315,0,0,0,.178-1.394,9.887,9.887,0,0,0,.019-1.512c-.042-.33-.08-.547-.08-.547a1.259,1.259,0,0,1-.062-.158c-.036-.162-.075-.371-.1-.431a7.18,7.18,0,0,0-.31-.882c-.079-.118-.313-.585-.354-.685s-.238-.257-.26-.314c0,0,0-.1-.052-.137a.538.538,0,0,1-.092-.052c-.028-.021-.182-.147-.272-.2a.588.588,0,0,0-.285-.078s-.294-.1-.511.295a2.407,2.407,0,0,0,.058.994,4.081,4.081,0,0,1,.12.8.11.11,0,0,1-.008.055.159.159,0,0,0,.023.23s.062.041-.015.108a.123.123,0,0,0-.047.148c0,.045-.009.106-.121.157s-.108.039-.24-.016-.3-.292-.4-.439-.042-.188-.062-.293a.546.546,0,0,0-.153-.257.27.27,0,0,1-.117-.145c-.033-.084-.342-.692-.426-.845a.918.918,0,0,1-.134-.3c-.013-.065-.056-.076-.072-.1s-.4-.619-.461-.678a1.284,1.284,0,0,1-.217-.323.511.511,0,0,0-.125-.17c-.025-.038-.662-.656-.719-.7s-.051-.06-.073-.076-.4-.278-.466-.315a1.1,1.1,0,0,0-.38-.07.64.64,0,0,0-.479.184s-.072.081-.047.374a.209.209,0,0,0-.009.138c.034.064.107.3.139.36a2.139,2.139,0,0,1,.135.234,1.724,1.724,0,0,1,.064.351c0,.1.026.1.039.118a1.075,1.075,0,0,1,.211.287c.085.163.185.544.233.653s.2.365.248.483a4.04,4.04,0,0,1,.2.647c.005.131.061.481.052.568s.01.192-.2.234a.361.361,0,0,1-.334-.067,8.034,8.034,0,0,1-.6-.555c-.058-.084-.56-.565-.617-.622s-.3-.366-.405-.465-.525-.494-.614-.588-.365-.415-.394-.465,0-.048-.191-.164-.117-.155-.178-.218a2.688,2.688,0,0,0-.464-.419c-.177-.1-.382-.264-.426-.287s-.036-.1-.062-.111-.079-.02-.1-.047a.836.836,0,0,1-.08-.1.319.319,0,0,0-.129-.067c-.028-.012-.106,0-.145-.019a1.988,1.988,0,0,1-.209-.18.5.5,0,0,0-.12-.05c-.045-.011-.143-.111-.241-.119a.723.723,0,0,0-.453.026c-.2.088-.206.112-.206.112a.925.925,0,0,1-.1.03c-.017.006-.009.1-.033.132s-.1.082-.043.144-.014.1-.043.122-.11.114-.1.178a.851.851,0,0,0,.162.242c.062.091,0,.088.047.149s.5.689.536.766a3.913,3.913,0,0,0,.313.437c.095.107.285.339.31.356s.047.088.082.13.094.036.129.094.03.127.058.174.052.027.11.047a.345.345,0,0,1,.173.137c.049.063.332.437.4.535s.152.276.182.325.136.026.136.156a.967.967,0,0,0,.116.141c.038.029.085.129.119.161s.181.255.249.317a.551.551,0,0,1,.117.226c.03.1.115.3.144.37a1.424,1.424,0,0,1,.025.44.283.283,0,0,1-.215.206c-.1.009-.251-.1-.294-.1a.3.3,0,0,1-.13.007c-.039-.015-.039-.124-.078-.15s-.143-.02-.2-.035a.925.925,0,0,1-.189-.172,4.483,4.483,0,0,1-.352-.3c-.032-.045-.035-.086-.085-.131s-.049-.111-.091-.138-.11-.034-.15-.063a.538.538,0,0,1-.1-.139,1.727,1.727,0,0,0-.244-.272c-.035-.024-.194-.2-.228-.226s-.391-.343-.433-.385-.019-.062-.059-.093-.077-.022-.107-.041a.977.977,0,0,1-.171-.161c-.021-.033-.033-.088-.077-.112a.2.2,0,0,0-.121-.027c-.063,0-.134-.079-.16-.1a2.56,2.56,0,0,0-.2-.172c-.023-.021-.023-.069-.053-.111s-.136-.062-.136-.062-.4-.21-.445-.239c0,0-.087-.074-.113-.1a.438.438,0,0,0-.109-.033,2.927,2.927,0,0,1-.281-.2.712.712,0,0,0-.2-.052,2.426,2.426,0,0,1-.259-.049.358.358,0,0,0-.317.058.662.662,0,0,0-.209.21c-.023.051-.064.159-.079.177s-.085.123-.044.175a.315.315,0,0,1,.041.168c0,.051.042.317.054.394s.049.107.051.13a.311.311,0,0,0,.058.155c.037.047.305.422.376.5s.235.339.322.427.141.137.139.16a.161.161,0,0,0,.073.13c.034.013.063.062.085.093s.052.019.09.054.089.17.125.211a.484.484,0,0,1,.105.144c.016.039.194.189.236.238s.041.152.061.19a.188.188,0,0,0,.123.11.33.33,0,0,1,.127.089c.038.037.038.119.064.154a2.116,2.116,0,0,0,.266.323c.1.088.317.409.389.49s.021.12.065.146a.249.249,0,0,1,.092.074,1.508,1.508,0,0,1,.228.4.916.916,0,0,1,.024.425,1.19,1.19,0,0,1-.2.232.228.228,0,0,1-.16.059.966.966,0,0,1-.245,0,.47.47,0,0,1-.1-.05c-.043-.02-.271-.035-.327-.056s-.571-.237-.623-.267-.183-.034-.273-.062-.48-.257-.556-.278a3.958,3.958,0,0,0-.574-.179,1.241,1.241,0,0,0-.421,0,.763.763,0,0,0-.234.131,1.792,1.792,0,0,0-.122.163.158.158,0,0,1-.09.038c-.03,0-.076.089-.077.159s-.04.163-.045.216a.765.765,0,0,0,.052.3.6.6,0,0,1,.077.245.449.449,0,0,0,.046.2.976.976,0,0,0,.105.133c.04.038.251.38.314.449a.418.418,0,0,1,.072.14,2.992,2.992,0,0,0,.288.3,5.95,5.95,0,0,1,.549.554c.077.1.162.189.2.239s.524.469.666.6.674.58.79.686.432.5.536.617.366.573.46.722.108.224.143.277.074.075.1.123.292.593.332.7a3.358,3.358,0,0,1,.12.343c.01.041.084.14.1.2s.279.656.307.724a.793.793,0,0,1,.06.2.4.4,0,0,0,.064.133,4.145,4.145,0,0,1,.224.57c.045.164.045.289.066.339a1.492,1.492,0,0,1,.078.266c.01.078.208.746.218.913s.1.8.117.881,0,.235.018.286a1.794,1.794,0,0,1,.052.259c.006.1.05.707.055.806s.042.912.038.974a.159.159,0,0,1-.034.095c0,.019-.071.056.008.126a.91.91,0,0,1,.022.137c0,.039-.022.725-.025.815s-.035.559-.044.686-.05.459-.059.526-.03.063-.038.189-.018.309-.025.372-.057.255-.066.319a2.4,2.4,0,0,1-.025.285c-.014.052-.095.129-.1.162a.769.769,0,0,1-.057.131.128.128,0,0,0,.026.161.069.069,0,0,1,0,.117.14.14,0,0,0-.036.182c.05.059.03.1.018.115s-.089.058-.028.126a.153.153,0,0,1,.012.193c-.012.017-.073,0-.089.038s.043.078.072.133.005.089-.023.122-.134.071-.1.093a.077.077,0,0,1,.039.078.131.131,0,0,1-.039.109c-.017.015-.052.027-.052.073a.674.674,0,0,1-.01.127c0,.031.027.073.018.1s-.008.052-.037.061-.054.007-.073.051a1.639,1.639,0,0,0-.034.222c-.017.051-.017.068-.037.08a.055.055,0,0,0-.044.041c-.01.043,0,.09-.018.111a.229.229,0,0,0-.017.159.151.151,0,0,0,.058.13.1.1,0,0,1,.007.124c-.022.015-.083.045-.094.072s.008.186-.009.21-.084.081-.084.1,0,.034.025.049,0,.1-.01.113a.363.363,0,0,1-.049.07c-.018.014-.087.041-.034.077s.036.046.028.073-.057.25-.077.3-.177.6-.239.744-.313.79-.358.9-.213.511-.242.575a2.279,2.279,0,0,1-.14.222c-.017.033-.3.593-.338.66s-.249.524-.278.561a.96.96,0,0,0-.06.217.728.728,0,0,1-.09.206c-.033.061-.231.3-.247.357s-.083.145-.092.185,0,.09-.024.124-.028.043-.05.087a.664.664,0,0,0-.076.2,2.251,2.251,0,0,1-.212.317.527.527,0,0,0-.045.135c-.016.029-.073.074-.089.106s-.019.071-.039.111-.107.156-.13.2-.03.1-.061.158-.451.7-.512.8-.219.315-.261.372c0,0-.264.329-.305.406a2.331,2.331,0,0,0-.267.394c-.01.09-.056.117-.085.165s-.532.468-.594.539a1.809,1.809,0,0,1-.175.178.781.781,0,0,0-.14.1c-.029.033-1.489,1.231-1.582,1.3s-.8.621-.857.66a2.3,2.3,0,0,1-.2.167c-.081.05-.332.2-.43.257s-.681.342-.8.394-.957.318-1.083.359a1.944,1.944,0,0,1-.388.106c-.073.006-.122.015-.191.015a1.3,1.3,0,0,0-.279.1c-.089.028-.91.2-1.087.222s-.789.108-.9.116-2.862.061-3,.049a5.939,5.939,0,0,1-.614-.035c-.06-.014-.113-.051-.148-.058s-.977-.029-1.037-.038-.741-.1-.851-.123-.368-.075-.451-.088a5.036,5.036,0,0,0-.493-.1,4.523,4.523,0,0,1-.492-.065c-.055-.025-.06-.058-.115-.07s-.2-.051-.28-.07-.508-.209-.6-.254-.392-.229-.471-.25a1.439,1.439,0,0,1-.248-.108,5.351,5.351,0,0,0-.512-.241,1.215,1.215,0,0,1-.207-.11,2.511,2.511,0,0,0-.339-.155,1.538,1.538,0,0,1-.266-.159c-.014-.016-.038-.084-.069-.09l-.14-.047a.354.354,0,0,0-.139-.121.48.48,0,0,1-.167-.116c-.033-.026-.774-.587-.925-.711s-.876-.78-.976-.912-.594-.761-.657-.855a.565.565,0,0,1-.083-.2.263.263,0,0,0-.083-.139c-.049-.047-.361-.6-.392-.64s-.029-.156-.051-.171a1.845,1.845,0,0,1-.135-.149.453.453,0,0,1-.078-.18c-.01-.051-.072-.068-.072-.147a.217.217,0,0,0-.089-.2s-.071-.084-.071-.126-.041-.068-.074-.1a.44.44,0,0,1-.1-.178,1.033,1.033,0,0,0-.078-.236,1.113,1.113,0,0,0-.158-.243c-.044-.05-.1-.115-.1-.169a.958.958,0,0,0-.019-.236c-.013-.043-.067-.147-.082-.2s-.321-.769-.379-.975-.418-1.412-.445-1.554-.185-.969-.185-1.019-.035-.221-.03-.263a1.67,1.67,0,0,0-.014-.364.868.868,0,0,1-.053-.221,1.5,1.5,0,0,0-.059-.275,1.423,1.423,0,0,1-.069-.2c-.011-.042-.035-.349-.035-.349s.053-.021.047-.041a.219.219,0,0,0-.047-.056,1.35,1.35,0,0,1-.021-.17c0-.045-.058-.51-.065-.594s-.008-.941-.008-.983-.016-.053.015-.069.022-.14,0-.2a.943.943,0,0,1-.057-.261c.01-.064,0-.351,0-.394s-.025-1.151-.019-1.291.053-.7.053-.722a.089.089,0,0,1,.039-.072c.028-.02-.029.006-.029-.05s.029-.508.043-.618.135-.745.155-.877a1.621,1.621,0,0,1,.083-.4c.037-.054.072,0,.072-.217,0,0,.083-.072.068-.149a.194.194,0,0,1,.037-.149.228.228,0,0,0,.056-.1c.032-.073,0-.285.024-.336s.371-1.3.445-1.5.306-.716.361-.876a2.108,2.108,0,0,1,.076-.287.45.45,0,0,1,.106-.094c.047-.029-.007-.1.014-.125a.9.9,0,0,1,.121-.2c.053-.043.013-.06.006-.094a.9.9,0,0,1,.072-.206s.048.007.068-.1a7.792,7.792,0,0,1,.274-.743c.034-.059.281-.6.384-.739s.213-.365.265-.437.227-.406.294-.5a4.443,4.443,0,0,1,.414-.539c.115-.1.29-.323.36-.382s.209-.178.259-.216a2.1,2.1,0,0,1,.342-.264,1.431,1.431,0,0,0,.315-.307s.177-.2.235-.213.195.033.158-.106a.044.044,0,0,1,.037-.058c.05-.009.169-.152.22-.152a.186.186,0,0,0,.138-.045c.031-.041-.114-.1.027-.133a1.107,1.107,0,0,0,.313-.179s-.029-.122.02-.131a1.514,1.514,0,0,1,.213-.026c.071,0,.126.026.139-.028s-.071-.156.033-.147.159-.009.218-.145.088-.044.129-.086.071-.149.138-.18a.557.557,0,0,1,.2-.078c.076,0,.126,0,.159-.132a.237.237,0,0,0,.083-.017c.034-.013.044-.013.072-.1a.256.256,0,0,1,.141-.155c.073-.034.7-.516.813-.586s.445-.352.488-.364a1.092,1.092,0,0,0,.119-.038c.043-.02.1-.122.147-.122a.283.283,0,0,0,.1-.031s.028-.062.074-.073.089.01.1-.02.01-.119.067-.145a1.643,1.643,0,0,1,.2-.143c.051,0,.074,0,.083-.037s-.008-.118.007-.147a1.273,1.273,0,0,1,.2-.2.157.157,0,0,0,.078-.1c.009-.03,0-.1.032-.138a.779.779,0,0,0,.119-.333.911.911,0,0,0-.07-.45.567.567,0,0,0-.343-.271c-.158-.027-.286-.052-.3-.058s-.037-.037-.1-.028a.619.619,0,0,0-.131.033c-.054.016-.228.061-.348.084s-.228.066-.274.072-.073-.005-.126.037a.79.79,0,0,1-.13.111c-.03.014-.143.005-.211.021s-.084.018-.122.054a.253.253,0,0,1-.124.057c-.039.008-.26.019-.333.034s-.143.071-.208.075l-.232.047c-.056.006-.172.074-.246.077a.529.529,0,0,1-.334-.052c-.187-.079-.273-.12-.29-.159a1.724,1.724,0,0,1-.041-.356c.015-.066.015-.055-.006-.081a.083.083,0,0,1,0-.1,1.991,1.991,0,0,0,.16-.245,1.53,1.53,0,0,1,.185-.268c.047-.063.044-.136.157-.216s.063-.158.063-.158a.378.378,0,0,1,.058-.1c.032-.04.331-.5.431-.63s.319-.437.366-.493.008-.1.053-.15.106-.129.132-.162,0-.093.038-.139.037-.045.132-.128a1.605,1.605,0,0,0,.273-.378c.062-.109.173-.3.224-.4a.526.526,0,0,0,.079-.243c.011-.093.011-.095.035-.135a.309.309,0,0,0,0-.163.332.332,0,0,0-.077-.217.763.763,0,0,0-.3-.189,1.339,1.339,0,0,0-.485-.052.38.38,0,0,0-.254.109c-.057.041-.261.192-.317.227s-.417.379-.473.42a.912.912,0,0,0-.136.108.544.544,0,0,1-.042.094c-.014.025-.418.333-.515.418s-.342.281-.4.319a1.594,1.594,0,0,1-.144.08c-.066.044-.154.205-.189.231a.228.228,0,0,1-.127.036c-.034-.006-.067-.049-.062.03s-.138.164-.162.188-.523.371-.566.4a.349.349,0,0,1-.151.064,1,1,0,0,1-.284-.021c-.04-.022-.1-.173-.111-.069,0,0,.017.027-.04.03a.21.21,0,0,1-.142-.044.456.456,0,0,1-.114-.192.561.561,0,0,1,.024-.328c.039-.108.044-.169.078-.244s.149-.245.217-.353.153-.275.175-.305.034-.093.048-.128.071-.066.132-.148.213-.33.254-.407.071-.211.138-.245.059-.062.084-.115.191-.311.241-.387a2.7,2.7,0,0,0,.127-.26,2.275,2.275,0,0,1,.188-.353,3.537,3.537,0,0,1,.3-.423.369.369,0,0,0,.09-.154c.018-.03.008-.145.038-.163s.05-.077.054-.13-.018-.206.013-.241a.305.305,0,0,0,.091-.134.675.675,0,0,0-.017-.269,1.368,1.368,0,0,0-.2-.315.737.737,0,0,0-.4-.254,2.276,2.276,0,0,1-.323-.064.288.288,0,0,0-.177.016.518.518,0,0,1-.165.08.482.482,0,0,0-.168.071c-.04.042-.368.381-.406.431a1.751,1.751,0,0,0-.167.228,9.639,9.639,0,0,1-.646.754.4.4,0,0,0-.114.177c-.033.1-.012.076-.051.117s-.112.03-.17.127a2.548,2.548,0,0,1-.21.331s-.345.336-.39.392a.777.777,0,0,0-.071.149c-.032.042-.28.275-.322.345s-.026.122-.06.159-.421.511-.5.594a1.247,1.247,0,0,1-.343.3.265.265,0,0,1-.313-.087.587.587,0,0,1-.159-.37,3.4,3.4,0,0,1,.08-.54c.042-.155.253-.813.3-.916s.389-.85.446-.961.118-.214.145-.293.056-.168.082-.247a1.528,1.528,0,0,1,.14-.271c.02-.021.07.007.091-.117a1.045,1.045,0,0,1,.141-.284s.093-.16.126-.209a.333.333,0,0,0,.037-.235.151.151,0,0,1,0-.146c.016-.041.006-.137-.1-.239a.493.493,0,0,0-.478-.185,1.06,1.06,0,0,0-.4.072c-.055,0-.1.056-.121.106a1.054,1.054,0,0,1-.212.2c-.076.051-.5.455-.555.515s-.3.305-.336.346-.047.085-.074.117-.467.509-.515.582-.063.154-.094.2-.318.47-.367.541a2.215,2.215,0,0,0-.216.319.265.265,0,0,0-.032.1c0,.053-.038.08-.074.136s-.3.49-.327.546-.044.089-.075.1a.2.2,0,0,0-.071.117c-.019.042-.288.459-.333.518a1.09,1.09,0,0,1-.354.283,1.169,1.169,0,0,1-.411-.083,1.142,1.142,0,0,1-.305-.3c-.051-.073-.126-.2-.163-.245s-.034-.074-.026-.145a.381.381,0,0,0-.008-.208.948.948,0,0,1-.031-.292,6.582,6.582,0,0,1,.061-.657,3.279,3.279,0,0,0,.022-.455c.007-.047.036-.047.039-.1a.743.743,0,0,0-.02-.2c-.006-.034-.027-.064-.006-.091s.043-.045.027-.1a1.1,1.1,0,0,0-.083-.178.747.747,0,0,0-.233-.215A1.091,1.091,0,0,0,139.27,228.207Z" transform="translate(-136.571 -226.772)" fill="#1a9432"/>
            <path id="パス_4437" data-name="パス 4437" d="M170.948,275.841s-.679.331-.727.353a1.384,1.384,0,0,0-.172.058s-.425.285-.53.351a5.416,5.416,0,0,0-.477.346.484.484,0,0,0-.144.173c-.014.044-.04.058-.1.1a.505.505,0,0,0-.152.116,4.6,4.6,0,0,0-.444.548,1.864,1.864,0,0,0-.127.264c-.007.039.006.119-.023.158a.629.629,0,0,0-.126.278,1.149,1.149,0,0,0,.019.316,1.205,1.205,0,0,0,.176.439.3.3,0,0,0,.14.086c.052.012.066.048.106.086a.327.327,0,0,0,.208.083.712.712,0,0,0,.243-.032c.07-.025.187-.056.242-.074s.228-.114.319-.161a1,1,0,0,0,.2-.16c.082-.069.23-.277.306-.361s.279-.318.374-.394.284-.26.359-.309a2.477,2.477,0,0,1,.372-.22,2.148,2.148,0,0,0,.221-.115,2.319,2.319,0,0,1,.52-.156,1.167,1.167,0,0,0,.211-.047,3.3,3.3,0,0,1,.522-.062c.145,0,.352-.049.5-.04a1.353,1.353,0,0,1,.372.077c.088.03.127.08.189.1s.188.043.279.082a3.4,3.4,0,0,1,.363.174c.132.084.386.208.466.266a.66.66,0,0,0,.233.123,1.774,1.774,0,0,0,.482.028.653.653,0,0,0,.459-.3s.073-.008.023-.441-.023-.343-.076-.479a.4.4,0,0,0-.16-.215,3.362,3.362,0,0,1-.336-.3.39.39,0,0,0-.12-.144c-.065-.043-.175-.155-.217-.155a.164.164,0,0,1-.09-.014c-.024-.015-.029-.068-.093-.094s-.145-.088-.2-.11S174.5,276,174.43,276a.348.348,0,0,1-.159-.021c-.058-.027-.2-.138-.238-.138a.358.358,0,0,1-.133-.014c-.021-.016-.056-.075-.107-.089s-.377-.024-.458-.042-.183-.052-.27-.058a4.442,4.442,0,0,0-.5.018.827.827,0,0,1-.211-.017,2.682,2.682,0,0,0-.58.032,1.077,1.077,0,0,1-.2.093c-.063.01-.333.024-.418.036S171.03,275.819,170.948,275.841Z" transform="translate(-156.694 -258.136)" fill="#1a9432"/>
            <path id="パス_4438" data-name="パス 4438" d="M177.6,286.434a.473.473,0,0,0-.272.005,1.477,1.477,0,0,1-.231.066c-.059,0-.077.069-.121.1s-.06.056-.11.061a.237.237,0,0,0-.159.057,1.424,1.424,0,0,0-.133.179c-.028.055-.114.254-.162.382a.764.764,0,0,0-.069.254c-.006.061-.031.225-.031.317a.98.98,0,0,0,.066.424.906.906,0,0,0,.25.259c.1.079.238.184.3.223a.305.305,0,0,0,.114.052.315.315,0,0,0,.163,0,.174.174,0,0,1,.152.038.243.243,0,0,0,.17.05c.064-.007.171-.067.233-.081a.508.508,0,0,1,.183-.022.135.135,0,0,0,.122-.035.733.733,0,0,1,.164-.111c.056-.02.118-.039.136-.09s.088-.158.112-.185.043-.1.084-.135a.764.764,0,0,0,.109-.166.457.457,0,0,0,.039-.119c0-.028.019-.143.019-.231s.019-.175-.019-.23-.061-.165-.094-.212a1.128,1.128,0,0,1-.1-.167.737.737,0,0,1-.032-.158.228.228,0,0,0-.082-.184,1.033,1.033,0,0,0-.274-.126c-.083-.03-.162-.067-.23-.094a.728.728,0,0,0-.166-.068.2.2,0,0,1-.079-.01C177.633,286.461,177.624,286.444,177.6,286.434Z" transform="translate(-162.078 -265.059)" fill="#1a9432"/>
            <path id="パス_4439" data-name="パス 4439" d="M204.57,275.044s-.256,0-.361-.021-.716.01-.788.01a.41.41,0,0,1-.19-.024.23.23,0,0,0-.195.024,2.244,2.244,0,0,1-.41.036,1.135,1.135,0,0,1-.291.018.258.258,0,0,0-.185.011c-.1.039-.622.137-.72.168s-.11.011-.215.039-.188.038-.239.059-.661.228-.729.274-.135.021-.2.083a.735.735,0,0,1-.184.122s-.184.077-.265.1-.065-.007-.155.052a1.409,1.409,0,0,0-.25.169.837.837,0,0,1-.1.108c-.029.029-.345.194-.453.271s-.294.217-.364.261-.391.333-.5.427-.315.276-.372.346-.164.193-.194.221-.1.013-.089.048.047.082-.012.082a.125.125,0,0,0-.111.052c-.025.033-.1.1-.12.147s-.148.209-.178.265-.059.105-.09.108-.065,0-.065.063a.159.159,0,0,1-.054.127,2.52,2.52,0,0,1-.16.212.586.586,0,0,0-.12.14,1.022,1.022,0,0,1-.069.178c-.048.086-.352.559-.389.641s-.108.162-.112.189.013.116-.047.138a.2.2,0,0,0-.123.11c-.019.043-.019.1-.04.145s-.061.063-.082.09a.687.687,0,0,0-.073.148,1.047,1.047,0,0,1-.13.261c-.025.043-.09.1-.1.127a.306.306,0,0,1,0,.129c-.023.047-.118.075-.12.125s.012.108,0,.145-.077.091-.12.155a.546.546,0,0,0-.045.277.223.223,0,0,1-.065.178.923.923,0,0,0-.105.251c-.044.131-.211.691-.242.849a1.188,1.188,0,0,1-.074.306.385.385,0,0,0-.07.118,1.47,1.47,0,0,0-.064.216.776.776,0,0,1,.018.115c0,.041-.051.111-.067.164a.453.453,0,0,0-.026.225.536.536,0,0,1-.024.228.881.881,0,0,0-.07.2.643.643,0,0,1,.026.184c-.013.111-.061.318-.073.4s-.067.633-.06.727.06.557.079.707,0,.155.009.2.06.088.045.126-.11.1.027.12a.491.491,0,0,1,.088.1.45.45,0,0,0,.124.126c.059.038.165.119.234.158a.328.328,0,0,0,.177.072c.069.007.1-.032.169-.032a.44.44,0,0,0,.155,0,.7.7,0,0,0,.29-.171,1.363,1.363,0,0,0,.177-.265c.048-.094.125-.247.167-.337a1.262,1.262,0,0,1,.107-.219.639.639,0,0,0,.1-.247c.017-.081.121-.481.155-.642s.071-.4.086-.479.052-.245.057-.283.027-.081.062-.217.043-.359.068-.458a2.133,2.133,0,0,0,.075-.222,1.737,1.737,0,0,1,.038-.33c.036-.078.182-.471.213-.579s.112-.336.133-.454a4.407,4.407,0,0,1,.2-.669.578.578,0,0,0,.08-.2,1.034,1.034,0,0,1,.086-.247c.038-.06.11-.177.136-.227s.009-.168.086-.215.083-.1.11-.167.126-.185.159-.267a3.187,3.187,0,0,1,.17-.37.513.513,0,0,0,.085-.138.289.289,0,0,1,.077-.139s.062-.1.095-.143a1.756,1.756,0,0,0,.11-.152c.044-.044.068-.131.1-.154s.039-.059.057-.059.1-.047.087-.112.061-.123.08-.151a2.351,2.351,0,0,1,.168-.248,1.477,1.477,0,0,1,.209-.233c.046-.028.066-.08.108-.092s.074.008.1-.019.011-.038.068-.088.165-.175.218-.222.145-.194.187-.2.035.03.107.01.1-.052.155-.066a1.286,1.286,0,0,0,.188-.121c.06-.037.556-.378.664-.445a5.215,5.215,0,0,1,.51-.266,2,2,0,0,1,.263-.088c.076-.011.058-.045.114-.045a.34.34,0,0,0,.147-.017c.03-.018.063-.076.13-.1s.4-.115.558-.144a7.1,7.1,0,0,1,.769-.158c.146,0,.527-.021.588-.025s.045,0,.08.014.448.005.573.005.529-.019.6-.026a.22.22,0,0,1,.141.036c.042.019.05.019.147.019a5.076,5.076,0,0,0,.536-.011,1.043,1.043,0,0,0,.467-.186.492.492,0,0,0,.139-.26c0-.034.025-.053.03-.094s-.019-.064-.03-.1,0-.229-.014-.261a1.927,1.927,0,0,0-.125-.162c-.052-.061-.11-.147-.139-.179s-.164-.155-.206-.19-.131-.027-.16-.048a.414.414,0,0,1-.116-.1.167.167,0,0,0-.108-.039,2.347,2.347,0,0,1-.286-.031,1.211,1.211,0,0,1-.175-.083c-.039-.015-.115-.038-.145-.006s-.015.038-.079.043-.071.013-.106-.011A.286.286,0,0,0,204.57,275.044Z" transform="translate(-173.35 -257.728)" fill="#1a9432"/>
            <path id="パス_4440" data-name="パス 4440" d="M214.416,286.587a.7.7,0,0,0-.11.153.964.964,0,0,1-.1.148.584.584,0,0,0-.1.179c-.028.077-.073.2-.091.235s-.082.133-.1.175a.5.5,0,0,0-.052.208,1.337,1.337,0,0,0,.072.328,1.426,1.426,0,0,0,.125.24c.049.052.014.067.054.1a1.613,1.613,0,0,1,.13.137,1.538,1.538,0,0,1,.093.16.145.145,0,0,0,.077.055c.047.014.1.014.139.025a1.385,1.385,0,0,0,.137.067,1.242,1.242,0,0,0,.2.049.713.713,0,0,1,.109.021.981.981,0,0,0,.231.02.8.8,0,0,0,.284-.072c.1-.029.163-.1.2-.1a.639.639,0,0,0,.167-.092c.055-.032.079-.092.127-.119a.428.428,0,0,0,.136-.077.341.341,0,0,0,.074-.115c.01-.023.01-.163.024-.191s.032-.086.061-.137.048-.149.061-.16.006-.053.034-.067.084-.056.009-.1c0,0-.024-.116-.009-.134a.188.188,0,0,0,.009-.156.843.843,0,0,0-.061-.145.558.558,0,0,1-.088-.133.532.532,0,0,0-.07-.14c-.025-.029-.238-.241-.276-.273a.455.455,0,0,0-.1-.1c-.039-.013-.1-.012-.145-.031s-.041-.033-.1-.043a1.138,1.138,0,0,0-.136-.015c-.056-.012-.115-.047-.185-.068a.818.818,0,0,0-.184-.061.394.394,0,0,0-.156.029.786.786,0,0,0-.176.041.9.9,0,0,0-.132.1C214.557,286.558,214.511,286.53,214.416,286.587Z" transform="translate(-186.186 -265.021)" fill="#1a9432"/>
            <path id="パス_4441" data-name="パス 4441" d="M182.865,320.192a2.212,2.212,0,0,0-.4,0c-.082.025-.075.065-.112.076a.632.632,0,0,0-.222.037c-.045.029-.219.128-.273.167a.371.371,0,0,0-.113.1,1.129,1.129,0,0,0-.082.442,3.533,3.533,0,0,1,.051.382c-.024.05,0,.085.039.118s.057.1.119.116.076-.011.135.024a.269.269,0,0,1,.1.1,3.3,3.3,0,0,0,.4.289,6.059,6.059,0,0,0,.547.262,4.336,4.336,0,0,0,.436.158c.076.025.067.063.122.063a.519.519,0,0,1,.211.016.826.826,0,0,0,.2.108c.051.009.093-.03.14.009s.042.092.115.1.275-.028.345-.02.255.02.332.037a.422.422,0,0,1,.134.051c.046.015,1.009.015,1.17.015a1.959,1.959,0,0,0,.338-.009,1.6,1.6,0,0,1,.2-.052c.06,0,.134.03.227.03s.105,0,.15-.036a.227.227,0,0,1,.148-.037.365.365,0,0,1,.13.02c.054.016.155-.028.208-.038s.633-.079.751-.1.245-.005.285-.043a.182.182,0,0,1,.142-.085.2.2,0,0,0,.143-.064c.039-.029.134-.029.221-.066s.35-.148.542-.221.4-.189.568-.271.18-.111.242-.131a.479.479,0,0,1,.141-.056.657.657,0,0,0,.238-.123,1.24,1.24,0,0,0,.253-.25,1.159,1.159,0,0,1,.218-.272c.043-.03.089-.052.111-.112s.006-.136.027-.158a.274.274,0,0,0,.06-.174.84.84,0,0,0-.029-.313.775.775,0,0,0-.11-.214.866.866,0,0,0-.164-.114c-.021-.012-.061-.035-.088-.016s-.064.048-.087.032a.088.088,0,0,1-.04-.066.1.1,0,0,0-.11-.067.607.607,0,0,1-.166,0c-.042-.006-.042-.022-.1-.022a.8.8,0,0,0-.182.03c-.063.019-.308.019-.374.029a1.254,1.254,0,0,0-.213.064c-.1.032-.382.138-.521.2s-.326.141-.462.214-.426.2-.539.257a1.417,1.417,0,0,1-.234.111c-.062.01-.185.027-.27.046s-.386.089-.483.1a4.815,4.815,0,0,1-.61.07c-.115,0-.751-.009-.914-.009a3.5,3.5,0,0,1-.58-.067c-.121-.025-.508-.085-.657-.117s-.541-.147-.746-.207-.437-.115-.59-.174S183,320.244,182.865,320.192Z" transform="translate(-165.514 -286.497)" fill="#1a9432"/>
          </g>
          <g id="グループ_6312" data-name="グループ 6312" transform="translate(52.163)">
            <g id="グループ_6308" data-name="グループ 6308">
              <path id="長方形_922" data-name="長方形 922" d="M1.41,0H9.87a1.41,1.41,0,0,1,1.41,1.41v0A1.41,1.41,0,0,1,9.87,2.82H1.41A1.41,1.41,0,0,1,0,1.41v0A1.41,1.41,0,0,1,1.41,0Z" transform="translate(5.639 9.868)" fill="#1a9432"/>
              <path id="パス_4442" data-name="パス 4442" d="M304.164,226.772H282.875a.634.634,0,0,0-.635.634v21.288a.635.635,0,0,0,.635.635h21.289a.634.634,0,0,0,.634-.635V227.406A.634.634,0,0,0,304.164,226.772Zm-2.186,19.42a.317.317,0,0,1-.318.317H285.377a.318.318,0,0,1-.318-.317V229.909a.318.318,0,0,1,.318-.318H301.66a.318.318,0,0,1,.318.318Z" transform="translate(-282.24 -226.772)" fill="#1a9432"/>
            </g>
            <g id="グループ_6309" data-name="グループ 6309" transform="translate(28.197 28.196)">
              <path id="パス_4443" data-name="パス 4443" d="M388.009,331.9a.635.635,0,0,1-.635.635h-1.551a.634.634,0,0,1-.634-.635V324.4a.318.318,0,0,0-.318-.318h-7.507a.634.634,0,0,1-.635-.634v-1.551a.634.634,0,0,1,.635-.634h10.009a.634.634,0,0,1,.635.634Z" transform="translate(-371.09 -315.621)" fill="#1a9432"/>
              <path id="パス_4444" data-name="パス 4444" d="M380.489,344.136a1.88,1.88,0,1,1-1.88-1.88A1.88,1.88,0,0,1,380.489,344.136Z" transform="translate(-371.09 -329.098)" fill="#1a9432"/>
              <path id="パス_4445" data-name="パス 4445" d="M382.9,305.512H361.616a.635.635,0,0,0-.635.634v21.287a.634.634,0,0,0,.635.635H382.9a.634.634,0,0,0,.635-.635V306.146A.634.634,0,0,0,382.9,305.512Zm-2.185,19.42a.318.318,0,0,1-.317.317H364.118a.317.317,0,0,1-.317-.317V308.649a.317.317,0,0,1,.317-.318H380.4a.318.318,0,0,1,.317.318Z" transform="translate(-360.981 -305.512)" fill="#1a9432"/>
            </g>
            <g id="グループ_6310" data-name="グループ 6310" transform="translate(0 28.196)">
              <path id="パス_4446" data-name="パス 4446" d="M293.519,318.975a.635.635,0,0,1-.634.635h-1.551a.635.635,0,0,1-.635-.635V308.649a.317.317,0,0,0-.317-.318h-7.507a.635.635,0,0,1-.635-.635v-1.551a.635.635,0,0,1,.635-.634h10.01a.634.634,0,0,1,.634.634Z" transform="translate(-282.24 -305.512)" fill="#1a9432"/>
              <path id="パス_4447" data-name="パス 4447" d="M330.071,306.146a.634.634,0,0,0-.635-.634h-1.551a.634.634,0,0,0-.634.634v1.868a.317.317,0,0,1-.317.317h-4.687a.635.635,0,0,0-.634.635v1.551a.634.634,0,0,0,.634.635h7.19a.634.634,0,0,0,.635-.635Z" transform="translate(-307.513 -305.512)" fill="#1a9432"/>
              <path id="パス_4448" data-name="パス 4448" d="M285.966,338.177a.632.632,0,0,0,.448-.186l5.092-5.092a.212.212,0,0,0-.15-.361h-5.979a.317.317,0,0,1-.317-.318v-2.185a.317.317,0,0,1,.317-.317h1.868a.635.635,0,0,0,.634-.635v-1.551a.634.634,0,0,0-.634-.634h-1.868a.318.318,0,0,1-.317-.318V324.4a.318.318,0,0,1,.317-.318h1.868a.634.634,0,0,0,.634-.634v-1.551a.634.634,0,0,0-.634-.634h-4.371a.635.635,0,0,0-.635.634v12.829a.635.635,0,0,0,.635.635h1.675a.212.212,0,0,1,.149.361l-2.093,2.1a.211.211,0,0,0,.149.361Z" transform="translate(-282.24 -315.621)" fill="#1a9432"/>
              <path id="パス_4449" data-name="パス 4449" d="M337.993,357.2a.634.634,0,0,1-.634-.635v-2.889a.634.634,0,0,1,.186-.449l2.273-2.273a.212.212,0,0,1,.361.15v5.462a.634.634,0,0,1-.635.635Z" transform="translate(-317.621 -334.64)" fill="#1a9432"/>
              <path id="パス_4450" data-name="パス 4450" d="M319.444,332.822a.629.629,0,0,0,.186-.448v-2.607a.634.634,0,0,0-.635-.634h-1.551a.635.635,0,0,0-.634.634v1.44a.632.632,0,0,1-.186.448L305.409,342.87a.211.211,0,0,0,.149.361h3.214a.632.632,0,0,0,.449-.186Z" transform="translate(-297.072 -320.674)" fill="#1a9432"/>
            </g>
            <g id="グループ_6311" data-name="グループ 6311" transform="translate(28.197)">
              <path id="パス_4451" data-name="パス 4451" d="M377.9,244.319a.631.631,0,0,0-.635-.63h-3.277a.318.318,0,0,1-.318-.318V232.727a.317.317,0,0,1,.318-.317H382.9a.635.635,0,0,0,.635-.635v-1.551a.635.635,0,0,0-.635-.635h-8.917a.317.317,0,0,1-.318-.317v-1.868a.634.634,0,0,0-.635-.634h-1.551a.634.634,0,0,0-.634.634v1.868a.317.317,0,0,1-.318.317h-8.917a.635.635,0,0,0-.635.635v1.551a.635.635,0,0,0,.635.635h8.917a.317.317,0,0,1,.318.317v10.644a.329.329,0,0,1-.318.318h-3.277a.634.634,0,0,0-.634.635v1.55a.634.634,0,0,0,.634.634h3.277a.322.322,0,0,1,.318.314v1.872a.634.634,0,0,0,.634.635h1.551a.635.635,0,0,0,.635-.635v-1.872a.314.314,0,0,1,.317-.314h3.278v0a.634.634,0,0,0,.635-.634Z" transform="translate(-360.981 -226.772)" fill="#1a9432"/>
              <path id="パス_4452" data-name="パス 4452" d="M367.845,255.778a.633.633,0,0,0,.185-.448v-3.214a.211.211,0,0,0-.212-.211.209.209,0,0,0-.149.062l-6.5,6.5a.632.632,0,0,0-.186.449v3.214a.212.212,0,0,0,.211.211.21.21,0,0,0,.15-.062Z" transform="translate(-360.981 -242.905)" fill="#1a9432"/>
              <path id="パス_4453" data-name="パス 4453" d="M404.474,255.778a.629.629,0,0,1-.186-.448v-3.214a.212.212,0,0,1,.361-.15l6.5,6.5a.633.633,0,0,1,.186.449v3.214a.212.212,0,0,1-.212.211.209.209,0,0,1-.149-.062Z" transform="translate(-388.78 -242.905)" fill="#1a9432"/>
            </g>
          </g>
          <g id="グループ_6314" data-name="グループ 6314" transform="translate(109.966 36.438)">
            <path id="パス_4454" data-name="パス 4454" d="M446.282,355.576a1.888,1.888,0,0,0-1.308-.31h-1.185a.131.131,0,0,0-.131.131v4.391a.131.131,0,0,0,.131.131h.494a.131.131,0,0,0,.131-.131V358.24a.066.066,0,0,1,.066-.065h.564a1.84,1.84,0,0,0,1.271-.341,1.506,1.506,0,0,0,.484-1.128A1.427,1.427,0,0,0,446.282,355.576Zm-.528,1.8a1.3,1.3,0,0,1-.723.156h-.552a.066.066,0,0,1-.066-.066v-1.5a.066.066,0,0,1,.066-.065h.527a1.358,1.358,0,0,1,.742.15.819.819,0,0,1,.006,1.322Z" transform="translate(-443.658 -345.691)" fill="#1a9432"/>
            <path id="パス_4455" data-name="パス 4455" d="M526.644,355.576a1.892,1.892,0,0,0-1.309-.31H524.15a.131.131,0,0,0-.13.131v4.391a.131.131,0,0,0,.13.131h.494a.132.132,0,0,0,.131-.131V358.24a.065.065,0,0,1,.065-.065h.564a1.839,1.839,0,0,0,1.271-.341,1.507,1.507,0,0,0,.484-1.128A1.427,1.427,0,0,0,526.644,355.576Zm-.529,1.8a1.3,1.3,0,0,1-.722.156h-.552a.065.065,0,0,1-.065-.066v-1.5a.065.065,0,0,1,.065-.065h.527a1.36,1.36,0,0,1,.742.15.818.818,0,0,1,.005,1.322Z" transform="translate(-495.243 -345.691)" fill="#1a9432"/>
            <path id="パス_4456" data-name="パス 4456" d="M455.956,359.738l-1.811-4.391a.131.131,0,0,0-.121-.081h-.465a.13.13,0,0,0-.121.081l-1.811,4.391a.131.131,0,0,0,.121.181h.527a.132.132,0,0,0,.123-.085l.35-.936a.132.132,0,0,1,.122-.084h1.84a.131.131,0,0,1,.122.084l.351.936a.131.131,0,0,0,.122.085h.528a.131.131,0,0,0,.121-.181Zm-1.394-1.534a.043.043,0,0,1-.041.029h-1.459a.043.043,0,0,1-.04-.029.029.029,0,0,1,0-.015.032.032,0,0,1,0-.015l.729-1.946a.043.043,0,0,1,.081,0l.73,1.946a.043.043,0,0,1,0,.015A.039.039,0,0,1,454.562,358.2Z" transform="translate(-448.767 -345.691)" fill="#1a9432"/>
            <path id="パス_4457" data-name="パス 4457" d="M468.274,359.717a.131.131,0,0,1-.11.2h-.446a.13.13,0,0,1-.11-.061l-1.345-2.123a.125.125,0,0,1-.021-.07.13.13,0,0,1,.131-.13h.262a1.29,1.29,0,0,0,.722-.156.818.818,0,0,0-.006-1.322,1.359,1.359,0,0,0-.742-.15h-.527a.065.065,0,0,0-.066.065v3.816a.131.131,0,0,1-.131.131h-.494a.131.131,0,0,1-.131-.131V355.4a.131.131,0,0,1,.131-.131h1.186a1.894,1.894,0,0,1,1.308.31,1.427,1.427,0,0,1,.516,1.128,1.507,1.507,0,0,1-.484,1.128,1.443,1.443,0,0,1-.562.274.065.065,0,0,0-.049.078.066.066,0,0,0,.009.02Z" transform="translate(-457.525 -345.691)" fill="#1a9432"/>
            <path id="パス_4458" data-name="パス 4458" d="M657.185,359.214a.065.065,0,0,0,.065.065h1.49a.131.131,0,0,1,.131.131v.378a.131.131,0,0,1-.131.131H656.56a.131.131,0,0,1-.131-.131h0V355.4a.131.131,0,0,1,.131-.131h2.181a.131.131,0,0,1,.131.131v.377a.131.131,0,0,1-.131.132h-1.49a.065.065,0,0,0-.065.065v1.236a.065.065,0,0,0,.065.066h1.49a.131.131,0,0,1,.131.131v.379a.131.131,0,0,1-.131.131h-1.49a.065.065,0,0,0-.065.065Z" transform="translate(-580.237 -345.691)" fill="#1a9432"/>
            <path id="パス_4459" data-name="パス 4459" d="M688.208,359.214a.065.065,0,0,0,.065.065h1.49a.131.131,0,0,1,.131.131v.378a.132.132,0,0,1-.131.131h-2.181a.131.131,0,0,1-.131-.131h0V355.4a.131.131,0,0,1,.131-.131h2.181a.131.131,0,0,1,.131.131v.377a.132.132,0,0,1-.131.132h-1.49a.065.065,0,0,0-.065.065v1.236a.065.065,0,0,0,.065.066h1.49a.131.131,0,0,1,.131.131v.379a.131.131,0,0,1-.131.131h-1.49a.065.065,0,0,0-.065.065Z" transform="translate(-600.151 -345.691)" fill="#1a9432"/>
            <path id="パス_4460" data-name="パス 4460" d="M678.915,355.971a.066.066,0,0,0-.065-.065H678a.131.131,0,0,1-.131-.131V355.4a.131.131,0,0,1,.131-.131h2.588a.131.131,0,0,1,.131.131v.378a.131.131,0,0,1-.131.131h-.85a.066.066,0,0,0-.066.065v3.817a.131.131,0,0,1-.13.131h-.495a.131.131,0,0,1-.131-.131Z" transform="translate(-593.998 -345.691)" fill="#1a9432"/>
            <path id="パス_4461" data-name="パス 4461" d="M628.891,355.971a.066.066,0,0,0-.066-.065h-.851a.131.131,0,0,1-.131-.131V355.4a.131.131,0,0,1,.131-.131h2.588a.131.131,0,0,1,.131.131v.378a.131.131,0,0,1-.131.131h-.85a.065.065,0,0,0-.065.065v3.817a.131.131,0,0,1-.131.131h-.494a.131.131,0,0,1-.131-.131Z" transform="translate(-561.888 -345.691)" fill="#1a9432"/>
            <path id="パス_4462" data-name="パス 4462" d="M585.316,355.576a1.893,1.893,0,0,0-1.308-.31h-1.185a.131.131,0,0,0-.13.131v4.391a.131.131,0,0,0,.13.131h.495a.131.131,0,0,0,.131-.131V358.24a.065.065,0,0,1,.065-.065h.565a1.834,1.834,0,0,0,1.27-.341,1.505,1.505,0,0,0,.484-1.128A1.425,1.425,0,0,0,585.316,355.576Zm-.528,1.8a1.292,1.292,0,0,1-.723.156h-.552a.066.066,0,0,1-.065-.066v-1.5a.066.066,0,0,1,.065-.065h.527a1.36,1.36,0,0,1,.742.15.818.818,0,0,1,.006,1.322Z" transform="translate(-532.905 -345.691)" fill="#1a9432"/>
            <path id="パス_4463" data-name="パス 4463" d="M595.385,355.576a1.894,1.894,0,0,0-1.308-.31h-1.186a.131.131,0,0,0-.131.131v4.391a.131.131,0,0,0,.131.131h.494a.131.131,0,0,0,.131-.131V358.24a.065.065,0,0,1,.065-.065h.564a1.835,1.835,0,0,0,1.271-.341,1.507,1.507,0,0,0,.484-1.128A1.427,1.427,0,0,0,595.385,355.576Zm-.528,1.8a1.292,1.292,0,0,1-.722.156h-.553a.066.066,0,0,1-.065-.066v-1.5a.065.065,0,0,1,.065-.065h.527a1.362,1.362,0,0,1,.743.15.818.818,0,0,1,.005,1.322Z" transform="translate(-539.368 -345.691)" fill="#1a9432"/>
            <path id="パス_4464" data-name="パス 4464" d="M571.319,355.4a.131.131,0,0,1,.131-.131h.494a.131.131,0,0,1,.131.131v2.777a1.35,1.35,0,0,0,.168.8.818.818,0,0,0,.708.366.786.786,0,0,0,.7-.353,1.322,1.322,0,0,0,.174-.81V355.4a.131.131,0,0,1,.131-.131h.495a.131.131,0,0,1,.131.131v2.777a1.658,1.658,0,0,1-.505,1.424,1.612,1.612,0,0,1-1.11.408,1.588,1.588,0,0,1-1.642-1.832Z" transform="translate(-525.604 -345.691)" fill="#1a9432"/>
            <path id="パス_4465" data-name="パス 4465" d="M604.919,354.777a2.414,2.414,0,1,0,2.414,2.415A2.414,2.414,0,0,0,604.919,354.777Zm0,4.13a1.716,1.716,0,1,1,1.716-1.715A1.715,1.715,0,0,1,604.919,358.907Z" transform="translate(-545.623 -345.377)" fill="#1a9432"/>
            <path id="パス_4466" data-name="パス 4466" d="M669.631,359.788a.131.131,0,0,1-.131.131h-.436a.13.13,0,0,1-.107-.056l-2.329-3.326a.043.043,0,0,0-.036-.019.044.044,0,0,0-.044.044v3.226a.131.131,0,0,1-.131.131h-.436a.131.131,0,0,1-.131-.131V355.4a.131.131,0,0,1,.131-.131h.436a.131.131,0,0,1,.107.056l2.329,3.326a.044.044,0,0,0,.036.018.043.043,0,0,0,.044-.043V355.4a.131.131,0,0,1,.131-.131h.436a.131.131,0,0,1,.131.131Z" transform="translate(-586.285 -345.691)" fill="#1a9432"/>
            <path id="パス_4467" data-name="パス 4467" d="M479.345,359.738l-1.811-4.391a.131.131,0,0,0-.121-.081h-.465a.131.131,0,0,0-.121.081l-1.811,4.391a.138.138,0,0,0-.01.05.131.131,0,0,0,.131.131h.527a.132.132,0,0,0,.123-.085l.351-.936a.131.131,0,0,1,.122-.084h1.84a.13.13,0,0,1,.122.084l.351.936a.131.131,0,0,0,.122.085h.528a.132.132,0,0,0,.131-.131A.13.13,0,0,0,479.345,359.738Zm-1.394-1.534a.044.044,0,0,1-.041.029h-1.459a.042.042,0,0,1-.04-.029.029.029,0,0,1,0-.015.032.032,0,0,1,0-.015l.729-1.946a.044.044,0,0,1,.082,0l.73,1.946a.053.053,0,0,1,0,.015A.048.048,0,0,1,477.951,358.2Z" transform="translate(-463.78 -345.691)" fill="#1a9432"/>
            <path id="パス_4468" data-name="パス 4468" d="M563.728,356.3a.131.131,0,0,0,.131-.131.139.139,0,0,0,0-.018,1.316,1.316,0,0,0-1.386-1.131,1.368,1.368,0,0,0-1.464,1.339c0,.874.811,1.143,1.176,1.264.6.219,1.037.338,1.037.854a.762.762,0,0,1-.773.742.775.775,0,0,1-.771-.714.131.131,0,0,0-.129-.111h-.482a.13.13,0,0,0-.131.13v.014h0a1.4,1.4,0,0,0,1.52,1.31,1.376,1.376,0,0,0,1.5-1.41c0-.754-.541-1.049-1.119-1.294-.747-.276-1.094-.39-1.094-.841a.666.666,0,0,1,.7-.654.645.645,0,0,1,.675.552.131.131,0,0,0,.127.1Z" transform="translate(-518.939 -345.534)" fill="#1a9432"/>
            <path id="パス_4469" data-name="パス 4469" d="M621.111,359.717a.134.134,0,0,1,.02.07.131.131,0,0,1-.131.131h-.446a.132.132,0,0,1-.11-.061l-1.345-2.123a.125.125,0,0,1-.02-.07.13.13,0,0,1,.131-.13h.262a1.292,1.292,0,0,0,.722-.156.818.818,0,0,0-.005-1.322,1.362,1.362,0,0,0-.743-.15h-.526a.066.066,0,0,0-.066.065v3.816a.131.131,0,0,1-.13.131h-.495a.131.131,0,0,1-.131-.131V355.4a.131.131,0,0,1,.131-.131h1.186a1.892,1.892,0,0,1,1.308.31,1.425,1.425,0,0,1,.516,1.128,1.505,1.505,0,0,1-.484,1.128,1.447,1.447,0,0,1-.562.274.065.065,0,0,0-.049.078.067.067,0,0,0,.009.02Z" transform="translate(-555.632 -345.691)" fill="#1a9432"/>
            <path id="パス_4470" data-name="パス 4470" d="M699.561,359.717a.133.133,0,0,1,.021.07.131.131,0,0,1-.131.131H699a.131.131,0,0,1-.111-.061l-1.345-2.123a.13.13,0,0,1,.11-.2h.263a1.289,1.289,0,0,0,.722-.156.818.818,0,0,0-.005-1.322,1.359,1.359,0,0,0-.742-.15h-.527a.065.065,0,0,0-.065.065v3.816a.131.131,0,0,1-.131.131h-.495a.131.131,0,0,1-.13-.131V355.4a.131.131,0,0,1,.13-.131h1.186a1.9,1.9,0,0,1,1.308.31,1.427,1.427,0,0,1,.516,1.128,1.506,1.506,0,0,1-.484,1.128,1.447,1.447,0,0,1-.561.274.066.066,0,0,0-.049.078.067.067,0,0,0,.009.02Z" transform="translate(-605.989 -345.691)" fill="#1a9432"/>
            <path id="パス_4471" data-name="パス 4471" d="M645.322,358.395a1.716,1.716,0,1,1,0-1.918.13.13,0,0,0,.109.057h.505a.13.13,0,0,0,.131-.131.125.125,0,0,0-.014-.057,2.413,2.413,0,1,0,0,2.179.127.127,0,0,0,.014-.057.131.131,0,0,0-.131-.131h-.505A.131.131,0,0,0,645.322,358.395Z" transform="translate(-570.645 -345.534)" fill="#1a9432"/>
            <path id="パス_4472" data-name="パス 4472" d="M542.634,358.395a1.716,1.716,0,1,1,0-1.918.131.131,0,0,0,.109.057h.505a.13.13,0,0,0,.131-.131.133.133,0,0,0-.013-.057,2.413,2.413,0,1,0,0,2.179.135.135,0,0,0,.013-.057.131.131,0,0,0-.131-.131h-.505A.132.132,0,0,0,542.634,358.395Z" transform="translate(-504.729 -345.534)" fill="#1a9432"/>
            <path id="パス_4473" data-name="パス 4473" d="M488.9,359.919a.131.131,0,0,1-.131-.131V355.4a.131.131,0,0,1,.131-.131h.495a.131.131,0,0,1,.131.131v3.817a.066.066,0,0,0,.065.066H491.2a.131.131,0,0,1,.131.131v.378a.131.131,0,0,1-.131.131Z" transform="translate(-472.618 -345.691)" fill="#1a9432"/>
            <path id="長方形_923" data-name="長方形 923" d="M.367,0H.39A.366.366,0,0,1,.756.366V4.288a.365.365,0,0,1-.365.365H.364A.364.364,0,0,1,0,4.289V.367A.367.367,0,0,1,.367,0Z" transform="translate(32.615 9.575)" fill="#1a9432"/>
            <path id="パス_4474" data-name="パス 4474" d="M497.282,358.378a.134.134,0,0,1,.013-.057l1.407-2.867a.136.136,0,0,0,.013-.057.131.131,0,0,0-.131-.131h-.521a.131.131,0,0,0-.119.075l-1,2.122a.043.043,0,0,1-.079,0l-1-2.122a.13.13,0,0,0-.118-.075h-.522a.131.131,0,0,0-.131.131.125.125,0,0,0,.014.057l1.406,2.867a.13.13,0,0,1,.014.057v1.409a.131.131,0,0,0,.131.131h.495a.131.131,0,0,0,.131-.131Z" transform="translate(-476.674 -345.691)" fill="#1a9432"/>
            <path id="パス_4475" data-name="パス 4475" d="M509.842,359.919a.131.131,0,0,0,.121-.081l1.424-3.452a.045.045,0,0,1,.04-.028.044.044,0,0,1,.044.044v3.385a.131.131,0,0,0,.131.131h.494a.131.131,0,0,0,.131-.131V355.4a.131.131,0,0,0-.131-.131h-.856a.132.132,0,0,0-.122.082l-1.381,3.452a.044.044,0,0,1-.04.027.045.045,0,0,1-.041-.027l-1.38-3.452a.133.133,0,0,0-.122-.082H507.3a.131.131,0,0,0-.131.131v4.391a.131.131,0,0,0,.131.131h.495a.131.131,0,0,0,.131-.131V356.4a.044.044,0,0,1,.044-.044.045.045,0,0,1,.04.028l1.424,3.452a.131.131,0,0,0,.121.081Z" transform="translate(-484.425 -345.691)" fill="#1a9432"/>
            <g id="グループ_6313" data-name="グループ 6313">
              <path id="パス_4476" data-name="パス 4476" d="M573.691,328.987a.16.16,0,0,1,.16-.161h2.678a.161.161,0,0,1,.161.161v.464a.161.161,0,0,1-.161.161H574.7a.08.08,0,0,0-.08.079v1.518a.08.08,0,0,0,.08.081h1.83a.161.161,0,0,1,.161.161v.464a.161.161,0,0,1-.161.161H574.7a.08.08,0,0,0-.08.081v2.223a.161.161,0,0,1-.161.161h-.607a.16.16,0,0,1-.16-.161Z" transform="translate(-527.127 -328.719)" fill="#1a9432"/>
              <path id="パス_4477" data-name="パス 4477" d="M470.912,333.673a.081.081,0,0,0,.081.081h1.83a.16.16,0,0,1,.16.161v.464a.16.16,0,0,1-.16.161h-2.678a.161.161,0,0,1-.161-.161h0v-5.392a.161.161,0,0,1,.161-.161h2.678a.16.16,0,0,1,.16.161v.464a.161.161,0,0,1-.16.161h-1.83a.08.08,0,0,0-.081.079v1.518a.081.081,0,0,0,.081.081h1.83a.161.161,0,0,1,.16.161v.464a.16.16,0,0,1-.16.161h-1.83a.081.081,0,0,0-.081.081Z" transform="translate(-460.556 -328.719)" fill="#1a9432"/>
              <path id="パス_4478" data-name="パス 4478" d="M659.138,329.692a.08.08,0,0,0-.08-.079h-1.044a.161.161,0,0,1-.161-.161v-.464a.161.161,0,0,1,.161-.161h3.178a.16.16,0,0,1,.16.161v.464a.161.161,0,0,1-.16.161h-1.045a.08.08,0,0,0-.081.079v4.687a.16.16,0,0,1-.16.161H659.3a.161.161,0,0,1-.161-.161Z" transform="translate(-581.151 -328.719)" fill="#1a9432"/>
              <path id="パス_4479" data-name="パス 4479" d="M444.943,329.692a.08.08,0,0,0-.08-.079h-1.044a.161.161,0,0,1-.161-.161v-.464a.161.161,0,0,1,.161-.161H447a.161.161,0,0,1,.161.161v.464a.161.161,0,0,1-.161.161h-1.044a.08.08,0,0,0-.081.079v4.687a.161.161,0,0,1-.161.161H445.1a.161.161,0,0,1-.161-.161Z" transform="translate(-443.658 -328.719)" fill="#1a9432"/>
              <path id="長方形_924" data-name="長方形 924" d="M.449,0H.48A.448.448,0,0,1,.928.448V5.264a.449.449,0,0,1-.449.449H.449A.449.449,0,0,1,0,5.264V.449A.449.449,0,0,1,.449,0Z" transform="translate(80.773 0.107)" fill="#1a9432"/>
              <path id="長方形_925" data-name="長方形 925" d="M.449,0H.481A.447.447,0,0,1,.928.447V5.263a.449.449,0,0,1-.449.449H.449A.449.449,0,0,1,0,5.263V.449A.449.449,0,0,1,.449,0Z" transform="translate(21.354 0.108)" fill="#1a9432"/>
              <path id="パス_4480" data-name="パス 4480" d="M512.1,329.208a2.32,2.32,0,0,0-1.606-.382h-1.456a.161.161,0,0,0-.16.161v5.392a.161.161,0,0,0,.16.161h.608a.161.161,0,0,0,.16-.161v-1.9a.08.08,0,0,1,.081-.08h.693a2.256,2.256,0,0,0,1.56-.419,1.849,1.849,0,0,0,.595-1.385A1.75,1.75,0,0,0,512.1,329.208Zm-.648,2.212a1.6,1.6,0,0,1-.887.191h-.678a.08.08,0,0,1-.081-.08v-1.84a.08.08,0,0,1,.081-.079h.647a1.668,1.668,0,0,1,.911.184,1.006,1.006,0,0,1,.008,1.625Z" transform="translate(-485.52 -328.719)" fill="#1a9432"/>
              <path id="パス_4481" data-name="パス 4481" d="M524.461,329.208a2.319,2.319,0,0,0-1.606-.382H521.4a.161.161,0,0,0-.161.161v5.392a.161.161,0,0,0,.161.161h.607a.161.161,0,0,0,.161-.161v-1.9a.08.08,0,0,1,.081-.08h.693a2.256,2.256,0,0,0,1.561-.419,1.852,1.852,0,0,0,.594-1.385A1.751,1.751,0,0,0,524.461,329.208Zm-.648,2.212a1.592,1.592,0,0,1-.887.191h-.678a.081.081,0,0,1-.081-.08v-1.84a.08.08,0,0,1,.081-.079h.647a1.67,1.67,0,0,1,.911.184,1.005,1.005,0,0,1,.007,1.625Z" transform="translate(-493.457 -328.719)" fill="#1a9432"/>
              <path id="パス_4482" data-name="パス 4482" d="M601.611,328.987a.161.161,0,0,1,.16-.161h.607a.161.161,0,0,1,.161.161v3.41a1.656,1.656,0,0,0,.206.98,1,1,0,0,0,.869.448.965.965,0,0,0,.854-.433,1.623,1.623,0,0,0,.214-1v-3.41a.161.161,0,0,1,.16-.161h.607a.161.161,0,0,1,.161.161v3.41a2.035,2.035,0,0,1-.62,1.749,1.981,1.981,0,0,1-1.364.5,1.95,1.95,0,0,1-2.015-2.249Z" transform="translate(-545.049 -328.719)" fill="#1a9432"/>
              <path id="パス_4483" data-name="パス 4483" d="M635.614,329.753a2.788,2.788,0,0,0-2.346-.927h-1.58a.161.161,0,0,0-.161.161v5.392a.161.161,0,0,0,.161.161h1.642a2.625,2.625,0,0,0,2.911-2.864A2.908,2.908,0,0,0,635.614,329.753Zm-2.244,4h-.906a.081.081,0,0,1-.08-.081v-3.982a.08.08,0,0,1,.08-.079h.913a1.78,1.78,0,0,1,1.467.607,2.334,2.334,0,0,1,.5,1.471A1.845,1.845,0,0,1,633.37,333.754Z" transform="translate(-564.251 -328.719)" fill="#1a9432"/>
              <path id="パス_4484" data-name="パス 4484" d="M586.228,328.527a2.964,2.964,0,1,0,2.964,2.964A2.963,2.963,0,0,0,586.228,328.527Zm0,5.071a2.107,2.107,0,1,1,2.107-2.107A2.107,2.107,0,0,1,586.228,333.6Z" transform="translate(-533.272 -328.527)" fill="#1a9432"/>
              <path id="パス_4485" data-name="パス 4485" d="M536.169,328.527a2.964,2.964,0,1,0,2.964,2.964A2.964,2.964,0,0,0,536.169,328.527Zm0,5.071a2.107,2.107,0,1,1,2.107-2.107A2.107,2.107,0,0,1,536.169,333.6Z" transform="translate(-501.139 -328.527)" fill="#1a9432"/>
              <path id="パス_4486" data-name="パス 4486" d="M676.771,328.527a2.964,2.964,0,1,0,2.964,2.964A2.964,2.964,0,0,0,676.771,328.527Zm0,5.071a2.107,2.107,0,1,1,2.107-2.107A2.107,2.107,0,0,1,676.771,333.6Z" transform="translate(-591.392 -328.527)" fill="#1a9432"/>
              <path id="パス_4487" data-name="パス 4487" d="M620.214,334.379a.161.161,0,0,1-.161.161h-.536a.161.161,0,0,1-.131-.068l-2.86-4.084a.054.054,0,0,0-.044-.023.053.053,0,0,0-.053.053v3.961a.161.161,0,0,1-.16.161h-.536a.161.161,0,0,1-.16-.161v-5.392a.161.161,0,0,1,.16-.161h.536a.161.161,0,0,1,.131.069l2.86,4.084a.055.055,0,0,0,.044.023.054.054,0,0,0,.054-.054v-3.962a.161.161,0,0,1,.161-.161h.536a.161.161,0,0,1,.161.161Z" transform="translate(-554.01 -328.719)" fill="#1a9432"/>
              <path id="パス_4488" data-name="パス 4488" d="M491.977,334.379a.161.161,0,0,1-.161.161h-.536a.161.161,0,0,1-.132-.068l-2.859-4.084a.056.056,0,0,0-.044-.023.053.053,0,0,0-.053.053v3.961a.161.161,0,0,1-.161.161H487.5a.161.161,0,0,1-.161-.161v-5.392a.161.161,0,0,1,.161-.161h.535a.16.16,0,0,1,.132.069l2.86,4.084a.054.054,0,0,0,.044.023.053.053,0,0,0,.053-.054v-3.962a.161.161,0,0,1,.161-.161h.536a.161.161,0,0,1,.161.161Z" transform="translate(-471.694 -328.719)" fill="#1a9432"/>
              <path id="パス_4489" data-name="パス 4489" d="M556.394,334.379a.161.161,0,0,1-.161.161H555.7a.16.16,0,0,1-.132-.068l-2.86-4.084a.053.053,0,0,0-.1.031v3.961a.161.161,0,0,1-.161.161h-.536a.161.161,0,0,1-.161-.161v-5.392a.161.161,0,0,1,.161-.161h.536a.161.161,0,0,1,.132.069l2.859,4.084a.056.056,0,0,0,.044.023.054.054,0,0,0,.053-.054v-3.962a.161.161,0,0,1,.161-.161h.535a.161.161,0,0,1,.161.161Z" transform="translate(-513.044 -328.719)" fill="#1a9432"/>
              <path id="パス_4490" data-name="パス 4490" d="M697,334.379a.161.161,0,0,1-.161.161H696.3a.16.16,0,0,1-.132-.068l-2.859-4.084a.056.056,0,0,0-.044-.023.054.054,0,0,0-.054.053v3.961a.161.161,0,0,1-.161.161h-.535a.161.161,0,0,1-.161-.161v-5.392a.161.161,0,0,1,.161-.161h.535a.159.159,0,0,1,.131.069l2.86,4.084a.056.056,0,0,0,.044.023.054.054,0,0,0,.054-.054v-3.962a.161.161,0,0,1,.161-.161h.535a.161.161,0,0,1,.161.161Z" transform="translate(-603.298 -328.719)" fill="#1a9432"/>
              <path id="パス_4491" data-name="パス 4491" d="M650.241,334.318l-2.224-5.392a.161.161,0,0,0-.148-.1H647.3a.16.16,0,0,0-.148.1l-2.224,5.392a.161.161,0,0,0,.149.222h.648a.161.161,0,0,0,.151-.1l.431-1.148a.16.16,0,0,1,.151-.1h2.259a.16.16,0,0,1,.15.1l.431,1.148a.16.16,0,0,0,.15.1h.648a.161.161,0,0,0,.161-.161A.157.157,0,0,0,650.241,334.318Zm-1.712-1.884a.054.054,0,0,1-.05.035h-1.791a.054.054,0,0,1-.05-.035.051.051,0,0,1,0-.019.06.06,0,0,1,0-.019l.9-2.388a.052.052,0,0,1,.05-.035.053.053,0,0,1,.05.035l.9,2.388a.054.054,0,0,1,0,.019A.046.046,0,0,1,648.528,332.433Z" transform="translate(-572.844 -328.719)" fill="#1a9432"/>
              <path id="パス_4492" data-name="パス 4492" d="M458.584,331.209a.081.081,0,0,1-.081.081h-2.268a.081.081,0,0,1-.081-.081v-2.223a.161.161,0,0,0-.161-.161h-.607a.16.16,0,0,0-.16.161v5.392a.16.16,0,0,0,.16.161h.607a.161.161,0,0,0,.161-.161v-2.223a.08.08,0,0,1,.081-.081H458.5a.08.08,0,0,1,.081.081v2.223a.161.161,0,0,0,.161.161h.607a.161.161,0,0,0,.16-.161v-5.392a.161.161,0,0,0-.16-.161h-.607a.161.161,0,0,0-.161.161Z" transform="translate(-451.084 -328.719)" fill="#1a9432"/>
            </g>
          </g>
          <g id="グループ_6323" data-name="グループ 6323" transform="translate(109.966)">
            <path id="パス_4493" data-name="パス 4493" d="M528.991,235.92" transform="translate(-498.434 -232.644)" fill="#1a9432"/>
            <rect id="長方形_926" data-name="長方形 926" width="6.507" height="2.603" rx="1.302" transform="translate(29.151 23.424)" fill="#1a9432"/>
            <path id="長方形_927" data-name="長方形 927" d="M1.3,0h3.9a1.3,1.3,0,0,1,1.3,1.3v0a1.3,1.3,0,0,1-1.3,1.3H1.3A1.3,1.3,0,0,1,0,1.3v0A1.3,1.3,0,0,1,1.3,0Z" transform="translate(87.192 23.423)" fill="#1a9432"/>
            <g id="グループ_6315" data-name="グループ 6315" transform="translate(28.436 1.041)">
              <path id="パス_4494" data-name="パス 4494" d="M543.5,236.369a1.954,1.954,0,0,1-.117.668l-1.918,5.269a.584.584,0,0,1-.55.386h-1.942a.293.293,0,0,1-.293-.293.284.284,0,0,1,.018-.1l2.129-5.85a1.162,1.162,0,0,0,.071-.4v-5.785a.586.586,0,0,1,.586-.586h1.431a.586.586,0,0,1,.586.586Z" transform="translate(-533.087 -229.678)" fill="#1a9432"/>
              <rect id="長方形_928" data-name="長方形 928" width="2.602" height="6.507" rx="1.301" transform="translate(0 0)" fill="#1a9432"/>
            </g>
            <g id="グループ_6316" data-name="グループ 6316" transform="translate(13.599 1.041)">
              <path id="長方形_929" data-name="長方形 929" d="M1.3,0H9.109a1.3,1.3,0,0,1,1.3,1.3v0a1.3,1.3,0,0,1-1.3,1.3H1.3A1.3,1.3,0,0,1,0,1.3v0A1.3,1.3,0,0,1,1.3,0Z" transform="translate(1.302)" fill="#1a9432"/>
              <path id="パス_4495" data-name="パス 4495" d="M492.421,249.305a.585.585,0,0,1-.55.386h-1.943a.292.292,0,0,1-.275-.393l2.13-5.852a.2.2,0,0,0,.013-.067.2.2,0,0,0-.2-.2h-9.38a.586.586,0,0,1-.586-.586v-1.431a.585.585,0,0,1,.586-.585h11.842a.585.585,0,0,1,.586.585v1.672a1.946,1.946,0,0,1-.117.668Z" transform="translate(-481.635 -236.677)" fill="#1a9432"/>
            </g>
            <g id="グループ_6317" data-name="グループ 6317" transform="translate(40.861 1.041)">
              <path id="長方形_930" data-name="長方形 930" d="M1.3,0H5.2a1.3,1.3,0,0,1,1.3,1.3v0a1.3,1.3,0,0,1-1.3,1.3H1.3A1.3,1.3,0,0,1,0,1.3v0A1.3,1.3,0,0,1,1.3,0Z" fill="#1a9432"/>
              <path id="パス_4496" data-name="パス 4496" d="M570.636,237.339a.293.293,0,0,0-.275-.393h-1.942a.585.585,0,0,0-.549.386L565.26,244.5a.39.39,0,0,1-.366.257H558.35a.585.585,0,0,0-.585.585v1.431a.586.586,0,0,0,.585.586h8.229a.584.584,0,0,0,.55-.386Z" transform="translate(-557.765 -234.343)" fill="#1a9432"/>
            </g>
            <g id="グループ_6318" data-name="グループ 6318" transform="translate(68.647 4.945)">
              <path id="長方形_931" data-name="長方形 931" d="M1.3,0h0A1.3,1.3,0,0,1,2.6,1.3V2.6A1.3,1.3,0,0,1,1.3,3.9h0A1.3,1.3,0,0,1,0,2.6V1.3A1.3,1.3,0,0,1,1.3,0Z" fill="#1a9432"/>
              <rect id="長方形_932" data-name="長方形 932" width="2.603" height="3.904" rx="1.301" transform="translate(3.904)" fill="#1a9432"/>
              <path id="パス_4497" data-name="パス 4497" d="M648.716,249.691a.585.585,0,0,0,.55-.386l1.444-3.968a1.949,1.949,0,0,0,.117-.668v-3.5a.585.585,0,0,0-.586-.585H648.81a.585.585,0,0,0-.586.585v3.182a1.157,1.157,0,0,1-.07.4l-.758,2.082a.389.389,0,0,1-.366.257h-3.816a.585.585,0,0,0-.585.585v1.431a.585.585,0,0,0,.585.586Z" transform="translate(-640.026 -240.581)" fill="#1a9432"/>
            </g>
            <g id="グループ_6319" data-name="グループ 6319" transform="translate(61.553 18.219)">
              <path id="長方形_933" data-name="長方形 933" d="M1.3,0H5.205a1.3,1.3,0,0,1,1.3,1.3v0a1.3,1.3,0,0,1-1.3,1.3H1.3A1.3,1.3,0,0,1,0,1.3v0A1.3,1.3,0,0,1,1.3,0Z" fill="#1a9432"/>
              <path id="パス_4498" data-name="パス 4498" d="M628.418,285.31a.293.293,0,0,0-.275-.393H626.2a.586.586,0,0,0-.55.386l-2.608,7.165a.392.392,0,0,1-.367.257h-6.543a.584.584,0,0,0-.585.585v1.432a.585.585,0,0,0,.585.585h8.229a.585.585,0,0,0,.55-.385Z" transform="translate(-615.548 -282.314)" fill="#1a9432"/>
            </g>
            <path id="パス_4499" data-name="パス 4499" d="M678.584,232.542a.2.2,0,0,0,.012-.066.2.2,0,0,0-.2-.2h-4.555a.391.391,0,0,0-.366.257l-1.188,3.262a.584.584,0,0,1-.55.385H669.8a.292.292,0,0,1-.275-.393l2.086-5.729a.585.585,0,0,1,.549-.385h9.818a.293.293,0,0,1,.293.293.289.289,0,0,1-.018.1L677.8,242.306a.585.585,0,0,1-.55.386h-1.943a.292.292,0,0,1-.292-.293.286.286,0,0,1,.018-.1Z" transform="translate(-588.631 -228.637)" fill="#1a9432"/>
            <path id="パス_4500" data-name="パス 4500" d="M659.79,285.719a.186.186,0,0,0,.012-.066.2.2,0,0,0-.2-.2h-1.984a.586.586,0,0,1-.585-.586V283.44a.585.585,0,0,1,.585-.586h2.936a.39.39,0,0,0,.367-.257l.758-2.083a.189.189,0,0,0,.013-.067.2.2,0,0,0-.2-.2h-4.555a.39.39,0,0,0-.366.257l-1.187,3.262a.586.586,0,0,1-.55.386H652.9a.293.293,0,0,1-.293-.293.289.289,0,0,1,.018-.1l2.086-5.728a.584.584,0,0,1,.55-.386h9.818a.293.293,0,0,1,.293.293.3.3,0,0,1-.018.1L660.9,290.277a.586.586,0,0,1-.55.385h-1.942a.292.292,0,0,1-.275-.393Z" transform="translate(-577.784 -259.43)" fill="#1a9432"/>
            <path id="パス_4501" data-name="パス 4501" d="M454.72,283.147a.293.293,0,0,1,.293-.293h1.074a.585.585,0,0,0,.586-.585v-1.432a.586.586,0,0,0-.586-.586h-1.074a.292.292,0,0,1-.293-.292v-1.725a.586.586,0,0,0-.586-.585H452.7a.586.586,0,0,0-.585.585v1.725a.292.292,0,0,1-.293.292h-3.319a.292.292,0,0,1-.293-.292v-1.725a.585.585,0,0,0-.586-.585H446.2a.586.586,0,0,0-.586.585v1.724a.293.293,0,0,1-.293.293h-1.074a.586.586,0,0,0-.586.586v1.432a.586.586,0,0,0,.586.585h1.074a.293.293,0,0,1,.293.293v1.724a.586.586,0,0,0,.586.586h1.431a.586.586,0,0,0,.586-.586v-1.724a.293.293,0,0,1,.293-.293h3.319a.293.293,0,0,1,.293.293v2.8a.388.388,0,0,1-.114.276l-3.94,3.94a.293.293,0,0,0,.207.5H451a.581.581,0,0,0,.414-.171l2.962-2.962a1.168,1.168,0,0,0,.343-.829Z" transform="translate(-443.658 -259.43)" fill="#1a9432"/>
            <path id="パス_4502" data-name="パス 4502" d="M556.482,285.457a.586.586,0,0,0,.586-.586V283.44a.586.586,0,0,0-.586-.586h-5.628a.293.293,0,0,1-.293-.293v-4.327a.585.585,0,0,0-.585-.585h-1.432a.586.586,0,0,0-.586.585v11.842a.586.586,0,0,0,.586.586h1.432a.585.585,0,0,0,.585-.586V285.75a.293.293,0,0,1,.293-.293Z" transform="translate(-510.609 -259.43)" fill="#1a9432"/>
            <path id="パス_4503" data-name="パス 4503" d="M466.017,243.369a1.937,1.937,0,0,0,.117.667l1.917,5.269a.585.585,0,0,0,.55.386h1.943a.293.293,0,0,0,.293-.293.281.281,0,0,0-.018-.1l-2.129-5.849a1.172,1.172,0,0,1-.071-.4v-1.88a.585.585,0,0,0-.585-.585H466.6a.585.585,0,0,0-.586.585Z" transform="translate(-458.01 -235.637)" fill="#1a9432"/>
            <g id="グループ_6320" data-name="グループ 6320" transform="translate(0.063)">
              <path id="パス_4504" data-name="パス 4504" d="M466.017,243.369a1.937,1.937,0,0,0,.117.667l1.917,5.269a.585.585,0,0,0,.55.386h1.943a.293.293,0,0,0,.293-.293.281.281,0,0,0-.018-.1l-2.129-5.849a1.172,1.172,0,0,1-.071-.4v-1.88a.585.585,0,0,0-.585-.585H466.6a.585.585,0,0,0-.586.585Z" transform="translate(-458.073 -235.637)" fill="#1a9432"/>
              <path id="パス_4505" data-name="パス 4505" d="M448.654,236.37a1.938,1.938,0,0,1-.117.667l-1.918,5.269a.584.584,0,0,1-.55.386h-1.943a.292.292,0,0,1-.292-.293.289.289,0,0,1,.018-.1l2.129-5.849a1.17,1.17,0,0,0,.071-.4v-5.785a.586.586,0,0,1,.586-.586h1.431a.586.586,0,0,1,.586.586Z" transform="translate(-443.834 -228.637)" fill="#1a9432"/>
              <path id="パス_4506" data-name="パス 4506" d="M470.875,226.772a1.952,1.952,0,1,0,1.952,1.952A1.952,1.952,0,0,0,470.875,226.772Zm0,2.472a.52.52,0,1,1,.521-.52A.52.52,0,0,1,470.875,229.244Z" transform="translate(-459.939 -226.772)" fill="#1a9432"/>
            </g>
            <g id="グループ_6321" data-name="グループ 6321" transform="translate(55.308)">
              <path id="パス_4507" data-name="パス 4507" d="M601,240.089a.293.293,0,0,1-.293-.293v-3.318a.293.293,0,0,1,.293-.293h7.581a.586.586,0,0,0,.586-.586v-1.431a.585.585,0,0,0-.586-.585H601a.293.293,0,0,1-.293-.293v-3.026a.586.586,0,0,0-.586-.586h-1.431a.586.586,0,0,0-.586.586v11.842a.586.586,0,0,0,.586.586h9.89a.586.586,0,0,0,.586-.586v-1.431a.586.586,0,0,0-.586-.585Z" transform="translate(-598.109 -228.637)" fill="#1a9432"/>
              <path id="パス_4508" data-name="パス 4508" d="M625.5,226.772a1.952,1.952,0,1,0,1.952,1.952A1.951,1.951,0,0,0,625.5,226.772Zm0,2.472a.521.521,0,1,1,.521-.521A.52.52,0,0,1,625.5,229.244Z" transform="translate(-614.44 -226.772)" fill="#1a9432"/>
            </g>
            <g id="グループ_6322" data-name="グループ 6322" transform="translate(14.576 17.178)">
              <path id="長方形_934" data-name="長方形 934" d="M1.3,0h0A1.3,1.3,0,0,1,2.6,1.3V3.9A1.3,1.3,0,0,1,1.3,5.2h0A1.3,1.3,0,0,1,0,3.9V1.3A1.3,1.3,0,0,1,1.3,0Z" transform="translate(0 8.85)" fill="#1a9432"/>
              <path id="長方形_935" data-name="長方形 935" d="M1.3,0h0A1.3,1.3,0,0,1,2.6,1.3V3.9A1.3,1.3,0,0,1,1.3,5.2h0A1.3,1.3,0,0,1,0,3.9V1.3A1.3,1.3,0,0,1,1.3,0Z" transform="translate(10.411 8.85)" fill="#1a9432"/>
              <path id="パス_4509" data-name="パス 4509" d="M492.462,280.252a.293.293,0,0,1-.293-.293v-1.724a.585.585,0,0,0-.586-.585h-1.431a.585.585,0,0,0-.586.585v1.724a.293.293,0,0,1-.293.293h-4.327a.586.586,0,0,0-.585.586v1.432a.586.586,0,0,0,.585.585h4.327a.293.293,0,0,1,.293.293v6.93a.586.586,0,0,0,.586.586h1.431a.585.585,0,0,0,.586-.586v-6.929a.293.293,0,0,1,.293-.293h4.327a.585.585,0,0,0,.585-.585v-1.432a.586.586,0,0,0-.585-.586Z" transform="translate(-484.361 -276.608)" fill="#1a9432"/>
              <path id="パス_4510" data-name="パス 4510" d="M511.753,274.742a1.952,1.952,0,1,0,1.952,1.952A1.952,1.952,0,0,0,511.753,274.742Zm0,2.473a.52.52,0,1,1,.521-.521A.521.521,0,0,1,511.753,277.215Z" transform="translate(-500.691 -274.742)" fill="#1a9432"/>
            </g>
            <path id="パス_4511" data-name="パス 4511" d="M581.153,280.251a.293.293,0,0,1-.293-.293v-1.725a.586.586,0,0,0-.586-.585h-1.431a.586.586,0,0,0-.586.585v1.725a.293.293,0,0,1-.293.293h-1.074a.586.586,0,0,0-.586.585v1.431a.586.586,0,0,0,.586.585h1.074a.293.293,0,0,1,.293.293v6.929a.586.586,0,0,0,.586.586h8.2a.586.586,0,0,0,.586-.586v-1.431a.586.586,0,0,0-.586-.586h-5.888a.293.293,0,0,1-.293-.293v-4.62a.293.293,0,0,1,.293-.293h4.171a.2.2,0,0,1,.195.2.188.188,0,0,1-.012.067l-.709,1.948a.274.274,0,0,0-.018.1.292.292,0,0,0,.292.293h1.943a.585.585,0,0,0,.55-.385l1.611-4.427a.3.3,0,0,0,.018-.1.293.293,0,0,0-.292-.293Z" transform="translate(-528.805 -259.43)" fill="#1a9432"/>
          </g>
        </g>
      </g>
    </g>
  </g>
</svg>
