<svg xmlns="http://www.w3.org/2000/svg" width="391.483" height="94.535" viewBox="0 0 391.483 94.535">
  <g id="logo-l" transform="translate(-583 -86.841)">
    <g id="グループ_6911" data-name="グループ 6911" transform="translate(932.565 92.075)">
      <path id="パス_4704" data-name="パス 4704" d="M469.238,532.154l18.371-1.927s4.074-.243,6.635.817,4.485,3.419,4.411,8.107a21.556,21.556,0,0,1-2.164,8.664,19.653,19.653,0,0,1-6.257,6.993,7.51,7.51,0,0,1,4.266,4.1c1.194,2.965.891,7.808-.575,11.8a19.435,19.435,0,0,1-10.474,11.306,14.483,14.483,0,0,1-5.817,1.355h-20.9ZM486.4,546.987c.454-.886,1.4-3.755.7-4.926s-1.894-1.245-3.57-1.127c-4.659.328-5.908.438-5.908.438l-2.485,10.819a17.364,17.364,0,0,0,7.157-.958,9.05,9.05,0,0,0,4.108-4.246Zm-5.41,14.419-8.058.27-2.79,11.592s7.6,1.083,11.128-2.495a8.746,8.746,0,0,0,2.837-6.2,2.854,2.854,0,0,0-2.5-3.168,2.908,2.908,0,0,0-.619-.005Z" transform="translate(-456.74 -530.203)" fill="#2d2f33"/>
    </g>
    <path id="パス_4705" data-name="パス 4705" d="M433.093,535.211,419.506,583.2h31.545l2.439-10.01-20.446.342,2.7-10.047,16.685-.646,2.4-10.014-16.447,1.056,2.831-10.6,19.968-1.432,2.248-9.23Z" transform="translate(473.036 -437.947)" fill="#2d2f33"/>
    <path id="パス_4706" data-name="パス 4706" d="M428.19,535.657l-8.865.811L403.76,567.12l.468-29.323-12.411,1.108L376.7,567.12l.055-26.874-10.23.913v-.045l-.491.045,1.1,41.829h11.077l17.122-29.929.461,29.929h11.072l23.957-47.565Z" transform="translate(469.03 -437.737)" fill="#2d2f33"/>
    <path id="パス_4694" data-name="パス 4694" d="M139.5,582.031l-7.967-6.914.354-.272A86.423,86.423,0,0,0,144.7,562.671a88.656,88.656,0,0,0,10.076-14.108l.206-.359,8.552,6.787-.2.284a144.781,144.781,0,0,1-10.4,13.413h0a136.7,136.7,0,0,1-13.217,13.143Z" transform="translate(451.464 -436.779)" fill="#2d2f33"/>
    <path id="パス_4695" data-name="パス 4695" d="M180.911,573.613l-.183-.427c-2.754-6.492-7.852-15.541-13.025-21.115l-.275-.3,9.426-7.215.218.255a93.129,93.129,0,0,1,13.574,20.879l.126.267Z" transform="translate(454.153 -437.052)" fill="#2d2f33"/>
    <path id="パス_4696" data-name="パス 4696" d="M206.272,542.649l1.019-10.042,35.214-2.915-1.021,10.042Z" transform="translate(457.062 -438.166)" fill="#2d2f33"/>
    <path id="パス_4697" data-name="パス 4697" d="M208.556,586.008l-6.251-8.179.373-.2A151.582,151.582,0,0,0,222.45,564.1a44.128,44.128,0,0,0,9.376-10.812c-2.049.221-5.077.491-8.522.8l-4.354.393c-3.6.3-9.285.828-13.858,1.252-2.133.2-3.986.373-5.194.482l-.43.038.972-10.131,43.047-3.526,4.861,6.16-.231.326c-4.96,7-9.245,13.047-15.412,18.855a159.867,159.867,0,0,1-23.876,17.913Z" transform="translate(456.553 -437.199)" fill="#2d2f33"/>
    <path id="パス_4698" data-name="パス 4698" d="M185.241,546.95a5.63,5.63,0,0,1-4.475-2.053,6.648,6.648,0,0,1-1.2-5.536c.775-4.076,4.54-7.4,8.394-7.4h.006a5.732,5.732,0,0,1,4.558,2.077,6.543,6.543,0,0,1,1.194,5.448,9.122,9.122,0,0,1-8.111,7.435v.027h-.357Zm2.07-10.615h-.019a3.855,3.855,0,0,0-3.525,3.159,2.334,2.334,0,0,0,1.413,2.877,2.569,2.569,0,0,0,.77.134,3.826,3.826,0,0,0,3.561-3.154,2.684,2.684,0,0,0-.445-2.233,2.206,2.206,0,0,0-1.755-.784Z" transform="translate(455.049 -437.996)" fill="#2d2f33"/>
    <path id="パス_4699" data-name="パス 4699" d="M295.517,542.09c1.033-5.024,2.214-10.721,2.839-13.574l.106-.492-10.9,1.137-.045.274c-.606,3.753-1.52,8.6-2.327,12.87l-.164.819-9.78.966.023-.131c.859-4.656,1.658-8.535,2.192-10.636l.128-.506-10.848,1.131-.044.274c-.312,1.883-.984,6.1-1.73,10.881L252.919,546.3l-.295.029-1,10.384,11.72-1.18c-.688,4.427-1.279,8.25-1.535,9.984l-.07.464,10.032-1.03.04-.283c.364-2.656,1.01-6.451,1.64-10.154l9.425-.948a35.039,35.039,0,0,1-6.037,13.171c-3.095,4.178-8.256,8.924-15.344,14.1l-.4.295,8.154,5.943.211-.162a82.288,82.288,0,0,0,15.868-16.173,47.709,47.709,0,0,0,8.023-18.234l12.574-1.265.3-.03,1.008-10.283Z" transform="translate(460.46 -438.291)" fill="#2d2f33"/>
    <path id="パス_4700" data-name="パス 4700" d="M319.073,563.327l-5.62-5.857-.231.3a71.09,71.09,0,0,1-11.7,12.066l-.27.219,5.727,6.67.244-.22a80.38,80.38,0,0,0,11.679-12.951Z" transform="translate(464.178 -436.085)" fill="#2d2f33"/>
    <path id="パス_4701" data-name="パス 4701" d="M345.928,556.617l-.248-.257-8.073,8.037-.249.252.24.258a44.4,44.4,0,0,1,8.164,12.534l.19.439,9.451-7.892-.131-.262A53.66,53.66,0,0,0,345.928,556.617Z" transform="translate(466.882 -436.168)" fill="#2d2f33"/>
    <path id="パス_4702" data-name="パス 4702" d="M339.858,544.745c1.483-7.364,2.715-13.377,3.049-14.7l.126-.505-11.324,1.18-.046.274c-.442,2.7-1.441,8.519-2.524,14.739l-19.148,1.756-.961,9.947-.045.438,18.325-1.7c-.984,5.556-1.792,10.095-2.024,11.257-1.45,7.221-1.574,7.431-4.633,7.431a44.148,44.148,0,0,1-4.721-.317l-.5-.062,2.362,10.486h.285c.4,0,.935.025,1.545.051.812.035,1.753.076,2.684.076,6.295,0,9.729-1.2,11.045-7.757l1.318-6.609c.862-4.339,1.967-9.907,3.091-15.528l19.466-1.812.3-.028.96-9.885.045-.437Z" transform="translate(464.757 -438.178)" fill="#2d2f33"/>
    <path id="パス_4703" data-name="パス 4703" d="M350.25,540.325a5.634,5.634,0,0,1-4.474-2.053,6.259,6.259,0,0,1-1.349-4,8.331,8.331,0,0,1,.148-1.533c.773-4.076,4.542-7.4,8.4-7.4h.009a5.72,5.72,0,0,1,4.554,2.078,6.176,6.176,0,0,1,1.338,3.957,8.06,8.06,0,0,1-.143,1.49,9.12,9.12,0,0,1-8.112,7.435v.027h-.358Zm-1.574-6.762a2.329,2.329,0,0,0,1.517,2.184,2.157,2.157,0,0,0,.75.134h.02a3.824,3.824,0,0,0,3.56-3.154,3.379,3.379,0,0,0,.067-.665,2.456,2.456,0,0,0-.511-1.568,2.214,2.214,0,0,0-1.756-.787H352.3a3.852,3.852,0,0,0-3.521,3.16,2.264,2.264,0,0,0-.108.694Z" transform="translate(467.412 -438.493)" fill="#2d2f33"/>
    <path id="パス_4769" data-name="パス 4769" d="M54.154,317.874c-.154.4-.6,2.007-.752,2.554a16.267,16.267,0,0,1-3.435,6.436l-1.743-.8a12.978,12.978,0,0,0,2.769-4.046,16.257,16.257,0,0,0,1.435-5.441l1.966.514c.1.033.427.133.427.316C54.821,317.625,54.564,317.725,54.154,317.874Zm7.229,8.376a15.741,15.741,0,0,0-1.4-4.594,25.352,25.352,0,0,0-2.6-4.131l1.419-.879a21.722,21.722,0,0,1,2.649,4.081,15.835,15.835,0,0,1,1.811,4.909Zm1.009-8.807a1.8,1.8,0,1,1,0-3.6,1.8,1.8,0,1,1,0,3.6Zm.017-2.6a.809.809,0,0,0-.821.8.821.821,0,1,0,1.641-.017A.794.794,0,0,0,62.409,314.839Z" transform="translate(570.776 -147.694)" fill="#2d2f33"/>
    <path id="パス_4770" data-name="パス 4770" d="M78.461,321.224a14.863,14.863,0,0,1-2.837,4.114,15.217,15.217,0,0,1-5.264,3.151l-1.367-1.476a9.545,9.545,0,0,0,4.119-1.692,10.942,10.942,0,0,0,4.05-5.307H71.745c-1.282,0-3.641.066-4.871.2v-1.791a7.028,7.028,0,0,0,.906.133c.82.05,2.409.066,3.093.066h4.085c.546,0,1.726-.033,2.221-.082a2.051,2.051,0,0,0,1.077-.366l1.333,1.311A5.867,5.867,0,0,0,78.461,321.224Zm-3.982-4.909H71.728a22.422,22.422,0,0,0-2.786.149v-1.642c.957.116,2.358.149,2.786.149h2.751a22.97,22.97,0,0,0,2.82-.149v1.642A26.719,26.719,0,0,0,74.479,316.315Z" transform="translate(570.776 -147.694)" fill="#2d2f33"/>
    <path id="パス_4771" data-name="パス 4771" d="M86.122,315.917c-.018.5-.018,1.559-.018,2.073v2.4c0,.5.086,2.272.12,2.77H84.293a21.387,21.387,0,0,0,.137-2.787v-2.7c0-.647-.017-2.007-.052-2.621l1.709.1c.376.016.513.116.513.315C86.6,315.635,86.361,315.784,86.122,315.917Zm7.673-.448a1.28,1.28,0,0,0-.308.249c-.034.8-.085,4.3-.119,4.992a7.672,7.672,0,0,1-2.273,5.54,13.586,13.586,0,0,1-3.487,2.272l-1.452-1.476a7.1,7.1,0,0,0,3.554-1.725c2.034-1.708,2.034-3.781,2.034-7.8,0-1.89,0-1.99-.034-2.769l1.76.116c.188.016.462.033.462.332A.294.294,0,0,1,93.795,315.469Z" transform="translate(570.776 -147.694)" fill="#2d2f33"/>
    <path id="パス_4772" data-name="パス 4772" d="M100.26,327.395c-.034.066-.12.331-.154.381a.2.2,0,0,1-.188.1c-.12,0-.171-.066-.359-.4l-.923-1.726c2.632-.348,8.784-2.952,12.031-7.016l.684,1.609C108,324.177,102.618,326.416,100.26,327.395Zm2.375-8.559a14.385,14.385,0,0,0-3.725-2.289l.94-1.493a12.552,12.552,0,0,1,3.759,2.306Z" transform="translate(570.776 -147.694)" fill="#2d2f33"/>
    <path id="パス_4773" data-name="パス 4773" d="M121.182,327.942c-.478,0-3.042-.033-4-.63a2.335,2.335,0,0,1-.974-1.576,8.083,8.083,0,0,1-.068-1.609v-4.279c0-.979,0-1.526-.1-4.827l1.931.315c.445.116.5.116.5.315,0,.1-.034.15-.393.5-.171,1.891-.205,3.566-.205,3.715v.448a24.872,24.872,0,0,0,7.844-2.471l1.008,1.642c0,.033.086.149.086.248a.213.213,0,0,1-.222.216.889.889,0,0,1-.428-.149c-5.246,1.542-6.477,1.891-8.288,1.973v3.235c0,.8.359,1.476,3.366,1.476a15.584,15.584,0,0,0,5.777-.779v1.824A43.591,43.591,0,0,1,121.182,327.942Zm5.982-10.367a1.793,1.793,0,1,1,1.862-1.774A1.826,1.826,0,0,1,127.164,317.575Zm0-2.571a.8.8,0,1,0,0,1.593.8.8,0,1,0,0-1.593Z" transform="translate(570.776 -147.694)" fill="#2d2f33"/>
    <path id="パス_4774" data-name="パス 4774" d="M133.355,322.418a11.1,11.1,0,0,0-1.5-2.62l1.282-.415a12.54,12.54,0,0,1,1.5,2.571Zm9.023-2.7a.6.6,0,0,0-.324.2c-.052.083-.547,1.692-.667,2.007a11.171,11.171,0,0,1-6.186,6.568l-1.128-1.011a9.836,9.836,0,0,0,4.665-3.434,11.893,11.893,0,0,0,1.983-5.374l1.333.481c.342.116.529.232.529.365C142.583,319.632,142.5,319.682,142.378,319.715Zm-5.673,1.991a8.812,8.812,0,0,0-1.453-2.654l1.282-.432a10.987,10.987,0,0,1,1.452,2.687Z" transform="translate(570.776 -147.694)" fill="#2d2f33"/>
    <path id="パス_4775" data-name="パス 4775" d="M158.037,318.289c-1.35,3.815-3.367,7.911-8.2,10.4l-1.521-1.194a12.125,12.125,0,0,0,5.315-4,12.86,12.86,0,0,0,2.6-5.457H151a18.085,18.085,0,0,1-3.367,3.914l-1.4-.962a12.631,12.631,0,0,0,3.008-3.2,11.593,11.593,0,0,0,1.658-3.218l1.862.8c.12.05.24.116.24.233,0,.166-.205.265-.274.282a.829.829,0,0,0-.495.248c-.206.2-.188.266-.445.681h2.7c2.068,0,2.325-.1,2.786-.333l1.265,1.294C158.259,318.056,158.242,318.073,158.037,318.289Z" transform="translate(570.776 -147.694)" fill="#2d2f33"/>
    <path id="パス_4776" data-name="パス 4776" d="M163.664,328.788a11.189,11.189,0,0,0-3.538-3.4l1.179-1.128a16.27,16.27,0,0,1,3.674,3.168Z" transform="translate(570.776 -147.694)" fill="#2d2f33"/>
    <path id="パス_4777" data-name="パス 4777" d="M176.553,317.874c-.154.4-.6,2.007-.752,2.554a16.267,16.267,0,0,1-3.435,6.436l-1.743-.8a12.977,12.977,0,0,0,2.768-4.046,16.282,16.282,0,0,0,1.436-5.441l1.965.514c.1.033.427.133.427.316C177.219,317.625,176.963,317.725,176.553,317.874Zm7.229,8.376a15.749,15.749,0,0,0-1.4-4.594,25.4,25.4,0,0,0-2.6-4.131l1.418-.879a21.722,21.722,0,0,1,2.649,4.081,15.814,15.814,0,0,1,1.812,4.909Zm1.008-8.807a1.8,1.8,0,1,1,0-3.6,1.8,1.8,0,1,1,0,3.6Zm.017-2.6a.809.809,0,0,0-.82.8.82.82,0,1,0,1.64-.017A.794.794,0,0,0,184.807,314.839Z" transform="translate(570.776 -147.694)" fill="#2d2f33"/>
    <path id="パス_4778" data-name="パス 4778" d="M200.688,321.224a14.881,14.881,0,0,1-2.836,4.114,15.236,15.236,0,0,1-5.264,3.151l-1.367-1.476a9.536,9.536,0,0,0,4.118-1.692,10.945,10.945,0,0,0,4.051-5.307h-5.418c-1.282,0-3.64.066-4.87.2v-1.791a7.008,7.008,0,0,0,.9.133c.821.05,2.41.066,3.094.066h4.084c.547,0,1.726-.033,2.222-.082a2.043,2.043,0,0,0,1.076-.366l1.333,1.311A5.867,5.867,0,0,0,200.688,321.224Zm-3.981-4.909h-2.752a22.422,22.422,0,0,0-2.786.149v-1.642c.957.116,2.359.149,2.786.149h2.752a22.964,22.964,0,0,0,2.819-.149v1.642A26.7,26.7,0,0,0,196.707,316.315Z" transform="translate(570.776 -147.694)" fill="#2d2f33"/>
    <path id="パス_4779" data-name="パス 4779" d="M216.484,327.527a17.315,17.315,0,0,0-4.375-4.545,18.057,18.057,0,0,1-6.323,4.579l-1.282-1.477a14.5,14.5,0,0,0,4.443-2.338,15.1,15.1,0,0,0,4.632-6.37h-3.042a38.209,38.209,0,0,0-4.136.183V315.9c.547.05,2.649.133,3.349.133h2.513a10.676,10.676,0,0,0,2.05-.083,1.849,1.849,0,0,0,.838-.382l1.265,1.361c-.325.215-.428.3-.821.58a35.065,35.065,0,0,1-2.529,4.262,21.015,21.015,0,0,1,4.8,4.562Z" transform="translate(570.776 -147.694)" fill="#2d2f33"/>
    <path id="パス_4780" data-name="パス 4780" d="M222.385,326.184l-1.47-1.112a15.7,15.7,0,0,0,3.521-3.9l1.4.812A17.34,17.34,0,0,1,222.385,326.184Zm7.776-6.569H229.1v3.567c0,.58,0,1.973.017,2.5.017.564.051,1.426-.683,1.825a5.64,5.64,0,0,1-2.923.447l-.683-1.874a6.33,6.33,0,0,0,1.213.166c1.248,0,1.418-.332,1.418-1.211v-5.424h-1.452c-1.4,0-2.8.033-4.2.15v-1.642c1.452.116,3.554.149,4.2.149h1.435a16,16,0,0,0-.222-3.417l2.154.3c.324.05.478.1.478.315a.357.357,0,0,1-.222.265,1.2,1.2,0,0,0-.359.216,14.761,14.761,0,0,0-.154,2.322h1.043c1.418,0,2.819-.033,4.238-.149v1.642C232.57,319.615,230.314,319.615,230.161,319.615Zm3.332,6.369a12.81,12.81,0,0,0-3.2-3.914l1.3-.962a15.545,15.545,0,0,1,3.469,3.914Zm.65-8.707a1.792,1.792,0,1,1,1.845-1.792A1.818,1.818,0,0,1,234.143,317.277Zm.017-2.6a.8.8,0,1,0,.82.8A.824.824,0,0,0,234.16,314.673Z" transform="translate(570.776 -147.694)" fill="#2d2f33"/>
    <path id="パス_4781" data-name="パス 4781" d="M246.657,322.236h-3.8c-.215,0-2.7,0-4.362.2v-1.808a31.661,31.661,0,0,0,4.362.2h3.8a34.665,34.665,0,0,0,4.362-.2v1.808A39.337,39.337,0,0,0,246.657,322.236Z" transform="translate(570.776 -147.694)" fill="#2d2f33"/>
    <path id="パス_4782" data-name="パス 4782" d="M255.933,320.113a10.835,10.835,0,0,0-1.812-3.35l1.589-.581a10.489,10.489,0,0,1,1.846,3.384Zm11.057-3.019a19.25,19.25,0,0,1-2.974,6.22A15.431,15.431,0,0,1,258,327.759l-1.5-1.36a8.98,8.98,0,0,0,3.537-1.675,11.427,11.427,0,0,0,4.273-5.291,9.318,9.318,0,0,0,.94-3.9l1.931.747c.342.133.495.232.495.364C267.673,316.813,267.605,316.846,266.99,317.094Zm-6.853,2.223a8.679,8.679,0,0,0-1.743-3.466l1.657-.515a9.048,9.048,0,0,1,1.761,3.467Z" transform="translate(570.776 -147.694)" fill="#2d2f33"/>
    <path id="パス_4783" data-name="パス 4783" d="M279.778,327.925l-1.3-1.377a7.221,7.221,0,0,0,3.794-1.907,5.816,5.816,0,0,0,1.3-3.715,4.3,4.3,0,0,0-2.649-3.882,4.613,4.613,0,0,0-2.341-.481,27.324,27.324,0,0,1-2.137,8.045c-.324.68-1.179,2.471-2.153,2.471a2.283,2.283,0,0,1-1.453-.563,5.675,5.675,0,0,1-2.085-4.462,6.443,6.443,0,0,1,1.863-4.562,7.37,7.37,0,0,1,5.606-2.338,6.981,6.981,0,0,1,5.366,2.073,5.793,5.793,0,0,1,1.538,3.964A6.851,6.851,0,0,1,279.778,327.925Zm-3.2-11.179a5.506,5.506,0,0,0-4.307,5.308c0,1.476.94,3.035,1.658,3.035.6,0,1.043-.995,1.248-1.443a22.987,22.987,0,0,0,1.845-6.95Z" transform="translate(570.776 -147.694)" fill="#2d2f33"/>
    <path id="パス_4784" data-name="パス 4784" d="M290.31,323.944a13.728,13.728,0,0,1-.8,3.8l-1.572-.5a10.071,10.071,0,0,0,.888-4.213l1.487.216c.154.017.342.1.342.282C290.652,323.7,290.515,323.812,290.31,323.944Zm8.1-8.608a9.006,9.006,0,0,1-2.188,2.787l-1.247-.83c-.018.034-.052.067-.154.1-.1.017-.547.066-.633.083-.222.282-1.247,1.543-1.452,1.774-.325.382-1.282,1.377-1.4,1.477,1.094-.083,1.5-.116,2.017-.183-.171-.332-.308-.547-.5-.846l1.351-.564a9.306,9.306,0,0,1,1.281,2.9l-1.435.448a6.091,6.091,0,0,0-.24-.813c-.461.083-.7.1-1.435.216v3.649a32.035,32.035,0,0,0,.171,3.4h-1.8c.154-1.493.171-3.351.171-3.417v-3.466c-.547.066-1.452.166-2.068.216-.051.132-.153.4-.41.4-.222,0-.256-.132-.29-.48l-.12-1.344c.393,0,.479,0,1.316-.017.957-.945,1.2-1.194,1.538-1.592a10.584,10.584,0,0,0-2.7-1.957l.871-1.228a10.1,10.1,0,0,1,.872.514,13.015,13.015,0,0,0,1.658-2.653l1.538.879c.085.05.171.1.171.215,0,.266-.188.283-.65.3a15.988,15.988,0,0,1-1.657,2.024,11.1,11.1,0,0,1,.888.729,14.5,14.5,0,0,0,1.47-2.09l1.5.979c.154.1.154.133.171.2a9.284,9.284,0,0,0,2.2-3.1l1.487.78c.222.116.274.133.274.249C298.992,315.287,298.855,315.3,298.411,315.336Zm-4.9,11.113a8.264,8.264,0,0,0-.855-3.267l1.436-.4A8.2,8.2,0,0,1,295.01,326Zm3.332-1.741a8.682,8.682,0,0,1-1.145,3.632l-1.469-.6a5.476,5.476,0,0,0,1.213-3.865l1.436.249c.136.017.341.116.341.266C297.214,324.575,296.958,324.674,296.838,324.708Zm5.076-2.887a4.5,4.5,0,0,0-.256-.779c-.974.149-2.273.348-5.213.647-.1.182-.222.315-.376.315s-.222-.133-.239-.315l-.171-1.41c.291,0,.393,0,1.248-.033a16.44,16.44,0,0,0,1.469-3.467l1.505.548c.119.049.306.1.306.315s-.068.232-.58.381a14.3,14.3,0,0,1-1.043,2.156c.872-.049,1.949-.1,2.616-.182a4.558,4.558,0,0,0-.907-1.227l1.385-.614a6.768,6.768,0,0,1,1.742,3.135Zm.82,4.545.035.033c-.582,2.107-1.2,2.173-2.923,2.173-2.461,0-2.529-.265-2.529-2.952,0-1.924,0-2.14-.051-3.019l1.692.183c.358.032.444.066.444.248,0,.15-.035.166-.444.4a21.2,21.2,0,0,0-.086,2.621c0,.946.1,1.1,1.025,1.1.821,0,1.078-.1,1.248-.7.035-.116.136-.663.154-.78l1.385.7c-.1-.332-.342-1.078-.446-1.31-.41-1.012-.461-1.128-.563-1.377l1.264-.58a16.837,16.837,0,0,1,1.026,2.653Zm-2.41-1.625a7.937,7.937,0,0,0-1.384-2.554l1.179-.548a8.068,8.068,0,0,1,1.453,2.256Zm2.342-6.967a6.794,6.794,0,0,1-2.752-2.886l1.266-.812a6.974,6.974,0,0,0,2.716,2.6Z" transform="translate(570.776 -147.694)" fill="#2d2f33"/>
    <path id="パス_4785" data-name="パス 4785" d="M321.351,321.954a11.829,11.829,0,0,1-2.632-1.36v.763c-.77-.033-2.188-.066-2.974-.066h-3.11c-.684,0-1.864.016-2.547.049v-.912a13.9,13.9,0,0,1-2.614,1.493l-1.384-1.343a13.1,13.1,0,0,0,4.512-2.638,13.489,13.489,0,0,0,2.972-4l2.034.68c.2.066.359.116.359.282,0,.149-.137.216-.359.332a10.526,10.526,0,0,0,2.735,3.118,13.617,13.617,0,0,0,4.118,2.223Zm-3.88,7.116c.035-.448.035-.514.051-.8h-6.2c0,.05.036.73.052.8H309.7c.034-.282.086-1.675.086-1.974v-2.638a15.31,15.31,0,0,0-.1-1.774c.6.033,1.658.083,2.786.083h3.5c.615,0,1.282,0,3.179-.1-.035.713-.051,1.46-.051,1.908v2.272c0,.614.034,1.592.051,2.223Zm-3.2-12.9a18.786,18.786,0,0,1-3.418,3.648c1.454.067,1.623.083,1.709.083h3.042c.427,0,1.488-.033,2.068-.066A15.306,15.306,0,0,1,314.275,316.166Zm3.3,7.994h-6.289v2.7h6.289Z" transform="translate(570.776 -147.694)" fill="#2d2f33"/>
    <path id="パス_4786" data-name="パス 4786" d="M336.155,320.014c-.085,2.156-.171,4.2-1.692,6.037a9.815,9.815,0,0,1-3.35,2.588l-1.468-1.112c4.476-2.007,4.785-4.1,4.853-7.53h-4.187v1.012a16.291,16.291,0,0,0,.187,3.085H328.7c.068-.548.171-2.754.171-3.251V320c-1.846.05-2.375.05-3.657.133v-1.609c1.009.066,2.632.132,3.657.132v-.315a29.007,29.007,0,0,0-.154-3.251l1.675.15c.325.033.547.066.547.3s-.256.382-.5.514a18.952,18.952,0,0,0-.136,2.6h4.2a22.9,22.9,0,0,0-.308-3.914l1.777.149c.53.05.6.05.6.266,0,.1-.051.149-.478.531.017.58.017.829.051,2.952,1.863-.033,2.564-.083,3.128-.116v1.609C338.616,320.1,337.984,320.047,336.155,320.014Z" transform="translate(570.776 -147.694)" fill="#2d2f33"/>
    <path id="パス_4787" data-name="パス 4787" d="M353.574,316.2a40.151,40.151,0,0,1-3.418,3.168v4.445c0,1.177.052,1.327.086,2.72a16.5,16.5,0,0,0,.119,1.874h-1.828c.034-.348.069-.713.069-.78,0-.629.034-3.383.034-3.947v-3.184a27.588,27.588,0,0,1-4.683,2.521l-1.641-1.278a17.4,17.4,0,0,0,5.845-2.869,19.256,19.256,0,0,0,4.529-4.445l1.555,1.128a.42.42,0,0,1,.171.3C354.412,316.166,354.1,316.166,353.574,316.2Z" transform="translate(570.776 -147.694)" fill="#2d2f33"/>
    <path id="パス_4788" data-name="パス 4788" d="M366.208,324.227a14.913,14.913,0,0,0-5.059-3.434v2.753c0,.979.069,3.882.189,4.727H359.27a21.118,21.118,0,0,0,.136-2.438c.018-.381.069-2.056.069-2.4V319.1c0-.646-.051-2.421-.1-3.035a6.652,6.652,0,0,0-.171-1.1l2.274.15c.1,0,.324.033.324.248,0,.166-.188.282-.565.5-.068,1.029-.085,2.057-.085,3.069v1.84l.8-1.476a17.61,17.61,0,0,1,5.383,3.616Z" transform="translate(570.776 -147.694)" fill="#2d2f33"/>
  </g>
</svg>
