<?xml version="1.0" encoding="utf-8"?>
<!-- Generator: Adobe Illustrator 21.1.0, SVG Export Plug-In . SVG Version: 6.00 Build 0)  -->
<svg version="1.1" id="レイヤー_1" xmlns="http://www.w3.org/2000/svg" xmlns:xlink="http://www.w3.org/1999/xlink" x="0px"
	 y="0px" viewBox="0 0 392 95" style="enable-background:new 0 0 392 95;" xml:space="preserve">
<style type="text/css">
	.st0{fill:#FFFFFF;}
</style>
<path class="st0" d="M373.8,36.4l-8.1,0.3L363,48.3c0,0,7.6,1.1,11.1-2.5c1.7-1.6,2.8-3.8,2.8-6.2c0.2-1.6-0.9-3-2.5-3.2
	C374.2,36.4,374,36.4,373.8,36.4L373.8,36.4z M379.2,22c0.5-0.9,1.4-3.8,0.7-4.9c-0.7-1.2-1.9-1.2-3.6-1.1c-4.7,0.3-5.9,0.4-5.9,0.4
	L368,27.2c2.4,0.2,4.9-0.1,7.2-1C376.9,25.3,378.4,23.9,379.2,22z M362.1,7.2l18.4-1.9c0,0,4.1-0.2,6.6,0.8c2.6,1.1,4.5,3.4,4.4,8.1
	c-0.1,3-0.8,6-2.2,8.7c-1.5,2.8-3.6,5.2-6.3,7c1.9,0.7,3.5,2.2,4.3,4.1c1.2,3,0.9,7.8-0.6,11.8c-1.8,5.1-5.6,9.1-10.5,11.3
	c-1.8,0.9-3.8,1.3-5.8,1.4h-20.9L362.1,7.2z"/>
<polygon class="st0" points="323.1,10.4 309.5,58.4 341.1,58.4 343.5,48.4 323.1,48.7 325.8,38.7 342.5,38.1 344.9,28 328.4,29.1 
	331.2,18.5 351.2,17.1 353.5,7.8 "/>
<polygon class="st0" points="314.2,11.1 305.4,11.9 289.8,42.5 290.3,13.2 277.8,14.3 262.7,42.5 262.8,15.7 252.6,16.6 252.6,16.5 
	252.1,16.6 253.2,58.4 264.2,58.4 281.4,28.5 281.8,58.4 292.9,58.4 316.9,10.8 "/>
<path class="st0" d="M8,58.4l-8-6.9l0.4-0.3c4.7-3.6,9-7.7,12.8-12.2c3.8-4.4,7.2-9.1,10.1-14.1l0.2-0.4l8.6,6.8l-0.2,0.3
	c-3.2,4.7-6.7,9.1-10.4,13.4c-4.1,4.7-8.5,9.1-13.2,13.1L8,58.4z"/>
<path class="st0" d="M52.1,49.7l-0.2-0.4c-2.8-6.5-7.9-15.5-13-21.1l-0.3-0.3l9.4-7.2l0.2,0.3c5.4,6.3,10,13.3,13.6,20.9l0.1,0.3
	L52.1,49.7z"/>
<polygon class="st0" points="80.3,17.6 81.4,7.6 116.6,4.7 115.5,14.7 "/>
<path class="st0" d="M82.1,62l-6.3-8.2l0.4-0.2c6.9-4,13.5-8.5,19.8-13.5c3.7-3.1,6.9-6.7,9.4-10.8c-2,0.2-5.1,0.5-8.5,0.8l-4.4,0.4
	c-3.6,0.3-9.3,0.8-13.9,1.3c-2.1,0.2-4,0.4-5.2,0.5l-0.4,0l1-10.1l43-3.5l4.9,6.2l-0.2,0.3c-5,7-9.2,13-15.4,18.9
	c-7.4,6.7-15.4,12.7-23.9,17.9L82.1,62z"/>
<path class="st0" d="M59.4,11.5L59.4,11.5c-1.8,0.1-3.2,1.4-3.5,3.2c-0.4,1.2,0.3,2.4,1.4,2.9c0.2,0.1,0.5,0.1,0.8,0.1
	c1.8-0.1,3.3-1.4,3.6-3.2c0.2-0.8,0-1.6-0.4-2.2C60.7,11.8,60,11.5,59.4,11.5z M57.3,22.1c-1.7,0-3.4-0.7-4.5-2.1
	c-1.2-1.6-1.6-3.6-1.2-5.5c0.8-4.1,4.5-7.4,8.4-7.4h0c1.8,0,3.4,0.7,4.6,2.1c1.2,1.5,1.6,3.5,1.2,5.4c-0.7,4-4,7.1-8.1,7.4v0
	L57.3,22.1L57.3,22.1z"/>
<path class="st0" d="M173,17c1-5,2.2-10.7,2.8-13.6l0.1-0.5L165,4l0,0.3c-0.6,3.8-1.5,8.6-2.3,12.9l-0.2,0.8l-9.8,1l0-0.1
	c0.9-4.7,1.7-8.5,2.2-10.6l0.1-0.5l-10.8,1.1l0,0.3c-0.3,1.9-1,6.1-1.7,10.9l-12.1,1.2l-0.3,0l-1,10.4l11.7-1.2
	c-0.7,4.4-1.3,8.2-1.5,10l-0.1,0.5l10-1l0-0.3c0.4-2.7,1-6.5,1.6-10.2l9.4-0.9c-1.1,4.8-3.1,9.2-6,13.2c-3.1,4.2-8.3,8.9-15.3,14.1
	l-0.4,0.3l8.2,5.9l0.2-0.2c6-4.6,11.3-10.1,15.9-16.2c3.9-5.4,6.7-11.7,8-18.2l12.6-1.3l0.3,0l1-10.3L173,17z"/>
<path class="st0" d="M200.3,40.4l-5.6-5.9l-0.2,0.3c-3.4,4.5-7.3,8.5-11.7,12.1l-0.3,0.2l5.7,6.7l0.2-0.2c4.4-3.9,8.3-8.2,11.7-13
	L200.3,40.4z"/>
<path class="st0" d="M229.8,33.6l-0.2-0.3l-8.1,8l-0.2,0.3l0.2,0.3c3.4,3.7,6.2,7.9,8.2,12.5l0.2,0.4l9.5-7.9l-0.1-0.3
	C236.7,41.9,233.6,37.5,229.8,33.6z"/>
<path class="st0" d="M221.6,19.7c1.5-7.4,2.7-13.4,3-14.7l0.1-0.5l-11.3,1.2l0,0.3c-0.4,2.7-1.4,8.5-2.5,14.7l-19.1,1.8l-1,9.9
	l0,0.4l18.3-1.7c-1,5.6-1.8,10.1-2,11.3c-1.5,7.2-1.6,7.4-4.6,7.4c-1.6,0-3.2-0.1-4.7-0.3l-0.5-0.1l2.4,10.5h0.3
	c0.4,0,0.9,0,1.5,0.1c0.8,0,1.8,0.1,2.7,0.1c6.3,0,9.7-1.2,11-7.8l1.3-6.6c0.9-4.3,2-9.9,3.1-15.5l19.5-1.8l0.3,0l1-9.9l0-0.4
	L221.6,19.7z"/>
<path class="st0" d="M233.1,8.2c0,1,0.6,1.8,1.5,2.2c0.2,0.1,0.5,0.1,0.8,0.1h0c1.8-0.1,3.3-1.4,3.6-3.2c0-0.2,0.1-0.4,0.1-0.7
	c0-0.6-0.2-1.1-0.5-1.6c-0.4-0.5-1.1-0.8-1.8-0.8h0c-1.8,0.1-3.2,1.4-3.5,3.2C233.1,7.8,233.1,8,233.1,8.2L233.1,8.2z M234.7,15
	c-1.7,0-3.4-0.7-4.5-2.1c-0.9-1.1-1.4-2.6-1.3-4c0-0.5,0.1-1,0.1-1.5c0.8-4.1,4.5-7.4,8.4-7.4h0c1.8,0,3.4,0.7,4.6,2.1
	c0.9,1.1,1.4,2.5,1.3,4c0,0.5,0,1-0.1,1.5c-0.7,4-4,7.1-8.1,7.4v0L234.7,15L234.7,15z"/>
<path class="st0" d="M50.2,80.3c-0.4,0-0.8,0.3-0.8,0.8c0,0.4,0.4,0.8,0.8,0.8c0.5,0,0.8-0.4,0.8-0.8C51,80.6,50.6,80.3,50.2,80.3z
	 M50.2,82.9c-1,0-1.8-0.8-1.8-1.8s0.8-1.8,1.8-1.8c1,0,1.9,0.8,1.9,1.8S51.2,82.9,50.2,82.9z M49.2,91.7c-0.2-1.1-0.5-2.7-1.4-4.6
	c-0.2-0.3-1.4-2.7-2.6-4.1l1.4-0.9c1,1.2,1.7,2.2,2.6,4.1c1.1,2,1.4,3,1.8,4.9L49.2,91.7z M41.9,83.3c-0.2,0.4-0.6,2-0.8,2.6
	c-0.6,2.1-1.7,4.5-3.4,6.4L36,91.5c1-1.1,1.9-2.2,2.8-4c0.8-1.7,1.3-3.5,1.4-5.4l2,0.5c0.1,0,0.4,0.1,0.4,0.3
	C42.6,83.1,42.3,83.2,41.9,83.3z"/>
<path class="st0" d="M62.3,81.8h-2.8c-0.9,0-1.9,0-2.8,0.1v-1.6c1,0.1,2.4,0.1,2.8,0.1h2.8c0.9,0,1.9,0,2.8-0.1v1.6
	C63.9,81.8,62.4,81.8,62.3,81.8z M66.2,86.7c-0.6,1.4-1.7,3-2.8,4.1c-1.4,1.3-2.7,2-5.3,3.2l-1.4-1.5c1.5-0.2,2.9-0.9,4.1-1.7
	c2.1-1.4,3.7-3.9,4.1-5.3h-5.4c-1.3,0-3.6,0.1-4.9,0.2v-1.8c0.3,0.1,0.5,0.1,0.9,0.1c0.8,0.1,2.4,0.1,3.1,0.1h4.1
	c0.5,0,1.7,0,2.2-0.1c0.6-0.1,0.8-0.2,1.1-0.4l1.3,1.3C66.8,85.5,66.4,86.3,66.2,86.7z"/>
<path class="st0" d="M81.6,80.9c-0.2,0.1-0.2,0.1-0.3,0.2c0,0.8-0.1,4.3-0.1,5c-0.1,1.1-0.2,3.7-2.3,5.5c-0.3,0.2-2,1.7-3.5,2.3
	l-1.5-1.5c0.6-0.1,2-0.4,3.6-1.7c2-1.7,2-3.8,2-7.8c0-1.9,0-2,0-2.8l1.8,0.1c0.2,0,0.5,0,0.5,0.3C81.7,80.8,81.7,80.9,81.6,80.9z
	 M73.9,81.4c0,0.5,0,1.6,0,2.1v2.4c0,0.5,0.1,2.3,0.1,2.8h-1.9c0.1-0.7,0.1-2,0.1-2.8v-2.7c0-0.6,0-2-0.1-2.6l1.7,0.1
	c0.4,0,0.5,0.1,0.5,0.3C74.4,81.1,74.1,81.2,73.9,81.4z"/>
<path class="st0" d="M90.4,84.3c-1.1-1-2.9-1.9-3.7-2.3l0.9-1.5c2.5,1.2,3.3,1.9,3.8,2.3L90.4,84.3z M88,92.9c0,0.1-0.1,0.3-0.2,0.4
	c0,0.1-0.1,0.1-0.2,0.1c-0.1,0-0.2-0.1-0.4-0.4l-0.9-1.7c2.6-0.3,8.8-3,12-7l0.7,1.6C95.8,89.6,90.4,91.9,88,92.9z"/>
<path class="st0" d="M114.9,80.5c-0.4,0-0.9,0.3-0.9,0.8c0,0.5,0.4,0.8,0.9,0.8c0.4,0,0.8-0.3,0.8-0.8
	C115.8,80.8,115.4,80.5,114.9,80.5z M114.9,83c-1,0-1.9-0.8-1.9-1.8c0-1,0.8-1.8,1.8-1.8c1,0,1.9,0.8,1.9,1.8
	C116.8,82.3,116,83,114.9,83z M109,93.4c-0.5,0-3,0-4-0.6c-0.5-0.3-0.9-0.9-1-1.6c-0.1-0.3-0.1-0.4-0.1-1.6v-4.3c0-1,0-1.5-0.1-4.8
	l1.9,0.3c0.4,0.1,0.5,0.1,0.5,0.3c0,0.1,0,0.1-0.4,0.5c-0.2,1.9-0.2,3.6-0.2,3.7v0.4c2.1-0.1,6.6-1.7,7.8-2.5l1,1.6
	c0,0,0.1,0.1,0.1,0.2c0,0.1-0.1,0.2-0.2,0.2c-0.1,0-0.2,0-0.4-0.1c-5.2,1.5-6.5,1.9-8.3,2v3.2c0,0.8,0.4,1.5,3.4,1.5
	c3.5,0,4.9-0.5,5.8-0.8V93C112.7,93.3,109.7,93.4,109,93.4z"/>
<path class="st0" d="M124.5,87.2c-0.2-0.6-0.6-1.6-1.5-2.7l1.3-0.4c0.8,1,1.1,1.9,1.5,2.7L124.5,87.2z M130.2,85.2
	c-0.2,0.1-0.3,0.1-0.3,0.2c-0.1,0.1-0.5,1.7-0.7,2c-1.7,4.3-4.3,5.7-6.2,6.6l-1.1-1c1.2-0.5,3.1-1.3,4.7-3.4c1.5-2,1.8-4.1,2-5.4
	l1.3,0.5c0.3,0.1,0.5,0.2,0.5,0.4C130.4,85.1,130.3,85.1,130.2,85.2z M121.1,87.9c-0.3-0.6-0.7-1.6-1.5-2.6l1.3-0.4
	c0.6,0.8,1.1,1.6,1.5,2.6L121.1,87.9z"/>
<path class="st0" d="M145.8,83.8c-1.4,3.8-3.4,7.9-8.2,10.4l-1.5-1.2c1.3-0.5,3.3-1.4,5.3-4c1.9-2.5,2.4-4.5,2.6-5.5h-5.2
	c-0.8,1.3-1.8,2.6-3.4,3.9l-1.4-1c0.5-0.4,1.7-1.2,3-3.2c0.6-0.9,1.5-2.3,1.7-3.2l1.9,0.8c0.1,0.1,0.2,0.1,0.2,0.2
	c0,0.2-0.2,0.3-0.3,0.3c-0.2,0.1-0.3,0-0.5,0.2c-0.2,0.2-0.2,0.3-0.4,0.7h2.7c2.1,0,2.3-0.1,2.8-0.3l1.3,1.3
	C146,83.5,146,83.5,145.8,83.8z"/>
<path class="st0" d="M151.4,94.3c-1-1.4-2.1-2.5-3.5-3.4l1.2-1.1c2.1,1.3,3.1,2.5,3.7,3.2L151.4,94.3z"/>
<path class="st0" d="M172.6,80.3c-0.4,0-0.8,0.3-0.8,0.8c0,0.4,0.4,0.8,0.8,0.8c0.5,0,0.8-0.4,0.8-0.8
	C173.4,80.6,173,80.3,172.6,80.3z M172.6,82.9c-1,0-1.8-0.8-1.8-1.8s0.8-1.8,1.8-1.8c1,0,1.9,0.8,1.9,1.8S173.6,82.9,172.6,82.9z
	 M171.6,91.7c-0.2-1.1-0.5-2.7-1.4-4.6c-0.2-0.3-1.4-2.7-2.6-4.1l1.4-0.9c1,1.2,1.7,2.2,2.6,4.1c1.1,2,1.4,3,1.8,4.9L171.6,91.7z
	 M164.3,83.3c-0.2,0.4-0.6,2-0.8,2.6c-0.6,2.1-1.7,4.5-3.4,6.4l-1.7-0.8c1-1.1,1.9-2.2,2.8-4c0.8-1.7,1.3-3.5,1.4-5.4l2,0.5
	c0.1,0,0.4,0.1,0.4,0.3C165,83.1,164.7,83.2,164.3,83.3z"/>
<path class="st0" d="M184.5,81.8h-2.8c-0.9,0-1.9,0-2.8,0.1v-1.6c1,0.1,2.4,0.1,2.8,0.1h2.8c0.9,0,1.9,0,2.8-0.1v1.6
	C186.1,81.8,184.6,81.8,184.5,81.8z M188.5,86.7c-0.6,1.4-1.7,3-2.8,4.1c-1.4,1.3-2.7,2-5.3,3.2l-1.4-1.5c1.5-0.2,2.9-0.9,4.1-1.7
	c2.1-1.4,3.7-3.9,4.1-5.3h-5.4c-1.3,0-3.6,0.1-4.9,0.2v-1.8c0.3,0.1,0.5,0.1,0.9,0.1c0.8,0.1,2.4,0.1,3.1,0.1h4.1
	c0.5,0,1.7,0,2.2-0.1c0.6-0.1,0.8-0.2,1.1-0.4l1.3,1.3C189,85.5,188.7,86.3,188.5,86.7z"/>
<path class="st0" d="M204.3,93c-1.6-2.4-3.6-4-4.4-4.5c-2.4,2.7-4.7,3.8-6.3,4.6l-1.3-1.5c0.8-0.3,2.6-0.9,4.4-2.3
	c2.1-1.7,3.6-3.9,4.6-6.4h-3c-1.2,0-2.9,0-4.1,0.2v-1.7c0.5,0.1,2.6,0.1,3.3,0.1h2.5c1.7,0,1.9,0,2.1-0.1c0.4-0.1,0.7-0.2,0.8-0.4
	l1.3,1.4c-0.3,0.2-0.4,0.3-0.8,0.6c-1,1.9-1.7,3.1-2.5,4.3c2.5,1.7,4.4,3.9,4.8,4.6L204.3,93z"/>
<path class="st0" d="M221.9,80.1c-0.5,0-0.8,0.4-0.8,0.8c0,0.4,0.4,0.8,0.8,0.8c0.4,0,0.8-0.4,0.8-0.8
	C222.8,80.5,222.4,80.1,221.9,80.1z M221.9,82.7c-1,0-1.8-0.8-1.8-1.8c0-1,0.8-1.8,1.8-1.8c1,0,1.8,0.8,1.8,1.8
	C223.8,81.9,222.9,82.7,221.9,82.7z M221.3,91.4c-0.6-1.5-2.5-3.4-3.2-3.9l1.3-1c1.1,0.8,2.7,2.6,3.5,3.9L221.3,91.4z M217.9,85.1
	h-1.1v3.6c0,0.6,0,2,0,2.5c0,0.6,0.1,1.4-0.7,1.8c-0.7,0.4-1.4,0.4-2.9,0.4l-0.7-1.9c0.5,0.1,0.9,0.2,1.2,0.2c1.2,0,1.4-0.3,1.4-1.2
	v-5.4h-1.5c-1.4,0-2.8,0-4.2,0.2v-1.6c1.5,0.1,3.6,0.1,4.2,0.1h1.4c0-1.9,0-2.3-0.2-3.4l2.2,0.3c0.3,0.1,0.5,0.1,0.5,0.3
	c0,0.1-0.1,0.2-0.2,0.3c-0.2,0.1-0.2,0.1-0.4,0.2c-0.1,0.5-0.1,1.5-0.2,2.3h1c1.4,0,2.8,0,4.2-0.1v1.6
	C220.3,85.1,218.1,85.1,217.9,85.1z M210.2,91.6l-1.5-1.1c1.4-1,2.9-2.8,3.5-3.9l1.4,0.8C212.4,89.4,211.5,90.5,210.2,91.6z"/>
<path class="st0" d="M234.4,87.7h-3.8c-0.2,0-2.7,0-4.4,0.2v-1.8c1.2,0.2,2.7,0.2,4.4,0.2h3.8c1.5,0,2.9,0,4.4-0.2v1.8
	C237.4,87.7,235.4,87.7,234.4,87.7z"/>
<path class="st0" d="M247.9,84.8c-0.2-1.4-1.2-2.8-1.7-3.5l1.7-0.5c0.6,0.7,1.5,2.1,1.8,3.5L247.9,84.8z M254.8,82.6
	c-0.9,2.9-1.8,4.7-3,6.2c-1.1,1.3-3.5,3.6-6,4.4l-1.5-1.4c0.7-0.2,1.8-0.4,3.5-1.7c1.6-1.1,3.1-2.6,4.3-5.3c0.9-2.3,0.9-3.3,0.9-3.9
	l1.9,0.7c0.3,0.1,0.5,0.2,0.5,0.4C255.4,82.3,255.4,82.3,254.8,82.6z M243.7,85.6c-0.3-0.8-0.8-2.1-1.8-3.4l1.6-0.6
	c1.2,1.6,1.6,2.6,1.8,3.4L243.7,85.6z"/>
<path class="st0" d="M264.4,82.2c-1.5,0.2-4.3,2-4.3,5.3c0,1.5,0.9,3,1.7,3c0.6,0,1-1,1.2-1.4c1.2-2.8,1.7-5.6,1.8-6.9
	C264.6,82.2,264.5,82.2,264.4,82.2z M267.6,93.4l-1.3-1.4c1-0.2,2.7-0.7,3.8-1.9c1-1.1,1.3-2.7,1.3-3.7c0-2.4-1.8-3.5-2.6-3.9
	c-1-0.5-1.7-0.5-2.3-0.5c-0.3,2-0.7,5-2.1,8c-0.3,0.7-1.2,2.5-2.2,2.5c-0.6,0-1.2-0.3-1.5-0.6c-0.6-0.5-2.1-2-2.1-4.5
	c0-1.2,0.4-3.1,1.9-4.6c2.4-2.3,4.6-2.3,5.6-2.3c1.6,0,3.7,0.3,5.4,2.1c1,1.1,1.5,2.5,1.5,4C272.9,90.7,269.9,92.8,267.6,93.4z"/>
<path class="st0" d="M290.4,83.2c-0.6-0.4-1.7-1-2.8-2.9l1.3-0.8c0.8,1.4,1.8,2.1,2.7,2.6L290.4,83.2z M288.1,90.2
	c-0.5-1.4-1-2.1-1.4-2.6l1.2-0.5c0.7,0.7,1.2,1.7,1.5,2.3L288.1,90.2z M290.5,91.8L290.5,91.8c-0.5,2.1-1.2,2.2-2.9,2.2
	c-2.5,0-2.5-0.3-2.5-3c0-1.9,0-2.1-0.1-3l1.7,0.2c0.4,0,0.4,0.1,0.4,0.2c0,0.1,0,0.2-0.4,0.4c-0.1,0.5-0.1,0.9-0.1,2.6
	c0,0.9,0.1,1.1,1,1.1c0.8,0,1.1-0.1,1.2-0.7c0-0.1,0.1-0.7,0.2-0.8L290.5,91.8c-0.2-0.3-0.4-1.1-0.5-1.3c-0.4-1-0.5-1.1-0.6-1.4
	l1.3-0.6c0.5,1.2,0.7,1.6,1,2.7L290.5,91.8z M289.7,87.3c-0.1-0.3-0.1-0.4-0.3-0.8c-1,0.1-2.3,0.3-5.2,0.6c-0.1,0.2-0.2,0.3-0.4,0.3
	c-0.2,0-0.2-0.1-0.2-0.3l-0.2-1.4c0.3,0,0.4,0,1.2,0c1-1.8,1.3-2.8,1.5-3.5l1.5,0.5c0.1,0,0.3,0.1,0.3,0.3c0,0.2-0.1,0.2-0.6,0.4
	c-0.5,1.2-0.8,1.8-1,2.2c0.9,0,1.9-0.1,2.6-0.2c-0.4-0.7-0.7-1-0.9-1.2l1.4-0.6c0.7,0.8,1.4,1.6,1.7,3.1L289.7,87.3z M284.6,90.2
	c-0.2,1.5-0.6,2.9-1.1,3.6l-1.5-0.6c0.7-0.9,1.3-1.9,1.2-3.9l1.4,0.2c0.1,0,0.3,0.1,0.3,0.3C285,90,284.7,90.1,284.6,90.2z
	 M281.3,91.9c-0.2-1.9-0.6-2.8-0.9-3.3l1.4-0.4c0.4,0.8,0.8,1.6,0.9,3.2L281.3,91.9z M286.2,80.8c-1,1.8-1.8,2.5-2.2,2.8l-1.2-0.8
	c0,0-0.1,0.1-0.2,0.1c-0.1,0-0.5,0.1-0.6,0.1c-0.2,0.3-1.2,1.5-1.5,1.8c-0.3,0.4-1.3,1.4-1.4,1.5c1.1-0.1,1.5-0.1,2-0.2
	c-0.2-0.3-0.3-0.5-0.5-0.8l1.4-0.6c0.7,1.2,1,1.9,1.3,2.9l-1.4,0.4c-0.1-0.3-0.1-0.5-0.2-0.8c-0.5,0.1-0.7,0.1-1.4,0.2V91
	c0,1.1,0.1,2.4,0.2,3.4h-1.8c0.2-1.5,0.2-3.4,0.2-3.4v-3.5c-0.5,0.1-1.5,0.2-2.1,0.2c-0.1,0.1-0.2,0.4-0.4,0.4
	c-0.2,0-0.3-0.1-0.3-0.5l-0.1-1.3c0.4,0,0.5,0,1.3,0c1-0.9,1.2-1.2,1.5-1.6c-0.8-0.7-1.7-1.6-2.7-2l0.9-1.2c0.3,0.2,0.5,0.2,0.9,0.5
	c0.8-1,1.5-2.1,1.7-2.7l1.5,0.9c0.1,0,0.2,0.1,0.2,0.2c0,0.3-0.2,0.3-0.6,0.3c-0.7,0.9-1.3,1.7-1.7,2c0.2,0.1,0.6,0.5,0.9,0.7
	c0.7-0.9,1-1.3,1.5-2.1l1.5,1c0.2,0.1,0.2,0.1,0.2,0.2c1.4-1.3,1.9-2.5,2.2-3.1l1.5,0.8c0.2,0.1,0.3,0.1,0.3,0.2
	C286.8,80.8,286.6,80.8,286.2,80.8z M278.1,89.4c-0.1,1.3-0.3,2.5-0.8,3.8l-1.6-0.5c0.7-1.5,0.9-3,0.9-4.2l1.5,0.2
	c0.2,0,0.3,0.1,0.3,0.3C278.4,89.2,278.3,89.3,278.1,89.4z"/>
<path class="st0" d="M305.3,89.6h-6.3v2.7h6.3V89.6z M302.1,81.6c-1.6,2.2-3.3,3.5-3.4,3.6c1.5,0.1,1.6,0.1,1.7,0.1h3
	c0.4,0,1.5,0,2.1-0.1C304.1,84.3,303,83,302.1,81.6z M305.2,94.5c0-0.4,0-0.5,0.1-0.8h-6.2c0,0,0,0.7,0.1,0.8h-1.7
	c0-0.3,0.1-1.7,0.1-2v-2.6c0-0.6,0-1.2-0.1-1.8c0.6,0,1.7,0.1,2.8,0.1h3.5c0.6,0,1.3,0,3.2-0.1c0,0.7-0.1,1.5-0.1,1.9v2.3
	c0,0.6,0,1.6,0.1,2.2H305.2z M309.1,87.4c-0.9-0.3-1.8-0.8-2.6-1.4v0.8c-0.8,0-2.2-0.1-3-0.1h-3.1c-0.7,0-1.9,0-2.5,0v-0.9
	c-1.3,0.9-2.2,1.3-2.6,1.5l-1.4-1.3c1.8-0.5,3.6-1.8,4.5-2.6c1.5-1.4,2.4-2.9,3-4l2,0.7c0.2,0.1,0.4,0.1,0.4,0.3
	c0,0.1-0.1,0.2-0.4,0.3c0.6,1.4,2.3,2.8,2.7,3.1c1.4,1.1,2.4,1.5,4.1,2.2L309.1,87.4z"/>
<path class="st0" d="M323.9,85.5c-0.1,2.2-0.2,4.2-1.7,6c-1.3,1.6-2.8,2.3-3.4,2.6l-1.5-1.1c4.5-2,4.8-4.1,4.9-7.5h-4.2v1
	c0,1.6,0,2.4,0.2,3.1h-1.8c0.1-0.5,0.2-2.8,0.2-3.3v-0.8c-1.8,0-2.4,0-3.7,0.1V84c1,0.1,2.6,0.1,3.7,0.1v-0.3c0-1.6-0.1-2.1-0.2-3.3
	l1.7,0.1c0.3,0,0.5,0.1,0.5,0.3c0,0.2-0.3,0.4-0.5,0.5c-0.1,0.4-0.1,1.1-0.1,2.6h4.2c0-1-0.1-2.9-0.3-3.9l1.8,0.1
	c0.5,0,0.6,0,0.6,0.3c0,0.1-0.1,0.1-0.5,0.5c0,0.6,0,0.8,0.1,3c1.9,0,2.6-0.1,3.1-0.1v1.6C326.4,85.6,325.8,85.5,323.9,85.5z"/>
<path class="st0" d="M341.3,81.7c-1.7,1.7-2.3,2.2-3.4,3.2v4.4c0,1.2,0.1,1.3,0.1,2.7c0,1,0.1,1.4,0.1,1.9h-1.8
	c0-0.3,0.1-0.7,0.1-0.8c0-0.6,0-3.4,0-3.9V86c-1.5,1-3,1.8-4.7,2.5l-1.6-1.3c1-0.3,3.1-0.9,5.8-2.9c1.7-1.2,3.3-2.7,4.5-4.4L342,81
	c0.1,0.1,0.2,0.2,0.2,0.3C342.2,81.6,341.9,81.6,341.3,81.7z"/>
<path class="st0" d="M354,89.7c-0.9-0.9-2.5-2.4-5.1-3.4V89c0,1,0.1,3.9,0.2,4.7H347c0.1-0.8,0.1-2.1,0.1-2.4c0-0.4,0.1-2.1,0.1-2.4
	v-4.3c0-0.6-0.1-2.4-0.1-3c0-0.4-0.1-0.7-0.2-1.1l2.3,0.1c0.1,0,0.3,0,0.3,0.2c0,0.2-0.2,0.3-0.6,0.5c-0.1,1-0.1,2.1-0.1,3.1v1.8
	l0.8-1.5c2.4,1,4.6,2.7,5.4,3.6L354,89.7z"/>
</svg>
