<svg xmlns="http://www.w3.org/2000/svg" width="34.048" height="12" viewBox="0 0 34.048 12">
  <g id="text-top" transform="translate(-836.651 -1276)">
    <path id="text-top-2" data-name="text-top" d="M-11.424-9.024V0h-2.5V-9.024h-3.168v-2.16h8.832v2.16ZM2.624-5.648a3.67,3.67,0,0,0-.96-2.56A3.065,3.065,0,0,0-.7-9.264a3.066,3.066,0,0,0-2.36,1.056,3.66,3.66,0,0,0-.96,2.552,3.631,3.631,0,0,0,.96,2.544A3.076,3.076,0,0,0-.7-2.064a3.076,3.076,0,0,0,2.36-1.048A3.621,3.621,0,0,0,2.624-5.648Zm.848,4.112A5.761,5.761,0,0,1-.7.112,5.747,5.747,0,0,1-4.88-1.544a5.525,5.525,0,0,1-1.7-4.12,5.525,5.525,0,0,1,1.7-4.12A5.747,5.747,0,0,1-.7-11.44,5.747,5.747,0,0,1,3.472-9.784a5.525,5.525,0,0,1,1.7,4.12A5.551,5.551,0,0,1,3.472-1.536Zm8.56-9.648a5.741,5.741,0,0,1,3.752,1A3.811,3.811,0,0,1,16.96-7.112,3.639,3.639,0,0,1,15.752-4.08a5.875,5.875,0,0,1-3.688.96H10.576V0H8.08V-11.184Zm.224,5.9a2.227,2.227,0,0,0,1.7-.5A2.15,2.15,0,0,0,14.4-7.256a1.56,1.56,0,0,0-.584-1.376A3.209,3.209,0,0,0,12-9.04H10.576v3.76Z" transform="translate(853.739 1287.44)" fill="#fff"/>
    <rect id="長方形_1522" data-name="長方形 1522" width="34" height="12" transform="translate(836.651 1276)" fill="none"/>
  </g>
</svg>
